ISO-10303-21;
HEADER;
FILE_DESCRIPTION (( 'STEP AP214' ),
    '1' );
FILE_NAME ('100-0587_0.step',
    '2025-11-05T14:25:39',
    ( '' ),
    ( '' ),
    'SwSTEP 2.0',
    'SolidWorks 2024',
    '' );
FILE_SCHEMA (( 'AUTOMOTIVE_DESIGN' ));
ENDSEC;

DATA;
#1 = CARTESIAN_POINT ( 'NONE',  ( 0.6693459327595885355, -0.03674588827182567741, -0.1499999999999999944 ) ) ;
#2 = CARTESIAN_POINT ( 'NONE',  ( 0.6647006343487915636, 0.1449791942427981761, -0.1499999999999999944 ) ) ;
#3 = ORIENTED_EDGE ( 'NONE', *, *, #1042, .T. ) ;
#4 = AXIS2_PLACEMENT_3D ( 'NONE', #512, #831, #202 ) ;
#5 = DIRECTION ( 'NONE',  ( 1.000000000000000000, 0.000000000000000000, 0.000000000000000000 ) ) ;
#6 = VECTOR ( 'NONE', #337, 39.37007874015748854 ) ;
#7 = CARTESIAN_POINT ( 'NONE',  ( 0.8958614224116745461, -0.5057423350069749635, 0.1499999999999999944 ) ) ;
#8 = ORIENTED_EDGE ( 'NONE', *, *, #708, .T. ) ;
#9 = ADVANCED_FACE ( 'NONE', ( #748 ), #660, .T. ) ;
#10 = SURFACE_STYLE_USAGE ( .BOTH. , #733 ) ;
#11 = CARTESIAN_POINT ( 'NONE',  ( 0.6693459327595885355, -0.03674588827182567741, 0.1499999999999999944 ) ) ;
#12 = ORIENTED_EDGE ( 'NONE', *, *, #920, .F. ) ;
#13 = CARTESIAN_POINT ( 'NONE',  ( 0.6509322737717393448, 0.1048236605820157957, -0.1499999999999999944 ) ) ;
#14 = CARTESIAN_POINT ( 'NONE',  ( 0.8958614224116745461, -0.5057423350069762957, 0.1499999999999999944 ) ) ;
#15 = PLANE ( 'NONE',  #691 ) ;
#16 = LINE ( 'NONE', #484, #529 ) ;
#17 = ORIENTED_EDGE ( 'NONE', *, *, #1009, .F. ) ;
#18 = DIRECTION ( 'NONE',  ( 3.464524462101847430E-15, -1.000000000000000000, -0.000000000000000000 ) ) ;
#19 = DIRECTION ( 'NONE',  ( -0.8829475928589275435, -0.4694715627858896401, 0.000000000000000000 ) ) ;
#20 = EDGE_CURVE ( 'NONE', #366, #704, #460, .T. ) ;
#21 = AXIS2_PLACEMENT_3D ( 'NONE', #848, #127, #451 ) ;
#22 = DIRECTION ( 'NONE',  ( -1.000000000000000000, 0.000000000000000000, 0.000000000000000000 ) ) ;
#23 = AXIS2_PLACEMENT_3D ( 'NONE', #66, #547, #54 ) ;
#24 = CARTESIAN_POINT ( 'NONE',  ( 0.6129239521577726224, -0.01949595769317744379, -0.1499999999999999944 ) ) ;
#25 = ORIENTED_EDGE ( 'NONE', *, *, #885, .F. ) ;
#26 = CARTESIAN_POINT ( 'NONE',  ( 0.6117237787772564772, 0.1168109004756452268, 0.1499999999999999944 ) ) ;
#27 = FACE_OUTER_BOUND ( 'NONE', #171, .T. ) ;
#28 = APPLICATION_CONTEXT ( 'automotive_design' ) ;
#29 = DIRECTION ( 'NONE',  ( -0.000000000000000000, -0.000000000000000000, -1.000000000000000000 ) ) ;
#30 = ORIENTED_EDGE ( 'NONE', *, *, #649, .F. ) ;
#31 = EDGE_CURVE ( 'NONE', #752, #735, #578, .T. ) ;
#32 = EDGE_LOOP ( 'NONE', ( #30, #185, #187, #883 ) ) ;
#33 = CYLINDRICAL_SURFACE ( 'NONE', #895, 0.05899999999999874095 ) ;
#34 = LINE ( 'NONE', #353, #543 ) ;
#35 = DIRECTION ( 'NONE',  ( -0.000000000000000000, -0.000000000000000000, -1.000000000000000000 ) ) ;
#36 = ORIENTED_EDGE ( 'NONE', *, *, #339, .T. ) ;
#37 = EDGE_CURVE ( 'NONE', #362, #587, #823, .T. ) ;
#38 = DIRECTION ( 'NONE',  ( 0.2923717047228389654, 0.9563047559630042382, -0.000000000000000000 ) ) ;
#39 = CYLINDRICAL_SURFACE ( 'NONE', #979, 0.2200000000000011391 ) ;
#40 = VECTOR ( 'NONE', #406, 39.37007874015748143 ) ;
#41 = ORIENTED_EDGE ( 'NONE', *, *, #488, .T. ) ;
#42 = AXIS2_PLACEMENT_3D ( 'NONE', #119, #115, #288 ) ;
#43 = VECTOR ( 'NONE', #899, 39.37007874015748143 ) ;
#44 = EDGE_CURVE ( 'NONE', #61, #1037, #273, .T. ) ;
#45 = PLANE ( 'NONE',  #724 ) ;
#46 = DIRECTION ( 'NONE',  ( -0.1391731009600759850, 0.9902680687415686966, -0.000000000000000000 ) ) ;
#47 = EDGE_LOOP ( 'NONE', ( #279, #549, #721, #758 ) ) ;
#48 = VERTEX_POINT ( 'NONE', #584 ) ;
#49 =( CONVERSION_BASED_UNIT ( 'INCH', #754 ) LENGTH_UNIT ( ) NAMED_UNIT ( #503 ) );
#50 = PLANE ( 'NONE',  #608 ) ;
#51 = EDGE_LOOP ( 'NONE', ( #841, #664, #17, #854 ) ) ;
#52 = ORIENTED_EDGE ( 'NONE', *, *, #675, .F. ) ;
#53 = EDGE_CURVE ( 'NONE', #248, #125, #200, .T. ) ;
#54 = DIRECTION ( 'NONE',  ( -1.000000000000000000, 0.000000000000000000, 0.000000000000000000 ) ) ;
#55 = ORIENTED_EDGE ( 'NONE', *, *, #214, .T. ) ;
#56 = CIRCLE ( 'NONE', #706, 0.2200000000000011113 ) ;
#57 = ORIENTED_EDGE ( 'NONE', *, *, #449, .F. ) ;
#58 = AXIS2_PLACEMENT_3D ( 'NONE', #886, #423, #487 ) ;
#59 = AXIS2_PLACEMENT_3D ( 'NONE', #566, #19, #804 ) ;
#60 = CARTESIAN_POINT ( 'NONE',  ( 0.000000000000000000, 0.000000000000000000, 0.1499999999999999944 ) ) ;
#61 = VERTEX_POINT ( 'NONE', #437 ) ;
#62 = DIRECTION ( 'NONE',  ( 0.000000000000000000, 0.000000000000000000, 1.000000000000000000 ) ) ;
#63 = ORIENTED_EDGE ( 'NONE', *, *, #170, .T. ) ;
#64 = EDGE_CURVE ( 'NONE', #769, #542, #973, .T. ) ;
#65 = DIRECTION ( 'NONE',  ( -0.000000000000000000, -0.000000000000000000, -1.000000000000000000 ) ) ;
#66 = CARTESIAN_POINT ( 'NONE',  ( 0.8876502094550308142, -0.4473165189512249285, -0.1499999999999999944 ) ) ;
#67 = ORIENTED_EDGE ( 'NONE', *, *, #862, .T. ) ;
#68 = DIRECTION ( 'NONE',  ( -0.1391731009600657154, 0.9902680687415703620, -0.000000000000000000 ) ) ;
#69 = ORIENTED_EDGE ( 'NONE', *, *, #581, .T. ) ;
#70 = PRODUCT_RELATED_PRODUCT_CATEGORY ( 'part', '', ( #961 ) ) ;
#71 = DIRECTION ( 'NONE',  ( -1.000000000000000000, 0.000000000000000000, 0.000000000000000000 ) ) ;
#72 = DIRECTION ( 'NONE',  ( 0.000000000000000000, 0.000000000000000000, 1.000000000000000000 ) ) ;
#73 = ORIENTED_EDGE ( 'NONE', *, *, #53, .F. ) ;
#74 = VECTOR ( 'NONE', #734, 39.37007874015748143 ) ;
#75 = DIRECTION ( 'NONE',  ( -0.2923717047228389099, -0.9563047559630042382, 0.000000000000000000 ) ) ;
#76 = EDGE_CURVE ( 'NONE', #797, #284, #103, .T. ) ;
#77 = VECTOR ( 'NONE', #385, 39.37007874015748143 ) ;
#78 = VECTOR ( 'NONE', #567, 39.37007874015748854 ) ;
#79 = ADVANCED_FACE ( 'NONE', ( #904 ), #909, .T. ) ;
#80 = DIRECTION ( 'NONE',  ( -1.000000000000000000, -3.464524462101847430E-15, 0.000000000000000000 ) ) ;
#81 = DIRECTION ( 'NONE',  ( 3.464524462101847430E-15, -1.000000000000000000, -0.000000000000000000 ) ) ;
#82 = ORIENTED_EDGE ( 'NONE', *, *, #194, .F. ) ;
#83 = CARTESIAN_POINT ( 'NONE',  ( 0.6693459327595885355, -0.03674588827182567741, 0.1499999999999999944 ) ) ;
#84 = FACE_OUTER_BOUND ( 'NONE', #386, .T. ) ;
#85 = VERTEX_POINT ( 'NONE', #13 ) ;
#86 = LINE ( 'NONE', #340, #541 ) ;
#87 = DIRECTION ( 'NONE',  ( -0.000000000000000000, -0.000000000000000000, -1.000000000000000000 ) ) ;
#88 = VERTEX_POINT ( 'NONE', #496 ) ;
#89 = VECTOR ( 'NONE', #811, 39.37007874015748143 ) ;
#90 = VECTOR ( 'NONE', #1047, 39.37007874015748143 ) ;
#91 = FILL_AREA_STYLE ('',( #321 ) ) ;
#92 = DIRECTION ( 'NONE',  ( -0.000000000000000000, -0.000000000000000000, -1.000000000000000000 ) ) ;
#93 = VERTEX_POINT ( 'NONE', #834 ) ;
#94 = DIRECTION ( 'NONE',  ( 0.8829475928589275435, 0.4694715627858896401, -0.000000000000000000 ) ) ;
#95 = FACE_OUTER_BOUND ( 'NONE', #536, .T. ) ;
#96 = DIRECTION ( 'NONE',  ( 1.000000000000000000, 0.000000000000000000, 0.000000000000000000 ) ) ;
#97 = ORIENTED_EDGE ( 'NONE', *, *, #367, .F. ) ;
#98 = DIRECTION ( 'NONE',  ( 0.000000000000000000, 0.000000000000000000, 1.000000000000000000 ) ) ;
#99 = DIRECTION ( 'NONE',  ( -0.4694715627858923601, 0.8829475928589261002, 0.000000000000000000 ) ) ;
#100 = LINE ( 'NONE', #892, #772 ) ;
#101 = CARTESIAN_POINT ( 'NONE',  ( 0.8355563014763540686, -0.4750153411555924077, -0.1499999999999999944 ) ) ;
#102 = ORIENTED_EDGE ( 'NONE', *, *, #635, .F. ) ;
#103 = LINE ( 'NONE', #417, #411 ) ;
#104 = AXIS2_PLACEMENT_3D ( 'NONE', #574, #87, #897 ) ;
#105 = VECTOR ( 'NONE', #334, 39.37007874015748854 ) ;
#106 = ADVANCED_FACE ( 'NONE', ( #426 ), #257, .T. ) ;
#107 = DIRECTION ( 'NONE',  ( 0.9902680687415686966, 0.1391731009600759850, 0.000000000000000000 ) ) ;
#108 = ORIENTED_EDGE ( 'NONE', *, *, #456, .F. ) ;
#109 = LINE ( 'NONE', #890, #461 ) ;
#110 = DIRECTION ( 'NONE',  ( -0.2923717047228389099, -0.9563047559630042382, 0.000000000000000000 ) ) ;
#111 = EDGE_CURVE ( 'NONE', #421, #275, #109, .T. ) ;
#112 = DIRECTION ( 'NONE',  ( 3.464524462101847430E-15, -1.000000000000000000, -0.000000000000000000 ) ) ;
#113 = ORIENTED_EDGE ( 'NONE', *, *, #589, .F. ) ;
#114 = CARTESIAN_POINT ( 'NONE',  ( 0.8932171334934331242, -0.4869272417008851939, -0.1499999999999999944 ) ) ;
#115 = DIRECTION ( 'NONE',  ( -0.000000000000000000, -0.000000000000000000, -1.000000000000000000 ) ) ;
#116 = ADVANCED_FACE ( 'NONE', ( #588 ), #813, .F. ) ;
#117 = DIRECTION ( 'NONE',  ( -0.9902680687415686966, -0.1391731009600759850, 0.000000000000000000 ) ) ;
#118 = ORIENTED_EDGE ( 'NONE', *, *, #252, .F. ) ;
#119 = CARTESIAN_POINT ( 'NONE',  ( 0.6693459327595885355, -0.03674588827182567741, 0.1499999999999999944 ) ) ;
#120 = AXIS2_PLACEMENT_3D ( 'NONE', #937, #35, #355 ) ;
#121 = LINE ( 'NONE', #669, #427 ) ;
#122 = VECTOR ( 'NONE', #537, 39.37007874015748143 ) ;
#123 = EDGE_LOOP ( 'NONE', ( #947, #747, #149, #644 ) ) ;
#124 = AXIS2_PLACEMENT_3D ( 'NONE', #181, #498, #99 ) ;
#125 = VERTEX_POINT ( 'NONE', #736 ) ;
#126 = CARTESIAN_POINT ( 'NONE',  ( 1.127955501022981366, -0.4731236394694569580, 0.1499999999999999944 ) ) ;
#127 = DIRECTION ( 'NONE',  ( 0.000000000000000000, 0.000000000000000000, 1.000000000000000000 ) ) ;
#128 = ORIENTED_EDGE ( 'NONE', *, *, #705, .F. ) ;
#129 = CARTESIAN_POINT ( 'NONE',  ( 0.8523323057406747560, -0.4660953814626598857, 0.1499999999999999944 ) ) ;
#130 = ORIENTED_EDGE ( 'NONE', *, *, #412, .T. ) ;
#131 = LINE ( 'NONE', #929, #676 ) ;
#132 = ORIENTED_EDGE ( 'NONE', *, *, #808, .F. ) ;
#133 = PLANE ( 'NONE',  #474 ) ;
#134 = VERTEX_POINT ( 'NONE', #114 ) ;
#135 = ADVANCED_FACE ( 'NONE', ( #508 ), #593, .T. ) ;
#136 = AXIS2_PLACEMENT_3D ( 'NONE', #169, #983, #342 ) ;
#137 = DIRECTION ( 'NONE',  ( -0.000000000000000000, -0.000000000000000000, -1.000000000000000000 ) ) ;
#138 = ORIENTED_EDGE ( 'NONE', *, *, #37, .T. ) ;
#139 = VECTOR ( 'NONE', #165, 39.37007874015748854 ) ;
#140 = LINE ( 'NONE', #941, #510 ) ;
#141 = EDGE_CURVE ( 'NONE', #618, #134, #666, .T. ) ;
#142 = ORIENTED_EDGE ( 'NONE', *, *, #935, .T. ) ;
#143 = DIRECTION ( 'NONE',  ( -0.000000000000000000, -0.000000000000000000, -1.000000000000000000 ) ) ;
#144 = EDGE_LOOP ( 'NONE', ( #347, #447, #300, #898 ) ) ;
#145 = CARTESIAN_POINT ( 'NONE',  ( 0.6103459327595895934, -0.03674588827182567741, 0.1499999999999999944 ) ) ;
#146 = CARTESIAN_POINT ( 'NONE',  ( 0.8523323057406747560, -0.4660953814626598857, 0.1499999999999999944 ) ) ;
#147 = ADVANCED_FACE ( 'NONE', ( #916 ), #516, .T. ) ;
#148 = LINE ( 'NONE', #926, #378 ) ;
#149 = ORIENTED_EDGE ( 'NONE', *, *, #522, .T. ) ;
#150 = PLANE ( 'NONE',  #531 ) ;
#151 = ADVANCED_FACE ( 'NONE', ( #525 ), #397, .F. ) ;
#152 = DIRECTION ( 'NONE',  ( 0.2923717047228389654, 0.9563047559630042382, -0.000000000000000000 ) ) ;
#153 = CARTESIAN_POINT ( 'NONE',  ( 0.6691020641350364784, 0.09926859819228184278, 0.1499999999999999944 ) ) ;
#154 = ORIENTED_EDGE ( 'NONE', *, *, #111, .F. ) ;
#155 = DIRECTION ( 'NONE',  ( -1.000000000000000000, 0.000000000000000000, 0.000000000000000000 ) ) ;
#156 = VECTOR ( 'NONE', #457, 39.37007874015748143 ) ;
#157 = DIRECTION ( 'NONE',  ( 0.000000000000000000, 0.000000000000000000, 1.000000000000000000 ) ) ;
#158 = AXIS2_PLACEMENT_3D ( 'NONE', #396, #868, #768 ) ;
#159 = VECTOR ( 'NONE', #927, 39.37007874015748143 ) ;
#160 = DIRECTION ( 'NONE',  ( -0.000000000000000000, -0.000000000000000000, -1.000000000000000000 ) ) ;
#161 = DIRECTION ( 'NONE',  ( 0.8829475928589277656, 0.4694715627858889184, -0.000000000000000000 ) ) ;
#162 = ORIENTED_EDGE ( 'NONE', *, *, #595, .F. ) ;
#163 = CARTESIAN_POINT ( 'NONE',  ( 0.6310937425210696450, -0.02505102008291171592, 0.1499999999999999944 ) ) ;
#164 = DIRECTION ( 'NONE',  ( -0.000000000000000000, -0.000000000000000000, -1.000000000000000000 ) ) ;
#165 = DIRECTION ( 'NONE',  ( -0.4694715627858896401, 0.8829475928589275435, 0.000000000000000000 ) ) ;
#166 = CYLINDRICAL_SURFACE ( 'NONE', #136, 0.05899999999999894912 ) ;
#167 = ORIENTED_EDGE ( 'NONE', *, *, #779, .F. ) ;
#168 = LINE ( 'NONE', #656, #1015 ) ;
#169 = CARTESIAN_POINT ( 'NONE',  ( 0.6693459327595885355, -0.03674588827182567741, 0.1499999999999999944 ) ) ;
#170 = EDGE_CURVE ( 'NONE', #802, #262, #34, .T. ) ;
#171 = EDGE_LOOP ( 'NONE', ( #930, #471, #63, #988 ) ) ;
#172 = CARTESIAN_POINT ( 'NONE',  ( 0.4142484704289639552, 0.6160112072300769626, 0.1499999999999999944 ) ) ;
#173 = DIRECTION ( 'NONE',  ( -0.000000000000000000, 0.000000000000000000, -1.000000000000000000 ) ) ;
#174 = VECTOR ( 'NONE', #1018, 39.37007874015748854 ) ;
#175 = AXIS2_PLACEMENT_3D ( 'NONE', #491, #348, #38 ) ;
#176 = CARTESIAN_POINT ( 'NONE',  ( 0.6479246300844718753, 0.1360592345498663203, -0.1499999999999999944 ) ) ;
#177 = ADVANCED_FACE ( 'NONE', ( #940 ), #1039, .F. ) ;
#178 = CARTESIAN_POINT ( 'NONE',  ( 0.01900000000000000300, 6.582596477993511044E-17, 0.1499999999999999944 ) ) ;
#179 = VERTEX_POINT ( 'NONE', #798 ) ;
#180 = DIRECTION ( 'NONE',  ( 0.000000000000000000, 0.000000000000000000, 1.000000000000000000 ) ) ;
#181 = CARTESIAN_POINT ( 'NONE',  ( 0.6647006343487928959, 0.1449791942427989255, -0.1499999999999999944 ) ) ;
#182 = CARTESIAN_POINT ( 'NONE',  ( 0.8876502094550308142, -0.4473165189512249285, -0.1499999999999999944 ) ) ;
#183 = UNCERTAINTY_MEASURE_WITH_UNIT (LENGTH_MEASURE( 1.000000000000000082E-05 ), #49, 'distance_accuracy_value', 'NONE');
#184 = DIRECTION ( 'NONE',  ( -1.000000000000000000, 0.000000000000000000, 0.000000000000000000 ) ) ;
#185 = ORIENTED_EDGE ( 'NONE', *, *, #852, .T. ) ;
#186 = EDGE_CURVE ( 'NONE', #767, #735, #418, .T. ) ;
#187 = ORIENTED_EDGE ( 'NONE', *, *, #332, .T. ) ;
#188 = EDGE_CURVE ( 'NONE', #542, #363, #661, .T. ) ;
#189 = CARTESIAN_POINT ( 'NONE',  ( 0.6647006343487915636, 0.1449791942427981761, -0.1499999999999999944 ) ) ;
#190 = LINE ( 'NONE', #517, #282 ) ;
#191 = CARTESIAN_POINT ( 'NONE',  ( 0.8355563014763540686, -0.4750153411555924077, 0.1499999999999999944 ) ) ;
#192 = EDGE_LOOP ( 'NONE', ( #615, #870, #993, #213, #849, #407 ) ) ;
#193 = DIRECTION ( 'NONE',  ( -0.000000000000000000, -0.000000000000000000, -1.000000000000000000 ) ) ;
#194 = EDGE_CURVE ( 'NONE', #465, #323, #732, .T. ) ;
#195 = CIRCLE ( 'NONE', #308, 0.05899999999999894912 ) ;
#196 = AXIS2_PLACEMENT_3D ( 'NONE', #640, #799, #400 ) ;
#197 = AXIS2_PLACEMENT_3D ( 'NONE', #26, #173, #818 ) ;
#198 = LINE ( 'NONE', #514, #1030 ) ;
#199 = ORIENTED_EDGE ( 'NONE', *, *, #449, .T. ) ;
#200 = LINE ( 'NONE', #502, #43 ) ;
#201 = EDGE_CURVE ( 'NONE', #1029, #465, #793, .T. ) ;
#202 = DIRECTION ( 'NONE',  ( -1.000000000000000000, 0.000000000000000000, 0.000000000000000000 ) ) ;
#203 = DIRECTION ( 'NONE',  ( 0.4694715627858923601, -0.8829475928589261002, 0.000000000000000000 ) ) ;
#204 = ORIENTED_EDGE ( 'NONE', *, *, #819, .T. ) ;
#205 = DIRECTION ( 'NONE',  ( -1.000000000000000000, 0.000000000000000000, 0.000000000000000000 ) ) ;
#206 = FACE_OUTER_BOUND ( 'NONE', #866, .T. ) ;
#207 = EDGE_LOOP ( 'NONE', ( #693, #726, #228, #712 ) ) ;
#208 = CARTESIAN_POINT ( 'NONE',  ( 0.4142484704289639552, 0.6160112072300769626, -0.1499999999999999944 ) ) ;
#209 = FACE_OUTER_BOUND ( 'NONE', #873, .T. ) ;
#210 = AXIS2_PLACEMENT_3D ( 'NONE', #545, #72, #559 ) ;
#211 = CARTESIAN_POINT ( 'NONE',  ( 0.6691020641350364784, 0.09926859819228184278, 0.1499999999999999944 ) ) ;
#212 = AXIS2_PLACEMENT_3D ( 'NONE', #83, #980, #573 ) ;
#213 = ORIENTED_EDGE ( 'NONE', *, *, #186, .T. ) ;
#214 = EDGE_CURVE ( 'NONE', #704, #700, #654, .T. ) ;
#215 = DIRECTION ( 'NONE',  ( 0.9563047559630362127, -0.2923717047227344934, 0.000000000000000000 ) ) ;
#216 = EDGE_LOOP ( 'NONE', ( #812, #1023, #554, #485 ) ) ;
#217 = DIRECTION ( 'NONE',  ( -0.4694715627858923601, 0.8829475928589261002, -0.000000000000000000 ) ) ;
#218 = CARTESIAN_POINT ( 'NONE',  ( 0.6693459327595885355, -0.03674588827182567741, 0.1499999999999999944 ) ) ;
#219 = ADVANCED_FACE ( 'NONE', ( #320 ), #486, .T. ) ;
#220 = LINE ( 'NONE', #60, #77 ) ;
#221 = ORIENTED_EDGE ( 'NONE', *, *, #928, .F. ) ;
#222 = ADVANCED_FACE ( 'NONE', ( #648 ), #258, .F. ) ;
#223 = DIRECTION ( 'NONE',  ( 0.9563047559630042382, -0.2923717047228389099, -0.000000000000000000 ) ) ;
#224 = EDGE_LOOP ( 'NONE', ( #1008, #381, #903, #204 ) ) ;
#225 = EDGE_CURVE ( 'NONE', #735, #533, #710, .T. ) ;
#226 = AXIS2_PLACEMENT_3D ( 'NONE', #1007, #921, #203 ) ;
#227 = PLANE ( 'NONE',  #390 ) ;
#228 = ORIENTED_EDGE ( 'NONE', *, *, #367, .T. ) ;
#229 = AXIS2_PLACEMENT_3D ( 'NONE', #182, #969, #5 ) ;
#230 = CARTESIAN_POINT ( 'NONE',  ( 0.2200000000000006117, 0.5127274634171801182, 0.1499999999999999944 ) ) ;
#231 = EDGE_CURVE ( 'NONE', #262, #680, #267, .T. ) ;
#232 = CARTESIAN_POINT ( 'NONE',  ( 0.6129239521577696248, -0.01949595769317689214, 0.1499999999999999944 ) ) ;
#233 = DIRECTION ( 'NONE',  ( -0.9902680687415686966, -0.1391731009600759850, 0.000000000000000000 ) ) ;
#234 = ORIENTED_EDGE ( 'NONE', *, *, #44, .T. ) ;
#235 = FACE_OUTER_BOUND ( 'NONE', #297, .T. ) ;
#236 = CARTESIAN_POINT ( 'NONE',  ( 0.000000000000000000, 0.000000000000000000, 0.000000000000000000 ) ) ;
#237 = CARTESIAN_POINT ( 'NONE',  ( 1.127955501022981366, -0.4731236394694569580, 0.1499999999999999944 ) ) ;
#238 = LINE ( 'NONE', #872, #757 ) ;
#239 = ORIENTED_EDGE ( 'NONE', *, *, #665, .F. ) ;
#240 = DIRECTION ( 'NONE',  ( -1.000000000000000000, 0.000000000000000000, 0.000000000000000000 ) ) ;
#241 = DIRECTION ( 'NONE',  ( -1.000000000000000000, 0.000000000000000000, 0.000000000000000000 ) ) ;
#242 = ORIENTED_EDGE ( 'NONE', *, *, #688, .T. ) ;
#243 = AXIS2_PLACEMENT_3D ( 'NONE', #740, #92, #414 ) ;
#244 = COLOUR_RGB ( '',0.7921568627450980005, 0.8196078431372548767, 0.9333333333333333481 ) ;
#245 = AXIS2_PLACEMENT_3D ( 'NONE', #422, #744, #994 ) ;
#246 = CYLINDRICAL_SURFACE ( 'NONE', #312, 0.2010000000000011500 ) ;
#247 = FACE_OUTER_BOUND ( 'NONE', #144, .T. ) ;
#248 = VERTEX_POINT ( 'NONE', #145 ) ;
#249 = PLANE ( 'NONE',  #59 ) ;
#250 = DIRECTION ( 'NONE',  ( -1.000000000000000000, -3.464524462101847430E-15, 0.000000000000000000 ) ) ;
#251 = CYLINDRICAL_SURFACE ( 'NONE', #918, 0.04099999999999923150 ) ;
#252 = EDGE_CURVE ( 'NONE', #942, #482, #1038, .T. ) ;
#253 = DIRECTION ( 'NONE',  ( 0.000000000000000000, 0.000000000000000000, 1.000000000000000000 ) ) ;
#254 = DIRECTION ( 'NONE',  ( 1.000000000000000000, 3.464524462101847430E-15, -0.000000000000000000 ) ) ;
#255 = DIRECTION ( 'NONE',  ( -0.4694715627858896401, 0.8829475928589275435, -0.000000000000000000 ) ) ;
#256 = ORIENTED_EDGE ( 'NONE', *, *, #272, .T. ) ;
#257 = PLANE ( 'NONE',  #245 ) ;
#258 = PLANE ( 'NONE',  #124 ) ;
#259 = PRODUCT_DEFINITION ( 'UNKNOWN', '', #443, #505 ) ;
#260 = DIRECTION ( 'NONE',  ( 0.000000000000000000, 0.000000000000000000, 1.000000000000000000 ) ) ;
#261 = DIRECTION ( 'NONE',  ( 1.000000000000000000, 0.000000000000000000, 0.000000000000000000 ) ) ;
#262 = VERTEX_POINT ( 'NONE', #1016 ) ;
#263 = DIRECTION ( 'NONE',  ( -3.464524462101847430E-15, 1.000000000000000000, 0.000000000000000000 ) ) ;
#264 = AXIS2_PLACEMENT_3D ( 'NONE', #506, #270, #261 ) ;
#265 = DIRECTION ( 'NONE',  ( -0.8829475928589261002, -0.4694715627858923601, 0.000000000000000000 ) ) ;
#266 = VECTOR ( 'NONE', #551, 39.37007874015748143 ) ;
#267 = CIRCLE ( 'NONE', #394, 0.2200000000000011113 ) ;
#268 = DIRECTION ( 'NONE',  ( -0.000000000000000000, -0.000000000000000000, -1.000000000000000000 ) ) ;
#269 = ADVANCED_FACE ( 'NONE', ( #235 ), #150, .F. ) ;
#270 = DIRECTION ( 'NONE',  ( -0.000000000000000000, -0.000000000000000000, -1.000000000000000000 ) ) ;
#271 = ORIENTED_EDGE ( 'NONE', *, *, #967, .F. ) ;
#272 = EDGE_CURVE ( 'NONE', #262, #603, #409, .T. ) ;
#273 = LINE ( 'NONE', #978, #511 ) ;
#274 = CARTESIAN_POINT ( 'NONE',  ( 0.8932171334934331242, -0.4869272417008851939, 0.1499999999999999944 ) ) ;
#275 = VERTEX_POINT ( 'NONE', #1031 ) ;
#276 = CARTESIAN_POINT ( 'NONE',  ( 0.8523323057406737568, -0.4660953814626604963, 0.1499999999999999944 ) ) ;
#277 = DIRECTION ( 'NONE',  ( -0.000000000000000000, -0.000000000000000000, -1.000000000000000000 ) ) ;
#278 = FACE_OUTER_BOUND ( 'NONE', #612, .T. ) ;
#279 = ORIENTED_EDGE ( 'NONE', *, *, #928, .T. ) ;
#280 = LINE ( 'NONE', #129, #614 ) ;
#281 = CIRCLE ( 'NONE', #932, 0.03999999999999875183 ) ;
#282 = VECTOR ( 'NONE', #672, 39.37007874015748143 ) ;
#283 = DIRECTION ( 'NONE',  ( -0.000000000000000000, -0.000000000000000000, -1.000000000000000000 ) ) ;
#284 = VERTEX_POINT ( 'NONE', #163 ) ;
#285 =( NAMED_UNIT ( * ) SI_UNIT ( $, .STERADIAN. ) SOLID_ANGLE_UNIT ( ) );
#286 = CARTESIAN_POINT ( 'NONE',  ( 0.6340280290452362522, -0.05552475078326146729, 0.1499999999999999944 ) ) ;
#287 = ORIENTED_EDGE ( 'NONE', *, *, #910, .F. ) ;
#288 = DIRECTION ( 'NONE',  ( -1.000000000000000000, 0.000000000000000000, 0.000000000000000000 ) ) ;
#289 = CARTESIAN_POINT ( 'NONE',  ( 0.6479246300844733186, 0.1360592345498669586, 0.1499999999999999944 ) ) ;
#290 = ORIENTED_EDGE ( 'NONE', *, *, #341, .F. ) ;
#291 = ORIENTED_EDGE ( 'NONE', *, *, #1001, .T. ) ;
#292 = DIRECTION ( 'NONE',  ( -0.000000000000000000, -0.000000000000000000, -1.000000000000000000 ) ) ;
#293 = CIRCLE ( 'NONE', #210, 0.2010000000000011500 ) ;
#294 = FACE_OUTER_BOUND ( 'NONE', #959, .T. ) ;
#295 = CIRCLE ( 'NONE', #876, 0.04099999999999923150 ) ;
#296 = EDGE_LOOP ( 'NONE', ( #377, #827, #698, #939 ) ) ;
#297 = EDGE_LOOP ( 'NONE', ( #138, #565, #966, #1012 ) ) ;
#298 = ADVANCED_FACE ( 'NONE', ( #325 ), #249, .F. ) ;
#299 = CARTESIAN_POINT ( 'NONE',  ( 0.2200000000000006117, 0.5127274634171801182, -0.1499999999999999944 ) ) ;
#300 = ORIENTED_EDGE ( 'NONE', *, *, #448, .F. ) ;
#301 = ORIENTED_EDGE ( 'NONE', *, *, #201, .T. ) ;
#302 = DIRECTION ( 'NONE',  ( -0.4694715627858923601, 0.8829475928589261002, -0.000000000000000000 ) ) ;
#303 = ORIENTED_EDGE ( 'NONE', *, *, #20, .F. ) ;
#304 = CARTESIAN_POINT ( 'NONE',  ( 0.2200000000000006117, 0.5127274634171801182, -0.1499999999999999944 ) ) ;
#305 = VERTEX_POINT ( 'NONE', #189 ) ;
#306 = ADVANCED_FACE ( 'NONE', ( #667 ), #251, .F. ) ;
#307 = LINE ( 'NONE', #1027, #844 ) ;
#308 = AXIS2_PLACEMENT_3D ( 'NONE', #401, #629, #865 ) ;
#309 = AXIS2_PLACEMENT_3D ( 'NONE', #236, #384, #621 ) ;
#310 = PLANE ( 'NONE',  #641 ) ;
#311 = ORIENTED_EDGE ( 'NONE', *, *, #688, .F. ) ;
#312 = AXIS2_PLACEMENT_3D ( 'NONE', #728, #645, #22 ) ;
#313 = AXIS2_PLACEMENT_3D ( 'NONE', #218, #164, #718 ) ;
#314 = CARTESIAN_POINT ( 'NONE',  ( 0.8355563014763540686, -0.4750153411555924077, 0.1499999999999999944 ) ) ;
#315 = DIRECTION ( 'NONE',  ( 0.9902680687415686966, 0.1391731009600759850, 0.000000000000000000 ) ) ;
#316 = ORIENTED_EDGE ( 'NONE', *, *, #862, .F. ) ;
#317 = DIRECTION ( 'NONE',  ( -1.000000000000000000, -3.464524462101847430E-15, 0.000000000000000000 ) ) ;
#318 = CARTESIAN_POINT ( 'NONE',  ( 0.000000000000000000, 0.000000000000000000, 0.1499999999999999944 ) ) ;
#319 = ORIENTED_EDGE ( 'NONE', *, *, #635, .T. ) ;
#320 = FACE_OUTER_BOUND ( 'NONE', #452, .T. ) ;
#321 = FILL_AREA_STYLE_COLOUR ( '', #244 ) ;
#322 = CARTESIAN_POINT ( 'NONE',  ( 0.6340280290452362522, -0.05552475078326146729, -0.1499999999999999944 ) ) ;
#323 = VERTEX_POINT ( 'NONE', #408 ) ;
#324 = VECTOR ( 'NONE', #143, 39.37007874015748143 ) ;
#325 = FACE_OUTER_BOUND ( 'NONE', #467, .T. ) ;
#326 = CIRCLE ( 'NONE', #915, 0.05899999999999894912 ) ;
#327 = EDGE_CURVE ( 'NONE', #752, #1037, #280, .T. ) ;
#328 = AXIS2_PLACEMENT_3D ( 'NONE', #694, #157, #989 ) ;
#329 = DIRECTION ( 'NONE',  ( 0.000000000000000000, 0.000000000000000000, 1.000000000000000000 ) ) ;
#330 = CYLINDRICAL_SURFACE ( 'NONE', #859, 0.05899999999999894912 ) ;
#331 = EDGE_LOOP ( 'NONE', ( #501, #403, #463, #393 ) ) ;
#332 = EDGE_CURVE ( 'NONE', #942, #305, #1036, .T. ) ;
#333 = DIRECTION ( 'NONE',  ( 0.8829475928589280986, 0.4694715627858883078, 0.000000000000000000 ) ) ;
#334 = DIRECTION ( 'NONE',  ( -0.1391731009600759850, 0.9902680687415686966, -0.000000000000000000 ) ) ;
#335 = LINE ( 'NONE', #101, #690 ) ;
#336 = ORIENTED_EDGE ( 'NONE', *, *, #708, .F. ) ;
#337 = DIRECTION ( 'NONE',  ( 0.2923717047228389099, 0.9563047559630041272, -0.000000000000000000 ) ) ;
#338 = DIRECTION ( 'NONE',  ( -0.000000000000000000, -0.000000000000000000, -1.000000000000000000 ) ) ;
#339 = EDGE_CURVE ( 'NONE', #284, #742, #604, .T. ) ;
#340 = CARTESIAN_POINT ( 'NONE',  ( 0.01900000000000000300, 6.582596477993511044E-17, -0.1499999999999999944 ) ) ;
#341 = EDGE_CURVE ( 'NONE', #778, #752, #148, .T. ) ;
#342 = DIRECTION ( 'NONE',  ( -1.000000000000000000, 0.000000000000000000, 0.000000000000000000 ) ) ;
#343 = EDGE_LOOP ( 'NONE', ( #776, #857, #199, #1010 ) ) ;
#344 = CARTESIAN_POINT ( 'NONE',  ( 0.01900000000000000300, 6.582596477993511044E-17, 0.1499999999999999944 ) ) ;
#345 = CIRCLE ( 'NONE', #212, 0.03999999999999889061 ) ;
#346 = CARTESIAN_POINT ( 'NONE',  ( 0.6691020641350364784, 0.09926859819228184278, 0.1499999999999999944 ) ) ;
#347 = ORIENTED_EDGE ( 'NONE', *, *, #893, .T. ) ;
#348 = DIRECTION ( 'NONE',  ( 0.000000000000000000, 0.000000000000000000, 1.000000000000000000 ) ) ;
#349 = DIRECTION ( 'NONE',  ( -0.9902680687415688077, -0.1391731009600760127, 0.000000000000000000 ) ) ;
#350 = LINE ( 'NONE', #611, #1013 ) ;
#351 = ORIENTED_EDGE ( 'NONE', *, *, #358, .F. ) ;
#352 = DIRECTION ( 'NONE',  ( 1.000000000000000000, 3.464524462101847430E-15, -0.000000000000000000 ) ) ;
#353 = CARTESIAN_POINT ( 'NONE',  ( 0.4142484704289639552, 0.6160112072300769626, 0.1499999999999999944 ) ) ;
#354 = DIRECTION ( 'NONE',  ( -0.9563047559630042382, 0.2923717047228389099, 0.000000000000000000 ) ) ;
#355 = DIRECTION ( 'NONE',  ( -1.000000000000000000, 0.000000000000000000, 0.000000000000000000 ) ) ;
#356 = EDGE_LOOP ( 'NONE', ( #766, #303, #8, #636 ) ) ;
#357 = CARTESIAN_POINT ( 'NONE',  ( 0.01900000000000000300, 6.582596477993511044E-17, 0.1499999999999999944 ) ) ;
#358 = EDGE_CURVE ( 'NONE', #603, #88, #56, .T. ) ;
#359 = CIRCLE ( 'NONE', #243, 0.05899999999999874095 ) ;
#360 = STYLED_ITEM ( 'NONE', ( #580 ), #970 ) ;
#361 = DIRECTION ( 'NONE',  ( 0.9563047559630042382, -0.2923717047228389099, -0.000000000000000000 ) ) ;
#362 = VERTEX_POINT ( 'NONE', #1044 ) ;
#363 = VERTEX_POINT ( 'NONE', #318 ) ;
#364 = CARTESIAN_POINT ( 'NONE',  ( 0.6509322737717393448, 0.1048236605820157957, 0.1499999999999999944 ) ) ;
#365 = PLANE ( 'NONE',  #226 ) ;
#366 = VERTEX_POINT ( 'NONE', #1024 ) ;
#367 = EDGE_CURVE ( 'NONE', #482, #603, #462, .T. ) ;
#368 =( NAMED_UNIT ( * ) PLANE_ANGLE_UNIT ( ) SI_UNIT ( $, .RADIAN. ) );
#369 = DIRECTION ( 'NONE',  ( 0.000000000000000000, 0.000000000000000000, 1.000000000000000000 ) ) ;
#370 = ORIENTED_EDGE ( 'NONE', *, *, #589, .T. ) ;
#371 = EDGE_CURVE ( 'NONE', #704, #942, #238, .T. ) ;
#372 = ORIENTED_EDGE ( 'NONE', *, *, #705, .T. ) ;
#373 = CARTESIAN_POINT ( 'NONE',  ( 0.6479246300844733186, 0.1360592345498669864, -0.1499999999999999944 ) ) ;
#374 = AXIS2_PLACEMENT_3D ( 'NONE', #902, #651, #184 ) ;
#375 = LINE ( 'NONE', #692, #743 ) ;
#376 = AXIS2_PLACEMENT_3D ( 'NONE', #839, #991, #923 ) ;
#377 = ORIENTED_EDGE ( 'NONE', *, *, #441, .T. ) ;
#378 = VECTOR ( 'NONE', #161, 39.37007874015748854 ) ;
#379 = APPLICATION_PROTOCOL_DEFINITION ( 'draft international standard', 'automotive_design', 1998, #931 ) ;
#380 = CARTESIAN_POINT ( 'NONE',  ( 0.6647006343487928959, 0.1449791942427989255, -0.1499999999999999944 ) ) ;
#381 = ORIENTED_EDGE ( 'NONE', *, *, #555, .F. ) ;
#382 = ADVANCED_FACE ( 'NONE', ( #470 ), #958, .T. ) ;
#383 = CARTESIAN_POINT ( 'NONE',  ( 1.127955501022981366, -0.4731236394694569580, 0.1499999999999999944 ) ) ;
#384 = DIRECTION ( 'NONE',  ( 0.000000000000000000, 0.000000000000000000, 1.000000000000000000 ) ) ;
#385 = DIRECTION ( 'NONE',  ( -0.000000000000000000, -0.000000000000000000, -1.000000000000000000 ) ) ;
#386 = EDGE_LOOP ( 'NONE', ( #128, #440, #319, #41 ) ) ;
#387 = CARTESIAN_POINT ( 'NONE',  ( 0.000000000000000000, 0.000000000000000000, 0.1499999999999999944 ) ) ;
#388 = ORIENTED_EDGE ( 'NONE', *, *, #974, .T. ) ;
#389 = CARTESIAN_POINT ( 'NONE',  ( 0.6172520247809166749, -0.06444471047619339255, 0.1499999999999999944 ) ) ;
#390 = AXIS2_PLACEMENT_3D ( 'NONE', #387, #791, #81 ) ;
#391 = VECTOR ( 'NONE', #302, 39.37007874015748143 ) ;
#392 = CARTESIAN_POINT ( 'NONE',  ( 0.6117237787772564772, 0.1168109004756452268, 0.1499999999999999944 ) ) ;
#393 = ORIENTED_EDGE ( 'NONE', *, *, #37, .F. ) ;
#394 = AXIS2_PLACEMENT_3D ( 'NONE', #230, #953, #867 ) ;
#395 = EDGE_CURVE ( 'NONE', #366, #85, #786, .T. ) ;
#396 = CARTESIAN_POINT ( 'NONE',  ( 0.8355563014763540686, -0.4750153411555924077, 0.1499999999999999944 ) ) ;
#397 = PLANE ( 'NONE',  #917 ) ;
#398 = CARTESIAN_POINT ( 'NONE',  ( 0.6693459327595885355, -0.03674588827182567741, 0.1499999999999999944 ) ) ;
#399 = EDGE_LOOP ( 'NONE', ( #431, #925, #837, #1021 ) ) ;
#400 = DIRECTION ( 'NONE',  ( 1.000000000000000000, 0.000000000000000000, -0.000000000000000000 ) ) ;
#401 = CARTESIAN_POINT ( 'NONE',  ( 0.6693459327595885355, -0.03674588827182567741, 0.1499999999999999944 ) ) ;
#402 = ADVANCED_FACE ( 'NONE', ( #796 ), #227, .T. ) ;
#403 = ORIENTED_EDGE ( 'NONE', *, *, #1026, .T. ) ;
#404 = DIRECTION ( 'NONE',  ( -0.000000000000000000, -0.000000000000000000, -1.000000000000000000 ) ) ;
#405 = ADVANCED_FACE ( 'NONE', ( #84 ), #955, .F. ) ;
#406 = DIRECTION ( 'NONE',  ( -0.4694715627858896401, 0.8829475928589275435, -0.000000000000000000 ) ) ;
#407 = ORIENTED_EDGE ( 'NONE', *, *, #885, .T. ) ;
#408 = CARTESIAN_POINT ( 'NONE',  ( 0.8958614224116745461, -0.5057423350069749635, -0.1499999999999999944 ) ) ;
#409 = LINE ( 'NONE', #172, #159 ) ;
#410 = VECTOR ( 'NONE', #548, 39.37007874015748854 ) ;
#411 = VECTOR ( 'NONE', #990, 39.37007874015748854 ) ;
#412 = EDGE_CURVE ( 'NONE', #797, #607, #715, .T. ) ;
#413 = SURFACE_STYLE_FILL_AREA ( #91 ) ;
#414 = DIRECTION ( 'NONE',  ( -1.000000000000000000, 0.000000000000000000, 0.000000000000000000 ) ) ;
#415 = ORIENTED_EDGE ( 'NONE', *, *, #194, .T. ) ;
#416 = EDGE_CURVE ( 'NONE', #802, #769, #293, .T. ) ;
#417 = CARTESIAN_POINT ( 'NONE',  ( 0.6310937425210696450, -0.02505102008291171592, 0.1499999999999999944 ) ) ;
#418 = LINE ( 'NONE', #579, #90 ) ;
#419 = LINE ( 'NONE', #745, #759 ) ;
#420 = CARTESIAN_POINT ( 'NONE',  ( 0.000000000000000000, 0.000000000000000000, 0.1499999999999999944 ) ) ;
#421 = VERTEX_POINT ( 'NONE', #878 ) ;
#422 = CARTESIAN_POINT ( 'NONE',  ( 0.8876502094550308142, -0.4473165189512249285, 0.1499999999999999944 ) ) ;
#423 = DIRECTION ( 'NONE',  ( 0.000000000000000000, 0.000000000000000000, 1.000000000000000000 ) ) ;
#424 = CARTESIAN_POINT ( 'NONE',  ( 0.6310937425210696450, -0.02505102008291171592, 0.1499999999999999944 ) ) ;
#425 = EDGE_LOOP ( 'NONE', ( #943, #453, #55, #659 ) ) ;
#426 = FACE_OUTER_BOUND ( 'NONE', #670, .T. ) ;
#427 = VECTOR ( 'NONE', #117, 39.37007874015748854 ) ;
#428 = CIRCLE ( 'NONE', #642, 0.05999999999999929001 ) ;
#429 = PLANE ( 'NONE',  #376 ) ;
#430 = LINE ( 'NONE', #191, #40 ) ;
#431 = ORIENTED_EDGE ( 'NONE', *, *, #186, .F. ) ;
#432 = CARTESIAN_POINT ( 'NONE',  ( 0.6117237787772564772, 0.1168109004756452268, 0.1499999999999999944 ) ) ;
#433 = FACE_OUTER_BOUND ( 'NONE', #730, .T. ) ;
#434 = DIRECTION ( 'NONE',  ( -0.9902680687415686966, -0.1391731009600759850, 0.000000000000000000 ) ) ;
#435 = EDGE_LOOP ( 'NONE', ( #57, #647, #234, #221 ) ) ;
#436 = ADVANCED_FACE ( 'NONE', ( #951 ), #310, .T. ) ;
#437 = CARTESIAN_POINT ( 'NONE',  ( 0.8355563014763551788, -0.4750153411555917971, -0.1499999999999999944 ) ) ;
#438 =( LENGTH_UNIT ( ) NAMED_UNIT ( * ) SI_UNIT ( $, .METRE. ) );
#439 = LINE ( 'NONE', #211, #807 ) ;
#440 = ORIENTED_EDGE ( 'NONE', *, *, #225, .F. ) ;
#441 = EDGE_CURVE ( 'NONE', #767, #248, #195, .T. ) ;
#442 = CIRCLE ( 'NONE', #264, 0.03999999999999889061 ) ;
#443 = PRODUCT_DEFINITION_FORMATION_WITH_SPECIFIED_SOURCE ( 'ANY', '', #961, .NOT_KNOWN. ) ;
#444 = VECTOR ( 'NONE', #333, 39.37007874015748854 ) ;
#445 = PLANE ( 'NONE',  #557 ) ;
#446 = ORIENTED_EDGE ( 'NONE', *, *, #817, .F. ) ;
#447 = ORIENTED_EDGE ( 'NONE', *, *, #738, .F. ) ;
#448 = EDGE_CURVE ( 'NONE', #742, #700, #913, .T. ) ;
#449 = EDGE_CURVE ( 'NONE', #323, #134, #466, .T. ) ;
#450 = FACE_OUTER_BOUND ( 'NONE', #224, .T. ) ;
#451 = DIRECTION ( 'NONE',  ( 1.000000000000000000, 0.000000000000000000, -0.000000000000000000 ) ) ;
#452 = EDGE_LOOP ( 'NONE', ( #118, #630, #623, #679 ) ) ;
#453 = ORIENTED_EDGE ( 'NONE', *, *, #838, .F. ) ;
#454 = DIRECTION ( 'NONE',  ( -1.000000000000000000, 0.000000000000000000, 0.000000000000000000 ) ) ;
#455 = ORIENTED_EDGE ( 'NONE', *, *, #527, .T. ) ;
#456 = EDGE_CURVE ( 'NONE', #421, #618, #1028, .T. ) ;
#457 = DIRECTION ( 'NONE',  ( -0.000000000000000000, -0.000000000000000000, -1.000000000000000000 ) ) ;
#458 =( GEOMETRIC_REPRESENTATION_CONTEXT ( 3 ) GLOBAL_UNCERTAINTY_ASSIGNED_CONTEXT ( ( #894 ) ) GLOBAL_UNIT_ASSIGNED_CONTEXT ( ( #668, #685, #285 ) ) REPRESENTATION_CONTEXT ( 'NONE', 'WORKASPACE' ) );
#459 = ORIENTED_EDGE ( 'NONE', *, *, #522, .F. ) ;
#460 = CIRCLE ( 'NONE', #982, 0.04099999999999923150 ) ;
#461 = VECTOR ( 'NONE', #828, 39.37007874015748143 ) ;
#462 = LINE ( 'NONE', #208, #410 ) ;
#463 = ORIENTED_EDGE ( 'NONE', *, *, #649, .T. ) ;
#464 = CARTESIAN_POINT ( 'NONE',  ( 0.6293459327595897213, -0.03674588827182567741, -0.1499999999999999944 ) ) ;
#465 = VERTEX_POINT ( 'NONE', #7 ) ;
#466 = LINE ( 'NONE', #783, #875 ) ;
#467 = EDGE_LOOP ( 'NONE', ( #67, #102, #879, #674 ) ) ;
#468 = DIRECTION ( 'NONE',  ( -0.9563047559630042382, 0.2923717047228389099, 0.000000000000000000 ) ) ;
#469 = DIRECTION ( 'NONE',  ( 3.464524462101847430E-15, -1.000000000000000000, -0.000000000000000000 ) ) ;
#470 = FACE_OUTER_BOUND ( 'NONE', #619, .T. ) ;
#471 = ORIENTED_EDGE ( 'NONE', *, *, #416, .F. ) ;
#472 = CARTESIAN_POINT ( 'NONE',  ( 0.01899999999999822664, 0.5127274634171802292, 0.1499999999999999944 ) ) ;
#473 = VECTOR ( 'NONE', #605, 39.37007874015748143 ) ;
#474 = AXIS2_PLACEMENT_3D ( 'NONE', #780, #950, #240 ) ;
#475 = CARTESIAN_POINT ( 'NONE',  ( 0.6509322737717403440, 0.1048236605820133532, 0.1499999999999999944 ) ) ;
#476 = ORIENTED_EDGE ( 'NONE', *, *, #479, .T. ) ;
#477 = AXIS2_PLACEMENT_3D ( 'NONE', #737, #65, #631 ) ;
#478 = CARTESIAN_POINT ( 'NONE',  ( 0.6117237787772564772, 0.1168109004756452268, 0.1499999999999999944 ) ) ;
#479 = EDGE_CURVE ( 'NONE', #778, #767, #430, .T. ) ;
#480 = PLANE ( 'NONE',  #196 ) ;
#481 = DIRECTION ( 'NONE',  ( 0.1391731009600760127, -0.9902680687415688077, 0.000000000000000000 ) ) ;
#482 = VERTEX_POINT ( 'NONE', #729 ) ;
#483 = CARTESIAN_POINT ( 'NONE',  ( 0.6117237787772564772, 0.1168109004756452268, -0.1499999999999999944 ) ) ;
#484 = CARTESIAN_POINT ( 'NONE',  ( 0.6509322737717393448, 0.1048236605820157957, 0.1499999999999999944 ) ) ;
#485 = ORIENTED_EDGE ( 'NONE', *, *, #919, .T. ) ;
#486 = PLANE ( 'NONE',  #1034 ) ;
#487 = DIRECTION ( 'NONE',  ( -0.9902680687415686966, -0.1391731009600759850, 0.000000000000000000 ) ) ;
#488 = EDGE_CURVE ( 'NONE', #515, #787, #442, .T. ) ;
#489 = LINE ( 'NONE', #424, #89 ) ;
#490 = ORIENTED_EDGE ( 'NONE', *, *, #518, .F. ) ;
#491 = CARTESIAN_POINT ( 'NONE',  ( 0.6691020641350364784, 0.09926859819228184278, 0.1499999999999999944 ) ) ;
#492 = CIRCLE ( 'NONE', #42, 0.05899999999999894912 ) ;
#493 = CARTESIAN_POINT ( 'NONE',  ( 0.6693459327595885355, -0.03674588827182567741, 0.1499999999999999944 ) ) ;
#494 = CYLINDRICAL_SURFACE ( 'NONE', #104, 0.05999999999999922062 ) ;
#495 = EDGE_LOOP ( 'NONE', ( #52, #167, #301, #415 ) ) ;
#496 = CARTESIAN_POINT ( 'NONE',  ( -5.122214988120493288E-16, 0.5127274634171801182, -0.1499999999999999944 ) ) ;
#497 = DIMENSIONAL_EXPONENTS ( 1.000000000000000000, 0.000000000000000000, 0.000000000000000000, 0.000000000000000000, 0.000000000000000000, 0.000000000000000000, 0.000000000000000000 ) ;
#498 = DIRECTION ( 'NONE',  ( 0.000000000000000000, 0.000000000000000000, 1.000000000000000000 ) ) ;
#499 = DIRECTION ( 'NONE',  ( 1.000000000000000000, 0.000000000000000000, 0.000000000000000000 ) ) ;
#500 = DIRECTION ( 'NONE',  ( -0.000000000000000000, -0.000000000000000000, -1.000000000000000000 ) ) ;
#501 = ORIENTED_EDGE ( 'NONE', *, *, #851, .F. ) ;
#502 = CARTESIAN_POINT ( 'NONE',  ( 0.6103459327595895934, -0.03674588827182567741, 0.1499999999999999944 ) ) ;
#503 = DIMENSIONAL_EXPONENTS ( 1.000000000000000000, 0.000000000000000000, 0.000000000000000000, 0.000000000000000000, 0.000000000000000000, 0.000000000000000000, 0.000000000000000000 ) ;
#504 = LENGTH_MEASURE_WITH_UNIT ( LENGTH_MEASURE( 0.02539999999999999897 ), #662 );
#505 = PRODUCT_DEFINITION_CONTEXT ( 'detailed design', #28, 'design' ) ;
#506 = CARTESIAN_POINT ( 'NONE',  ( 0.6693459327595885355, -0.03674588827182567741, -0.1499999999999999944 ) ) ;
#507 = ORIENTED_EDGE ( 'NONE', *, *, #808, .T. ) ;
#508 = FACE_OUTER_BOUND ( 'NONE', #999, .T. ) ;
#509 = VECTOR ( 'NONE', #469, 39.37007874015748143 ) ;
#510 = VECTOR ( 'NONE', #317, 39.37007874015748143 ) ;
#511 = VECTOR ( 'NONE', #94, 39.37007874015748143 ) ;
#512 = CARTESIAN_POINT ( 'NONE',  ( 0.2200000000000006117, 0.5127274634171801182, 0.1499999999999999944 ) ) ;
#513 = ADVANCED_FACE ( 'NONE', ( #582 ), #882, .F. ) ;
#514 = CARTESIAN_POINT ( 'NONE',  ( 1.127955501022981366, -0.4731236394694569580, -0.1499999999999999944 ) ) ;
#515 = VERTEX_POINT ( 'NONE', #322 ) ;
#516 = PLANE ( 'NONE',  #328 ) ;
#517 = CARTESIAN_POINT ( 'NONE',  ( 0.6509322737717393448, 0.1048236605820157957, -0.1499999999999999944 ) ) ;
#518 = EDGE_CURVE ( 'NONE', #125, #607, #539, .T. ) ;
#519 = LINE ( 'NONE', #836, #473 ) ;
#520 = ORIENTED_EDGE ( 'NONE', *, *, #600, .F. ) ;
#521 = CARTESIAN_POINT ( 'NONE',  ( 0.8523323057406747560, -0.4660953814626598857, -0.1499999999999999944 ) ) ;
#522 = EDGE_CURVE ( 'NONE', #797, #366, #16, .T. ) ;
#523 = PLANE ( 'NONE',  #788 ) ;
#524 = ORIENTED_EDGE ( 'NONE', *, *, #76, .T. ) ;
#525 = FACE_OUTER_BOUND ( 'NONE', #216, .T. ) ;
#526 = EDGE_LOOP ( 'NONE', ( #25, #372, #142, #162 ) ) ;
#527 = EDGE_CURVE ( 'NONE', #680, #363, #657, .T. ) ;
#528 = CARTESIAN_POINT ( 'NONE',  ( 0.2200000000000006117, 0.5127274634171801182, -0.1499999999999999944 ) ) ;
#529 = VECTOR ( 'NONE', #564, 39.37007874015748143 ) ;
#530 = CIRCLE ( 'NONE', #23, 0.05899999999999874095 ) ;
#531 = AXIS2_PLACEMENT_3D ( 'NONE', #944, #468, #75 ) ;
#532 = PLANE ( 'NONE',  #575 ) ;
#533 = VERTEX_POINT ( 'NONE', #643 ) ;
#534 = CARTESIAN_POINT ( 'NONE',  ( -5.122214988120493288E-16, 0.5127274634171801182, 0.1499999999999999944 ) ) ;
#535 = ORIENTED_EDGE ( 'NONE', *, *, #750, .F. ) ;
#536 = EDGE_LOOP ( 'NONE', ( #271, #908, #242, #781 ) ) ;
#537 = DIRECTION ( 'NONE',  ( -0.4694715627858923601, 0.8829475928589261002, 0.000000000000000000 ) ) ;
#538 = VERTEX_POINT ( 'NONE', #907 ) ;
#539 = CIRCLE ( 'NONE', #374, 0.05899999999999894912 ) ;
#540 = CARTESIAN_POINT ( 'NONE',  ( 0.6691020641350364784, 0.09926859819228184278, 0.1499999999999999944 ) ) ;
#541 = VECTOR ( 'NONE', #585, 39.37007874015748143 ) ;
#542 = VERTEX_POINT ( 'NONE', #965 ) ;
#543 = VECTOR ( 'NONE', #713, 39.37007874015748143 ) ;
#544 = ADVANCED_FACE ( 'NONE', ( #247 ), #494, .T. ) ;
#545 = CARTESIAN_POINT ( 'NONE',  ( 0.2200000000000006117, 0.5127274634171801182, 0.1499999999999999944 ) ) ;
#546 = ORIENTED_EDGE ( 'NONE', *, *, #358, .T. ) ;
#547 = DIRECTION ( 'NONE',  ( -0.000000000000000000, -0.000000000000000000, -1.000000000000000000 ) ) ;
#548 = DIRECTION ( 'NONE',  ( 0.8829475928589246569, 0.4694715627858946916, 0.000000000000000000 ) ) ;
#549 = ORIENTED_EDGE ( 'NONE', *, *, #327, .F. ) ;
#550 =( NAMED_UNIT ( * ) SI_UNIT ( $, .STERADIAN. ) SOLID_ANGLE_UNIT ( ) );
#551 = DIRECTION ( 'NONE',  ( 0.000000000000000000, -0.000000000000000000, -1.000000000000000000 ) ) ;
#552 = ADVANCED_FACE ( 'NONE', ( #887 ), #166, .T. ) ;
#553 = DIRECTION ( 'NONE',  ( -0.000000000000000000, -0.000000000000000000, -1.000000000000000000 ) ) ;
#554 = ORIENTED_EDGE ( 'NONE', *, *, #527, .F. ) ;
#555 = EDGE_CURVE ( 'NONE', #542, #984, #800, .T. ) ;
#556 = DIRECTION ( 'NONE',  ( -0.000000000000000000, -0.000000000000000000, -1.000000000000000000 ) ) ;
#557 = AXIS2_PLACEMENT_3D ( 'NONE', #761, #686, #912 ) ;
#558 = AXIS2_PLACEMENT_3D ( 'NONE', #1, #268, #499 ) ;
#559 = DIRECTION ( 'NONE',  ( -1.000000000000000000, 0.000000000000000000, 0.000000000000000000 ) ) ;
#560 = ORIENTED_EDGE ( 'NONE', *, *, #775, .T. ) ;
#561 = VECTOR ( 'NONE', #985, 39.37007874015748854 ) ;
#562 = FACE_OUTER_BOUND ( 'NONE', #435, .T. ) ;
#563 = CARTESIAN_POINT ( 'NONE',  ( 0.000000000000000000, 0.000000000000000000, 0.1499999999999999944 ) ) ;
#564 = DIRECTION ( 'NONE',  ( 0.2923717047228389099, 0.9563047559630042382, -0.000000000000000000 ) ) ;
#565 = ORIENTED_EDGE ( 'NONE', *, *, #613, .F. ) ;
#566 = CARTESIAN_POINT ( 'NONE',  ( 0.8523323057406737568, -0.4660953814626604963, 0.1499999999999999944 ) ) ;
#567 = DIRECTION ( 'NONE',  ( -0.9902680687415686966, -0.1391731009600759850, -0.000000000000000000 ) ) ;
#568 = ADVANCED_FACE ( 'NONE', ( #725 ), #330, .T. ) ;
#569 = DIRECTION ( 'NONE',  ( 0.8829475928588992328, 0.4694715627859427087, -0.000000000000000000 ) ) ;
#570 = CARTESIAN_POINT ( 'NONE',  ( 0.8876502094550308142, -0.4473165189512249285, 0.1499999999999999944 ) ) ;
#571 = ORIENTED_EDGE ( 'NONE', *, *, #750, .T. ) ;
#572 = DIRECTION ( 'NONE',  ( -1.000000000000000000, 1.665760971746533209E-15, 0.000000000000000000 ) ) ;
#573 = DIRECTION ( 'NONE',  ( 1.000000000000000000, 0.000000000000000000, 0.000000000000000000 ) ) ;
#574 = CARTESIAN_POINT ( 'NONE',  ( 0.6117237787772564772, 0.1168109004756452268, 0.1499999999999999944 ) ) ;
#575 = AXIS2_PLACEMENT_3D ( 'NONE', #840, #755, #434 ) ;
#576 = ORIENTED_EDGE ( 'NONE', *, *, #488, .F. ) ;
#577 = MECHANICAL_DESIGN_GEOMETRIC_PRESENTATION_REPRESENTATION (  '', ( #360 ), #458 ) ;
#578 = LINE ( 'NONE', #671, #561 ) ;
#579 = CARTESIAN_POINT ( 'NONE',  ( 0.6340280290452362522, -0.05552475078326146729, 0.1499999999999999944 ) ) ;
#580 = PRESENTATION_STYLE_ASSIGNMENT (( #10 ) ) ;
#581 = EDGE_CURVE ( 'NONE', #618, #752, #281, .T. ) ;
#582 = FACE_OUTER_BOUND ( 'NONE', #858, .T. ) ;
#583 = EDGE_LOOP ( 'NONE', ( #914, #952, #689, #455 ) ) ;
#584 = CARTESIAN_POINT ( 'NONE',  ( 0.000000000000000000, 0.000000000000000000, -0.1499999999999999944 ) ) ;
#585 = DIRECTION ( 'NONE',  ( 3.464524462101847430E-15, -1.000000000000000000, -0.000000000000000000 ) ) ;
#586 = FACE_OUTER_BOUND ( 'NONE', #343, .T. ) ;
#587 = VERTEX_POINT ( 'NONE', #821 ) ;
#588 = FACE_OUTER_BOUND ( 'NONE', #356, .T. ) ;
#589 = EDGE_CURVE ( 'NONE', #61, #538, #335, .T. ) ;
#590 = DIRECTION ( 'NONE',  ( -0.4694715627858923601, 0.8829475928589261002, 0.000000000000000000 ) ) ;
#591 = DIRECTION ( 'NONE',  ( -0.000000000000000000, -0.000000000000000000, -1.000000000000000000 ) ) ;
#592 = ORIENTED_EDGE ( 'NONE', *, *, #625, .T. ) ;
#593 = PLANE ( 'NONE',  #175 ) ;
#594 = AXIS2_PLACEMENT_3D ( 'NONE', #528, #720, #948 ) ;
#595 = EDGE_CURVE ( 'NONE', #284, #362, #489, .T. ) ;
#596 = VECTOR ( 'NONE', #590, 39.37007874015748143 ) ;
#597 = VECTOR ( 'NONE', #869, 39.37007874015748854 ) ;
#598 = FACE_OUTER_BOUND ( 'NONE', #51, .T. ) ;
#599 = ORIENTED_EDGE ( 'NONE', *, *, #779, .T. ) ;
#600 = EDGE_CURVE ( 'NONE', #465, #778, #359, .T. ) ;
#601 = DIRECTION ( 'NONE',  ( -1.000000000000000000, 0.000000000000000000, 0.000000000000000000 ) ) ;
#602 = LINE ( 'NONE', #286, #658 ) ;
#603 = VERTEX_POINT ( 'NONE', #976 ) ;
#604 = LINE ( 'NONE', #153, #597 ) ;
#605 = DIRECTION ( 'NONE',  ( -0.000000000000000000, -0.000000000000000000, -1.000000000000000000 ) ) ;
#606 = EDGE_LOOP ( 'NONE', ( #113, #132, #476, #388 ) ) ;
#607 = VERTEX_POINT ( 'NONE', #24 ) ;
#608 = AXIS2_PLACEMENT_3D ( 'NONE', #1011, #954, #152 ) ;
#609 = VECTOR ( 'NONE', #223, 39.37007874015748143 ) ;
#610 = VECTOR ( 'NONE', #338, 39.37007874015748143 ) ;
#611 = CARTESIAN_POINT ( 'NONE',  ( 0.3974724661646454882, 0.6070912475371454953, 0.1499999999999999944 ) ) ;
#612 = EDGE_LOOP ( 'NONE', ( #716, #370, #652, #316 ) ) ;
#613 = EDGE_CURVE ( 'NONE', #742, #587, #987, .T. ) ;
#614 = VECTOR ( 'NONE', #711, 39.37007874015748143 ) ;
#615 = ORIENTED_EDGE ( 'NONE', *, *, #76, .F. ) ;
#616 = PRODUCT_CONTEXT ( 'NONE', #931, 'mechanical' ) ;
#617 = CARTESIAN_POINT ( 'NONE',  ( 0.000000000000000000, 0.000000000000000000, -0.1499999999999999944 ) ) ;
#618 = VERTEX_POINT ( 'NONE', #274 ) ;
#619 = EDGE_LOOP ( 'NONE', ( #97, #571, #560, #351 ) ) ;
#620 = ADVANCED_FACE ( 'NONE', ( #586 ), #532, .F. ) ;
#621 = DIRECTION ( 'NONE',  ( 1.000000000000000000, 0.000000000000000000, 0.000000000000000000 ) ) ;
#622 = LINE ( 'NONE', #946, #609 ) ;
#623 = ORIENTED_EDGE ( 'NONE', *, *, #838, .T. ) ;
#624 = DIRECTION ( 'NONE',  ( 0.000000000000000000, 0.000000000000000000, 1.000000000000000000 ) ) ;
#625 = EDGE_CURVE ( 'NONE', #275, #134, #121, .T. ) ;
#626 = CIRCLE ( 'NONE', #741, 0.2010000000000011500 ) ;
#627 = VECTOR ( 'NONE', #215, 39.37007874015748143 ) ;
#628 = PLANE ( 'NONE',  #158 ) ;
#629 = DIRECTION ( 'NONE',  ( -0.000000000000000000, -0.000000000000000000, -1.000000000000000000 ) ) ;
#630 = ORIENTED_EDGE ( 'NONE', *, *, #371, .F. ) ;
#631 = DIRECTION ( 'NONE',  ( 1.000000000000000000, 0.000000000000000000, 0.000000000000000000 ) ) ;
#632 = ADVANCED_FACE ( 'NONE', ( #294 ), #39, .T. ) ;
#633 = LINE ( 'NONE', #774, #174 ) ;
#634 = CARTESIAN_POINT ( 'NONE',  ( 1.125311212104739944, -0.4543085461633671329, 0.1499999999999999944 ) ) ;
#635 = EDGE_CURVE ( 'NONE', #735, #515, #602, .T. ) ;
#636 = ORIENTED_EDGE ( 'NONE', *, *, #448, .T. ) ;
#637 = FACE_OUTER_BOUND ( 'NONE', #32, .T. ) ;
#638 = CARTESIAN_POINT ( 'NONE',  ( 0.6129239521577696248, -0.01949595769317689214, 0.1499999999999999944 ) ) ;
#639 = ORIENTED_EDGE ( 'NONE', *, *, #416, .T. ) ;
#640 = CARTESIAN_POINT ( 'NONE',  ( 0.8876502094550308142, -0.4473165189512249285, -0.1499999999999999944 ) ) ;
#641 = AXIS2_PLACEMENT_3D ( 'NONE', #383, #481, #315 ) ;
#642 = AXIS2_PLACEMENT_3D ( 'NONE', #483, #329, #881 ) ;
#643 = CARTESIAN_POINT ( 'NONE',  ( 0.6293459327595897213, -0.03674588827182567741, 0.1499999999999999944 ) ) ;
#644 = ORIENTED_EDGE ( 'NONE', *, *, #395, .T. ) ;
#645 = DIRECTION ( 'NONE',  ( -0.000000000000000000, -0.000000000000000000, -1.000000000000000000 ) ) ;
#646 = DIRECTION ( 'NONE',  ( -0.000000000000000000, -0.000000000000000000, -1.000000000000000000 ) ) ;
#647 = ORIENTED_EDGE ( 'NONE', *, *, #817, .T. ) ;
#648 = FACE_OUTER_BOUND ( 'NONE', #207, .T. ) ;
#649 = EDGE_CURVE ( 'NONE', #85, #587, #997, .T. ) ;
#650 = FACE_OUTER_BOUND ( 'NONE', #192, .T. ) ;
#651 = DIRECTION ( 'NONE',  ( -0.000000000000000000, -0.000000000000000000, -1.000000000000000000 ) ) ;
#652 = ORIENTED_EDGE ( 'NONE', *, *, #920, .T. ) ;
#653 = CARTESIAN_POINT ( 'NONE',  ( 0.6691020641350364784, 0.09926859819228184278, -0.1499999999999999944 ) ) ;
#654 = LINE ( 'NONE', #884, #444 ) ;
#655 = ADVANCED_FACE ( 'NONE', ( #278 ), #445, .F. ) ;
#656 = CARTESIAN_POINT ( 'NONE',  ( -5.122214988120493288E-16, 0.5127274634171801182, 0.1499999999999999944 ) ) ;
#657 = LINE ( 'NONE', #420, #74 ) ;
#658 = VECTOR ( 'NONE', #29, 39.37007874015748143 ) ;
#659 = ORIENTED_EDGE ( 'NONE', *, *, #1009, .T. ) ;
#660 = PLANE ( 'NONE',  #810 ) ;
#661 = LINE ( 'NONE', #905, #896 ) ;
#662 =( LENGTH_UNIT ( ) NAMED_UNIT ( * ) SI_UNIT ( $, .METRE. ) );
#663 = DIRECTION ( 'NONE',  ( -0.000000000000000000, -0.000000000000000000, -1.000000000000000000 ) ) ;
#664 = ORIENTED_EDGE ( 'NONE', *, *, #272, .F. ) ;
#665 = EDGE_CURVE ( 'NONE', #802, #482, #350, .T. ) ;
#666 = LINE ( 'NONE', #731, #1000 ) ;
#667 = FACE_OUTER_BOUND ( 'NONE', #762, .T. ) ;
#668 =( CONVERSION_BASED_UNIT ( 'INCH', #504 ) LENGTH_UNIT ( ) NAMED_UNIT ( #497 ) );
#669 = CARTESIAN_POINT ( 'NONE',  ( 1.125311212104739944, -0.4543085461633671329, -0.1499999999999999944 ) ) ;
#670 = EDGE_LOOP ( 'NONE', ( #290, #520, #977, #69 ) ) ;
#671 = CARTESIAN_POINT ( 'NONE',  ( 0.8523323057406737568, -0.4660953814626604963, 0.1499999999999999944 ) ) ;
#672 = DIRECTION ( 'NONE',  ( 0.2923717047228389099, 0.9563047559630042382, -0.000000000000000000 ) ) ;
#673 = CARTESIAN_POINT ( 'NONE',  ( 0.6647006343487915636, 0.1449791942427981761, 0.1499999999999999944 ) ) ;
#674 = ORIENTED_EDGE ( 'NONE', *, *, #327, .T. ) ;
#675 = EDGE_CURVE ( 'NONE', #93, #323, #198, .T. ) ;
#676 = VECTOR ( 'NONE', #46, 39.37007874015748854 ) ;
#677 = CARTESIAN_POINT ( 'NONE',  ( 0.01900000000000000300, 6.582596477993511044E-17, -0.1499999999999999944 ) ) ;
#678 = FACE_OUTER_BOUND ( 'NONE', #855, .T. ) ;
#679 = ORIENTED_EDGE ( 'NONE', *, *, #665, .T. ) ;
#680 = VERTEX_POINT ( 'NONE', #534 ) ;
#681 = PLANE ( 'NONE',  #4 ) ;
#682 = ADVANCED_FACE ( 'NONE', ( #206 ), #523, .F. ) ;
#683 = CYLINDRICAL_SURFACE ( 'NONE', #120, 0.03999999999999875183 ) ;
#684 = ORIENTED_EDGE ( 'NONE', *, *, #395, .F. ) ;
#685 =( NAMED_UNIT ( * ) PLANE_ANGLE_UNIT ( ) SI_UNIT ( $, .RADIAN. ) );
#686 = DIRECTION ( 'NONE',  ( 0.000000000000000000, 0.000000000000000000, 1.000000000000000000 ) ) ;
#687 = ORIENTED_EDGE ( 'NONE', *, *, #64, .T. ) ;
#688 = EDGE_CURVE ( 'NONE', #1029, #421, #131, .T. ) ;
#689 = ORIENTED_EDGE ( 'NONE', *, *, #889, .T. ) ;
#690 = VECTOR ( 'NONE', #255, 39.37007874015748143 ) ;
#691 = AXIS2_PLACEMENT_3D ( 'NONE', #493, #253, #820 ) ;
#692 = CARTESIAN_POINT ( 'NONE',  ( 0.000000000000000000, 0.000000000000000000, -0.1499999999999999944 ) ) ;
#693 = ORIENTED_EDGE ( 'NONE', *, *, #332, .F. ) ;
#694 = CARTESIAN_POINT ( 'NONE',  ( 0.6647006343487928959, 0.1449791942427989255, 0.1499999999999999944 ) ) ;
#695 = ORIENTED_EDGE ( 'NONE', *, *, #20, .T. ) ;
#696 = ADVANCED_FACE ( 'NONE', ( #751 ), #683, .F. ) ;
#697 = CARTESIAN_POINT ( 'NONE',  ( 0.6479246300844733186, 0.1360592345498669864, 0.1499999999999999944 ) ) ;
#698 = ORIENTED_EDGE ( 'NONE', *, *, #1001, .F. ) ;
#699 = DIRECTION ( 'NONE',  ( 1.000000000000000000, 0.000000000000000000, 0.000000000000000000 ) ) ;
#700 = VERTEX_POINT ( 'NONE', #673 ) ;
#701 = ADVANCED_FACE ( 'NONE', ( #598 ), #365, .F. ) ;
#702 = LINE ( 'NONE', #1043, #981 ) ;
#703 = DIRECTION ( 'NONE',  ( -0.000000000000000000, -0.000000000000000000, -1.000000000000000000 ) ) ;
#704 = VERTEX_POINT ( 'NONE', #289 ) ;
#705 = EDGE_CURVE ( 'NONE', #533, #787, #519, .T. ) ;
#706 = AXIS2_PLACEMENT_3D ( 'NONE', #304, #624, #777 ) ;
#707 =( GEOMETRIC_REPRESENTATION_CONTEXT ( 3 ) GLOBAL_UNCERTAINTY_ASSIGNED_CONTEXT ( ( #183 ) ) GLOBAL_UNIT_ASSIGNED_CONTEXT ( ( #49, #368, #550 ) ) REPRESENTATION_CONTEXT ( 'NONE', 'WORKASPACE' ) );
#708 = EDGE_CURVE ( 'NONE', #366, #742, #439, .T. ) ;
#709 = LINE ( 'NONE', #957, #156 ) ;
#710 = CIRCLE ( 'NONE', #477, 0.03999999999999889061 ) ;
#711 = DIRECTION ( 'NONE',  ( -0.000000000000000000, -0.000000000000000000, -1.000000000000000000 ) ) ;
#712 = ORIENTED_EDGE ( 'NONE', *, *, #829, .F. ) ;
#713 = DIRECTION ( 'NONE',  ( 0.8829475928589261002, 0.4694715627858923601, -0.000000000000000000 ) ) ;
#714 = CARTESIAN_POINT ( 'NONE',  ( 0.3974724661646443225, 0.6070912475371449402, 0.1499999999999999944 ) ) ;
#715 = LINE ( 'NONE', #638, #324 ) ;
#716 = ORIENTED_EDGE ( 'NONE', *, *, #44, .F. ) ;
#717 = ADVANCED_FACE ( 'NONE', ( #678 ), #1003, .F. ) ;
#718 = DIRECTION ( 'NONE',  ( -1.000000000000000000, 0.000000000000000000, 0.000000000000000000 ) ) ;
#719 = LINE ( 'NONE', #722, #963 ) ;
#720 = DIRECTION ( 'NONE',  ( -0.000000000000000000, 0.000000000000000000, -1.000000000000000000 ) ) ;
#721 = ORIENTED_EDGE ( 'NONE', *, *, #581, .F. ) ;
#722 = CARTESIAN_POINT ( 'NONE',  ( 0.6340280290452362522, -0.05552475078326146729, -0.1499999999999999944 ) ) ;
#723 = VECTOR ( 'NONE', #500, 39.37007874015748143 ) ;
#724 = AXIS2_PLACEMENT_3D ( 'NONE', #911, #349, #292 ) ;
#725 = FACE_OUTER_BOUND ( 'NONE', #922, .T. ) ;
#726 = ORIENTED_EDGE ( 'NONE', *, *, #252, .T. ) ;
#727 = ADVANCED_FACE ( 'NONE', ( #765 ), #50, .F. ) ;
#728 = CARTESIAN_POINT ( 'NONE',  ( 0.2200000000000006117, 0.5127274634171801182, 0.1499999999999999944 ) ) ;
#729 = CARTESIAN_POINT ( 'NONE',  ( 0.3974724661646443225, 0.6070912475371449402, -0.1499999999999999944 ) ) ;
#730 = EDGE_LOOP ( 'NONE', ( #311, #599, #833, #154 ) ) ;
#731 = CARTESIAN_POINT ( 'NONE',  ( 0.8932171334934331242, -0.4869272417008851939, 0.1499999999999999944 ) ) ;
#732 = LINE ( 'NONE', #14, #610 ) ;
#733 = SURFACE_SIDE_STYLE ('',( #413 ) ) ;
#734 = DIRECTION ( 'NONE',  ( 3.464524462101847430E-15, -1.000000000000000000, -0.000000000000000000 ) ) ;
#735 = VERTEX_POINT ( 'NONE', #1022 ) ;
#736 = CARTESIAN_POINT ( 'NONE',  ( 0.6103459327595895934, -0.03674588827182567741, -0.1499999999999999944 ) ) ;
#737 = CARTESIAN_POINT ( 'NONE',  ( 0.6693459327595885355, -0.03674588827182567741, 0.1499999999999999944 ) ) ;
#738 = EDGE_CURVE ( 'NONE', #700, #305, #709, .T. ) ;
#739 = EDGE_CURVE ( 'NONE', #93, #275, #633, .T. ) ;
#740 = CARTESIAN_POINT ( 'NONE',  ( 0.8876502094550308142, -0.4473165189512249285, 0.1499999999999999944 ) ) ;
#741 = AXIS2_PLACEMENT_3D ( 'NONE', #299, #1035, #71 ) ;
#742 = VERTEX_POINT ( 'NONE', #540 ) ;
#743 = VECTOR ( 'NONE', #80, 39.37007874015748143 ) ;
#744 = DIRECTION ( 'NONE',  ( 0.000000000000000000, 0.000000000000000000, 1.000000000000000000 ) ) ;
#745 = CARTESIAN_POINT ( 'NONE',  ( 0.6172520247809144545, -0.06444471047619579340, 0.1499999999999999944 ) ) ;
#746 = CARTESIAN_POINT ( 'NONE',  ( 1.125311212104739944, -0.4543085461633671329, 0.1499999999999999944 ) ) ;
#747 = ORIENTED_EDGE ( 'NONE', *, *, #412, .F. ) ;
#748 = FACE_OUTER_BOUND ( 'NONE', #1004, .T. ) ;
#749 = PLANE ( 'NONE',  #860 ) ;
#750 = EDGE_CURVE ( 'NONE', #482, #179, #626, .T. ) ;
#751 = FACE_OUTER_BOUND ( 'NONE', #47, .T. ) ;
#752 = VERTEX_POINT ( 'NONE', #146 ) ;
#753 = DIRECTION ( 'NONE',  ( -0.4694715627858896956, 0.8829475928589275435, 0.000000000000000000 ) ) ;
#754 = LENGTH_MEASURE_WITH_UNIT ( LENGTH_MEASURE( 0.02539999999999999897 ), #438 );
#755 = DIRECTION ( 'NONE',  ( 0.000000000000000000, 0.000000000000000000, 1.000000000000000000 ) ) ;
#756 = ORIENTED_EDGE ( 'NONE', *, *, #910, .T. ) ;
#757 = VECTOR ( 'NONE', #703, 39.37007874015748143 ) ;
#758 = ORIENTED_EDGE ( 'NONE', *, *, #141, .T. ) ;
#759 = VECTOR ( 'NONE', #277, 39.37007874015748143 ) ;
#760 = DIRECTION ( 'NONE',  ( -0.000000000000000000, -0.000000000000000000, -1.000000000000000000 ) ) ;
#761 = CARTESIAN_POINT ( 'NONE',  ( 0.8523323057406737568, -0.4660953814626604963, -0.1499999999999999944 ) ) ;
#762 = EDGE_LOOP ( 'NONE', ( #888, #684, #695, #933 ) ) ;
#763 = EDGE_CURVE ( 'NONE', #88, #48, #871, .T. ) ;
#764 = CARTESIAN_POINT ( 'NONE',  ( 0.6693459327595885355, -0.03674588827182567741, -0.1499999999999999944 ) ) ;
#765 = FACE_OUTER_BOUND ( 'NONE', #331, .T. ) ;
#766 = ORIENTED_EDGE ( 'NONE', *, *, #214, .F. ) ;
#767 = VERTEX_POINT ( 'NONE', #389 ) ;
#768 = DIRECTION ( 'NONE',  ( 0.4694715627858896401, -0.8829475928589275435, 0.000000000000000000 ) ) ;
#769 = VERTEX_POINT ( 'NONE', #472 ) ;
#770 = EDGE_CURVE ( 'NONE', #769, #179, #307, .T. ) ;
#771 = AXIS2_PLACEMENT_3D ( 'NONE', #398, #137, #241 ) ;
#772 = VECTOR ( 'NONE', #806, 39.37007874015748143 ) ;
#773 = AXIS2_PLACEMENT_3D ( 'NONE', #276, #180, #753 ) ;
#774 = CARTESIAN_POINT ( 'NONE',  ( 1.125311212104739944, -0.4543085461633671329, -0.1499999999999999944 ) ) ;
#775 = EDGE_CURVE ( 'NONE', #179, #88, #140, .T. ) ;
#776 = ORIENTED_EDGE ( 'NONE', *, *, #739, .F. ) ;
#777 = DIRECTION ( 'NONE',  ( 1.000000000000000000, 0.000000000000000000, 0.000000000000000000 ) ) ;
#778 = VERTEX_POINT ( 'NONE', #314 ) ;
#779 = EDGE_CURVE ( 'NONE', #1029, #93, #877, .T. ) ;
#780 = CARTESIAN_POINT ( 'NONE',  ( 0.6117237787772564772, 0.1168109004756452268, -0.1499999999999999944 ) ) ;
#781 = ORIENTED_EDGE ( 'NONE', *, *, #456, .T. ) ;
#782 = ADVANCED_FACE ( 'NONE', ( #790 ), #628, .T. ) ;
#783 = CARTESIAN_POINT ( 'NONE',  ( 0.8932171334934331242, -0.4869272417008851939, -0.1499999999999999944 ) ) ;
#784 = ORIENTED_EDGE ( 'NONE', *, *, #801, .T. ) ;
#785 = LINE ( 'NONE', #380, #122 ) ;
#786 = LINE ( 'NONE', #475, #842 ) ;
#787 = VERTEX_POINT ( 'NONE', #464 ) ;
#788 = AXIS2_PLACEMENT_3D ( 'NONE', #832, #369, #112 ) ;
#789 = CIRCLE ( 'NONE', #229, 0.03999999999999875183 ) ;
#790 = FACE_OUTER_BOUND ( 'NONE', #606, .T. ) ;
#791 = DIRECTION ( 'NONE',  ( 0.000000000000000000, 0.000000000000000000, 1.000000000000000000 ) ) ;
#792 = ORIENTED_EDGE ( 'NONE', *, *, #555, .T. ) ;
#793 = LINE ( 'NONE', #968, #78 ) ;
#794 = ADVANCED_FACE ( 'NONE', ( #637 ), #133, .T. ) ;
#795 = LINE ( 'NONE', #901, #139 ) ;
#796 = FACE_OUTER_BOUND ( 'NONE', #583, .T. ) ;
#797 = VERTEX_POINT ( 'NONE', #232 ) ;
#798 = CARTESIAN_POINT ( 'NONE',  ( 0.01899999999999947564, 0.5127274634171801182, -0.1499999999999999944 ) ) ;
#799 = DIRECTION ( 'NONE',  ( 0.000000000000000000, 0.000000000000000000, 1.000000000000000000 ) ) ;
#800 = LINE ( 'NONE', #178, #723 ) ;
#801 = EDGE_CURVE ( 'NONE', #984, #48, #375, .T. ) ;
#802 = VERTEX_POINT ( 'NONE', #714 ) ;
#803 = CARTESIAN_POINT ( 'NONE',  ( 0.6479246300844733186, 0.1360592345498669864, 0.1499999999999999944 ) ) ;
#804 = DIRECTION ( 'NONE',  ( 0.4694715627858896401, -0.8829475928589275435, 0.000000000000000000 ) ) ;
#805 = PRODUCT_DEFINITION_SHAPE ( 'NONE', 'NONE',  #259 ) ;
#806 = DIRECTION ( 'NONE',  ( -1.000000000000000000, 0.000000000000000000, 0.000000000000000000 ) ) ;
#807 = VECTOR ( 'NONE', #361, 39.37007874015748143 ) ;
#808 = EDGE_CURVE ( 'NONE', #778, #61, #702, .T. ) ;
#809 = PRESENTATION_LAYER_ASSIGNMENT (  '', '', ( #360 ) ) ;
#810 = AXIS2_PLACEMENT_3D ( 'NONE', #344, #352, #263 ) ;
#811 = DIRECTION ( 'NONE',  ( -0.000000000000000000, -0.000000000000000000, -1.000000000000000000 ) ) ;
#812 = ORIENTED_EDGE ( 'NONE', *, *, #763, .T. ) ;
#813 = PLANE ( 'NONE',  #197 ) ;
#814 = PLANE ( 'NONE',  #58 ) ;
#815 = DIRECTION ( 'NONE',  ( -0.000000000000000000, -0.000000000000000000, -1.000000000000000000 ) ) ;
#816 = ORIENTED_EDGE ( 'NONE', *, *, #770, .F. ) ;
#817 = EDGE_CURVE ( 'NONE', #323, #61, #530, .T. ) ;
#818 = DIRECTION ( 'NONE',  ( -1.000000000000000000, 0.000000000000000000, 0.000000000000000000 ) ) ;
#819 = EDGE_CURVE ( 'NONE', #363, #48, #220, .T. ) ;
#820 = DIRECTION ( 'NONE',  ( 1.000000000000000000, 0.000000000000000000, -0.000000000000000000 ) ) ;
#821 = CARTESIAN_POINT ( 'NONE',  ( 0.6691020641350364784, 0.09926859819228184278, -0.1499999999999999944 ) ) ;
#822 = ORIENTED_EDGE ( 'NONE', *, *, #851, .T. ) ;
#823 = LINE ( 'NONE', #653, #6 ) ;
#824 = DIRECTION ( 'NONE',  ( -3.464524462101847430E-15, 1.000000000000000000, 0.000000000000000000 ) ) ;
#825 = DIRECTION ( 'NONE',  ( 0.1391731009600760127, -0.9902680687415688077, 0.000000000000000000 ) ) ;
#826 = VECTOR ( 'NONE', #663, 39.37007874015748143 ) ;
#827 = ORIENTED_EDGE ( 'NONE', *, *, #53, .T. ) ;
#828 = DIRECTION ( 'NONE',  ( -0.000000000000000000, -0.000000000000000000, -1.000000000000000000 ) ) ;
#829 = EDGE_CURVE ( 'NONE', #305, #603, #785, .T. ) ;
#830 = VECTOR ( 'NONE', #845, 39.37007874015748143 ) ;
#831 = DIRECTION ( 'NONE',  ( -0.000000000000000000, 0.000000000000000000, -1.000000000000000000 ) ) ;
#832 = CARTESIAN_POINT ( 'NONE',  ( 0.000000000000000000, 0.000000000000000000, -0.1499999999999999944 ) ) ;
#833 = ORIENTED_EDGE ( 'NONE', *, *, #739, .T. ) ;
#834 = CARTESIAN_POINT ( 'NONE',  ( 1.127955501022981366, -0.4731236394694569580, -0.1499999999999999944 ) ) ;
#835 = FACE_OUTER_BOUND ( 'NONE', #123, .T. ) ;
#836 = CARTESIAN_POINT ( 'NONE',  ( 0.6293459327595897213, -0.03674588827182567741, 0.1499999999999999944 ) ) ;
#837 = ORIENTED_EDGE ( 'NONE', *, *, #341, .T. ) ;
#838 = EDGE_CURVE ( 'NONE', #704, #802, #856, .T. ) ;
#839 = CARTESIAN_POINT ( 'NONE',  ( 0.000000000000000000, 0.000000000000000000, 0.1499999999999999944 ) ) ;
#840 = CARTESIAN_POINT ( 'NONE',  ( 1.125311212104739944, -0.4543085461633671329, -0.1499999999999999944 ) ) ;
#841 = ORIENTED_EDGE ( 'NONE', *, *, #829, .T. ) ;
#842 = VECTOR ( 'NONE', #553, 39.37007874015748143 ) ;
#843 = ORIENTED_EDGE ( 'NONE', *, *, #518, .T. ) ;
#844 = VECTOR ( 'NONE', #160, 39.37007874015748143 ) ;
#845 = DIRECTION ( 'NONE',  ( 0.8829475928589261002, 0.4694715627858923601, -0.000000000000000000 ) ) ;
#846 = VECTOR ( 'NONE', #217, 39.37007874015748143 ) ;
#847 = CARTESIAN_POINT ( 'NONE',  ( 0.6647006343487928959, 0.1449791942427989255, 0.1499999999999999944 ) ) ;
#848 = CARTESIAN_POINT ( 'NONE',  ( 0.6693459327595885355, -0.03674588827182567741, -0.1499999999999999944 ) ) ;
#849 = ORIENTED_EDGE ( 'NONE', *, *, #225, .T. ) ;
#850 = ORIENTED_EDGE ( 'NONE', *, *, #231, .F. ) ;
#851 = EDGE_CURVE ( 'NONE', #607, #362, #622, .T. ) ;
#852 = EDGE_CURVE ( 'NONE', #85, #942, #295, .T. ) ;
#853 = DIRECTION ( 'NONE',  ( -0.9902680687415686966, -0.1391731009600759850, -0.000000000000000000 ) ) ;
#854 = ORIENTED_EDGE ( 'NONE', *, *, #738, .T. ) ;
#855 = EDGE_LOOP ( 'NONE', ( #12, #291, #843, #822, #1014, #576 ) ) ;
#856 = LINE ( 'NONE', #697, #391 ) ;
#857 = ORIENTED_EDGE ( 'NONE', *, *, #675, .T. ) ;
#858 = EDGE_LOOP ( 'NONE', ( #592, #1019, #108, #864 ) ) ;
#859 = AXIS2_PLACEMENT_3D ( 'NONE', #11, #646, #971 ) ;
#860 = AXIS2_PLACEMENT_3D ( 'NONE', #364, #354, #110 ) ;
#861 = VECTOR ( 'NONE', #18, 39.37007874015748143 ) ;
#862 = EDGE_CURVE ( 'NONE', #1037, #515, #795, .T. ) ;
#863 = CARTESIAN_POINT ( 'NONE',  ( 0.6117237787772564772, 0.1168109004756452268, -0.1499999999999999944 ) ) ;
#864 = ORIENTED_EDGE ( 'NONE', *, *, #111, .T. ) ;
#865 = DIRECTION ( 'NONE',  ( -1.000000000000000000, 0.000000000000000000, 0.000000000000000000 ) ) ;
#866 = EDGE_LOOP ( 'NONE', ( #756, #784, #1025, #1046 ) ) ;
#867 = DIRECTION ( 'NONE',  ( 1.000000000000000000, 0.000000000000000000, 0.000000000000000000 ) ) ;
#868 = DIRECTION ( 'NONE',  ( -0.8829475928589275435, -0.4694715627858896401, 0.000000000000000000 ) ) ;
#869 = DIRECTION ( 'NONE',  ( 0.2923717047228389099, 0.9563047559630041272, -0.000000000000000000 ) ) ;
#870 = ORIENTED_EDGE ( 'NONE', *, *, #1042, .F. ) ;
#871 = LINE ( 'NONE', #617, #509 ) ;
#872 = CARTESIAN_POINT ( 'NONE',  ( 0.6479246300844733186, 0.1360592345498669586, 0.1499999999999999944 ) ) ;
#873 = EDGE_LOOP ( 'NONE', ( #446, #82, #972, #507 ) ) ;
#874 = ADVANCED_FACE ( 'NONE', ( #964 ), #246, .F. ) ;
#875 = VECTOR ( 'NONE', #68, 39.37007874015748143 ) ;
#876 = AXIS2_PLACEMENT_3D ( 'NONE', #863, #260, #986 ) ;
#877 = LINE ( 'NONE', #237, #266 ) ;
#878 = CARTESIAN_POINT ( 'NONE',  ( 1.125311212104739944, -0.4543085461633671329, 0.1499999999999999944 ) ) ;
#879 = ORIENTED_EDGE ( 'NONE', *, *, #31, .F. ) ;
#880 = ADVANCED_FACE ( 'NONE', ( #562 ), #480, .F. ) ;
#881 = DIRECTION ( 'NONE',  ( 1.000000000000000000, 0.000000000000000000, 0.000000000000000000 ) ) ;
#882 = PLANE ( 'NONE',  #962 ) ;
#883 = ORIENTED_EDGE ( 'NONE', *, *, #893, .F. ) ;
#884 = CARTESIAN_POINT ( 'NONE',  ( 0.6647006343487915636, 0.1449791942427981761, 0.1499999999999999944 ) ) ;
#885 = EDGE_CURVE ( 'NONE', #533, #284, #345, .T. ) ;
#886 = CARTESIAN_POINT ( 'NONE',  ( 1.125311212104739944, -0.4543085461633671329, 0.1499999999999999944 ) ) ;
#887 = FACE_OUTER_BOUND ( 'NONE', #296, .T. ) ;
#888 = ORIENTED_EDGE ( 'NONE', *, *, #852, .F. ) ;
#889 = EDGE_CURVE ( 'NONE', #769, #680, #100, .T. ) ;
#890 = CARTESIAN_POINT ( 'NONE',  ( 1.125311212104739944, -0.4543085461633671329, 0.1499999999999999944 ) ) ;
#891 = VECTOR ( 'NONE', #233, 39.37007874015748854 ) ;
#892 = CARTESIAN_POINT ( 'NONE',  ( -5.122214988120493288E-16, 0.5127274634171801182, 0.1499999999999999944 ) ) ;
#893 = EDGE_CURVE ( 'NONE', #587, #305, #428, .T. ) ;
#894 = UNCERTAINTY_MEASURE_WITH_UNIT (LENGTH_MEASURE( 1.000000000000000082E-05 ), #668, 'distance_accuracy_value', 'NONE');
#895 = AXIS2_PLACEMENT_3D ( 'NONE', #996, #1002, #601 ) ;
#896 = VECTOR ( 'NONE', #250, 39.37007874015748143 ) ;
#897 = DIRECTION ( 'NONE',  ( -1.000000000000000000, 0.000000000000000000, 0.000000000000000000 ) ) ;
#898 = ORIENTED_EDGE ( 'NONE', *, *, #613, .T. ) ;
#899 = DIRECTION ( 'NONE',  ( -0.000000000000000000, -0.000000000000000000, -1.000000000000000000 ) ) ;
#900 = DIRECTION ( 'NONE',  ( 0.4694715627858923601, -0.8829475928589261002, 0.000000000000000000 ) ) ;
#901 = CARTESIAN_POINT ( 'NONE',  ( 0.8523323057406737568, -0.4660953814626604963, -0.1499999999999999944 ) ) ;
#902 = CARTESIAN_POINT ( 'NONE',  ( 0.6693459327595885355, -0.03674588827182567741, -0.1499999999999999944 ) ) ;
#903 = ORIENTED_EDGE ( 'NONE', *, *, #188, .T. ) ;
#904 = FACE_OUTER_BOUND ( 'NONE', #399, .T. ) ;
#905 = CARTESIAN_POINT ( 'NONE',  ( 0.000000000000000000, 0.000000000000000000, 0.1499999999999999944 ) ) ;
#906 = CARTESIAN_POINT ( 'NONE',  ( 0.8932171334934331242, -0.4869272417008851939, 0.1499999999999999944 ) ) ;
#907 = CARTESIAN_POINT ( 'NONE',  ( 0.6172520247809166749, -0.06444471047619339255, -0.1499999999999999944 ) ) ;
#908 = ORIENTED_EDGE ( 'NONE', *, *, #201, .F. ) ;
#909 = PLANE ( 'NONE',  #773 ) ;
#910 = EDGE_CURVE ( 'NONE', #179, #984, #86, .T. ) ;
#911 = CARTESIAN_POINT ( 'NONE',  ( 1.125311212104739944, -0.4543085461633671329, 0.1499999999999999944 ) ) ;
#912 = DIRECTION ( 'NONE',  ( -0.4694715627858896956, 0.8829475928589275435, 0.000000000000000000 ) ) ;
#913 = CIRCLE ( 'NONE', #998, 0.05999999999999929001 ) ;
#914 = ORIENTED_EDGE ( 'NONE', *, *, #188, .F. ) ;
#915 = AXIS2_PLACEMENT_3D ( 'NONE', #764, #760, #205 ) ;
#916 = FACE_OUTER_BOUND ( 'NONE', #425, .T. ) ;
#917 = AXIS2_PLACEMENT_3D ( 'NONE', #563, #254, #824 ) ;
#918 = AXIS2_PLACEMENT_3D ( 'NONE', #478, #1033, #155 ) ;
#919 = EDGE_CURVE ( 'NONE', #680, #88, #168, .T. ) ;
#920 = EDGE_CURVE ( 'NONE', #538, #515, #719, .T. ) ;
#921 = DIRECTION ( 'NONE',  ( -0.8829475928589261002, -0.4694715627858923601, 0.000000000000000000 ) ) ;
#922 = EDGE_LOOP ( 'NONE', ( #73, #3, #130, #490 ) ) ;
#923 = DIRECTION ( 'NONE',  ( -0.000000000000000000, -0.000000000000000000, -1.000000000000000000 ) ) ;
#924 = CARTESIAN_POINT ( 'NONE',  ( 0.2200000000000006117, 0.5127274634171801182, 0.1499999999999999944 ) ) ;
#925 = ORIENTED_EDGE ( 'NONE', *, *, #479, .F. ) ;
#926 = CARTESIAN_POINT ( 'NONE',  ( 0.8523323057406747560, -0.4660953814626598857, 0.1499999999999999944 ) ) ;
#927 = DIRECTION ( 'NONE',  ( -0.000000000000000000, -0.000000000000000000, -1.000000000000000000 ) ) ;
#928 = EDGE_CURVE ( 'NONE', #134, #1037, #789, .T. ) ;
#929 = CARTESIAN_POINT ( 'NONE',  ( 1.125311212104739944, -0.4543085461633671329, 0.1499999999999999944 ) ) ;
#930 = ORIENTED_EDGE ( 'NONE', *, *, #889, .F. ) ;
#931 = APPLICATION_CONTEXT ( 'automotive_design' ) ;
#932 = AXIS2_PLACEMENT_3D ( 'NONE', #570, #815, #96 ) ;
#933 = ORIENTED_EDGE ( 'NONE', *, *, #371, .T. ) ;
#934 = CIRCLE ( 'NONE', #558, 0.03999999999999889061 ) ;
#935 = EDGE_CURVE ( 'NONE', #787, #362, #934, .T. ) ;
#936 = APPLICATION_PROTOCOL_DEFINITION ( 'draft international standard', 'automotive_design', 1998, #28 ) ;
#937 = CARTESIAN_POINT ( 'NONE',  ( 0.8876502094550308142, -0.4473165189512249285, 0.1499999999999999944 ) ) ;
#938 = ORIENTED_EDGE ( 'NONE', *, *, #919, .F. ) ;
#939 = ORIENTED_EDGE ( 'NONE', *, *, #974, .F. ) ;
#940 = FACE_OUTER_BOUND ( 'NONE', #526, .T. ) ;
#941 = CARTESIAN_POINT ( 'NONE',  ( -5.122214988120493288E-16, 0.5127274634171801182, -0.1499999999999999944 ) ) ;
#942 = VERTEX_POINT ( 'NONE', #176 ) ;
#943 = ORIENTED_EDGE ( 'NONE', *, *, #170, .F. ) ;
#944 = CARTESIAN_POINT ( 'NONE',  ( 0.6691020641350364784, 0.09926859819228184278, 0.1499999999999999944 ) ) ;
#945 = ADVANCED_FACE ( 'NONE', ( #650 ), #15, .T. ) ;
#946 = CARTESIAN_POINT ( 'NONE',  ( 0.6310937425210696450, -0.02505102008291171592, -0.1499999999999999944 ) ) ;
#947 = ORIENTED_EDGE ( 'NONE', *, *, #1026, .F. ) ;
#948 = DIRECTION ( 'NONE',  ( -1.000000000000000000, 0.000000000000000000, 0.000000000000000000 ) ) ;
#949 = ORIENTED_EDGE ( 'NONE', *, *, #770, .T. ) ;
#950 = DIRECTION ( 'NONE',  ( -0.000000000000000000, 0.000000000000000000, -1.000000000000000000 ) ) ;
#951 = FACE_OUTER_BOUND ( 'NONE', #495, .T. ) ;
#952 = ORIENTED_EDGE ( 'NONE', *, *, #64, .F. ) ;
#953 = DIRECTION ( 'NONE',  ( 0.000000000000000000, 0.000000000000000000, 1.000000000000000000 ) ) ;
#954 = DIRECTION ( 'NONE',  ( 0.000000000000000000, 0.000000000000000000, 1.000000000000000000 ) ) ;
#955 = CYLINDRICAL_SURFACE ( 'NONE', #771, 0.03999999999999889061 ) ;
#956 = EDGE_LOOP ( 'NONE', ( #535, #239, #639, #949 ) ) ;
#957 = CARTESIAN_POINT ( 'NONE',  ( 0.6647006343487915636, 0.1449791942427981761, 0.1499999999999999944 ) ) ;
#958 = PLANE ( 'NONE',  #594 ) ;
#959 = EDGE_LOOP ( 'NONE', ( #546, #938, #850, #256 ) ) ;
#960 = ADVANCED_FACE ( 'NONE', ( #95 ), #814, .T. ) ;
#961 = PRODUCT ( '100-0587_0', '100-0587_0', '', ( #616 ) ) ;
#962 = AXIS2_PLACEMENT_3D ( 'NONE', #746, #825, #107 ) ;
#963 = VECTOR ( 'NONE', #569, 39.37007874015748854 ) ;
#964 = FACE_OUTER_BOUND ( 'NONE', #956, .T. ) ;
#965 = CARTESIAN_POINT ( 'NONE',  ( 0.01900000000000000300, 6.582596477993511044E-17, 0.1499999999999999944 ) ) ;
#966 = ORIENTED_EDGE ( 'NONE', *, *, #339, .F. ) ;
#967 = EDGE_CURVE ( 'NONE', #465, #618, #975, .T. ) ;
#968 = CARTESIAN_POINT ( 'NONE',  ( 1.127955501022981366, -0.4731236394694569580, 0.1499999999999999944 ) ) ;
#969 = DIRECTION ( 'NONE',  ( -0.000000000000000000, -0.000000000000000000, -1.000000000000000000 ) ) ;
#970 = MANIFOLD_SOLID_BREP ( 'Convert-Solid1', #1017 ) ;
#971 = DIRECTION ( 'NONE',  ( -1.000000000000000000, 0.000000000000000000, 0.000000000000000000 ) ) ;
#972 = ORIENTED_EDGE ( 'NONE', *, *, #600, .T. ) ;
#973 = LINE ( 'NONE', #357, #861 ) ;
#974 = EDGE_CURVE ( 'NONE', #767, #538, #419, .T. ) ;
#975 = LINE ( 'NONE', #906, #105 ) ;
#976 = CARTESIAN_POINT ( 'NONE',  ( 0.4142484704289639552, 0.6160112072300769626, -0.1499999999999999944 ) ) ;
#977 = ORIENTED_EDGE ( 'NONE', *, *, #967, .T. ) ;
#978 = CARTESIAN_POINT ( 'NONE',  ( 0.8523323057406747560, -0.4660953814626598857, -0.1499999999999999944 ) ) ;
#979 = AXIS2_PLACEMENT_3D ( 'NONE', #924, #591, #454 ) ;
#980 = DIRECTION ( 'NONE',  ( -0.000000000000000000, -0.000000000000000000, -1.000000000000000000 ) ) ;
#981 = VECTOR ( 'NONE', #556, 39.37007874015748143 ) ;
#982 = AXIS2_PLACEMENT_3D ( 'NONE', #432, #98, #572 ) ;
#983 = DIRECTION ( 'NONE',  ( -0.000000000000000000, -0.000000000000000000, -1.000000000000000000 ) ) ;
#984 = VERTEX_POINT ( 'NONE', #677 ) ;
#985 = DIRECTION ( 'NONE',  ( -0.4694715627858896401, 0.8829475928589275435, 0.000000000000000000 ) ) ;
#986 = DIRECTION ( 'NONE',  ( -1.000000000000000000, 3.747962186429699819E-15, 0.000000000000000000 ) ) ;
#987 = LINE ( 'NONE', #346, #826 ) ;
#988 = ORIENTED_EDGE ( 'NONE', *, *, #231, .T. ) ;
#989 = DIRECTION ( 'NONE',  ( -0.4694715627858923601, 0.8829475928589261002, 0.000000000000000000 ) ) ;
#990 = DIRECTION ( 'NONE',  ( 0.9563047559629989092, -0.2923717047228566179, -0.000000000000000000 ) ) ;
#991 = DIRECTION ( 'NONE',  ( 3.464524462101847430E-15, -1.000000000000000000, 0.000000000000000000 ) ) ;
#992 = CARTESIAN_POINT ( 'NONE',  ( 0.6691020641350364784, 0.09926859819228184278, -0.1499999999999999944 ) ) ;
#993 = ORIENTED_EDGE ( 'NONE', *, *, #441, .F. ) ;
#994 = DIRECTION ( 'NONE',  ( 1.000000000000000000, 0.000000000000000000, -0.000000000000000000 ) ) ;
#995 = ADVANCED_FACE ( 'NONE', ( #450 ), #429, .T. ) ;
#996 = CARTESIAN_POINT ( 'NONE',  ( 0.8876502094550308142, -0.4473165189512249285, 0.1499999999999999944 ) ) ;
#997 = LINE ( 'NONE', #992, #627 ) ;
#998 = AXIS2_PLACEMENT_3D ( 'NONE', #392, #62, #699 ) ;
#999 = EDGE_LOOP ( 'NONE', ( #336, #459, #524, #36 ) ) ;
#1000 = VECTOR ( 'NONE', #193, 39.37007874015748143 ) ;
#1001 = EDGE_CURVE ( 'NONE', #538, #125, #326, .T. ) ;
#1002 = DIRECTION ( 'NONE',  ( -0.000000000000000000, -0.000000000000000000, -1.000000000000000000 ) ) ;
#1003 = PLANE ( 'NONE',  #21 ) ;
#1004 = EDGE_LOOP ( 'NONE', ( #287, #816, #687, #792 ) ) ;
#1005 = ADVANCED_FACE ( 'NONE', ( #27 ), #681, .F. ) ;
#1006 = LINE ( 'NONE', #847, #596 ) ;
#1007 = CARTESIAN_POINT ( 'NONE',  ( 0.6647006343487928959, 0.1449791942427989255, 0.1499999999999999944 ) ) ;
#1008 = ORIENTED_EDGE ( 'NONE', *, *, #801, .F. ) ;
#1009 = EDGE_CURVE ( 'NONE', #700, #262, #1006, .T. ) ;
#1010 = ORIENTED_EDGE ( 'NONE', *, *, #625, .F. ) ;
#1011 = CARTESIAN_POINT ( 'NONE',  ( 0.6691020641350364784, 0.09926859819228184278, -0.1499999999999999944 ) ) ;
#1012 = ORIENTED_EDGE ( 'NONE', *, *, #595, .T. ) ;
#1013 = VECTOR ( 'NONE', #283, 39.37007874015748143 ) ;
#1014 = ORIENTED_EDGE ( 'NONE', *, *, #935, .F. ) ;
#1015 = VECTOR ( 'NONE', #404, 39.37007874015748143 ) ;
#1016 = CARTESIAN_POINT ( 'NONE',  ( 0.4142484704289639552, 0.6160112072300769626, 0.1499999999999999944 ) ) ;
#1017 = CLOSED_SHELL ( 'NONE', ( #552, #177, #995, #402, #1005, #147, #116, #135, #945, #79, #106, #960, #1020, #620, #880, #655, #717, #727, #794, #222, #382, #682, #632, #151, #544, #701, #405, #269, #696, #513, #298, #874, #9, #306, #219, #568, #1032, #1045, #436, #782 ) ) ;
#1018 = DIRECTION ( 'NONE',  ( -0.1391731009600759850, 0.9902680687415686966, -0.000000000000000000 ) ) ;
#1019 = ORIENTED_EDGE ( 'NONE', *, *, #141, .F. ) ;
#1020 = ADVANCED_FACE ( 'NONE', ( #433 ), #45, .F. ) ;
#1021 = ORIENTED_EDGE ( 'NONE', *, *, #31, .T. ) ;
#1022 = CARTESIAN_POINT ( 'NONE',  ( 0.6340280290452362522, -0.05552475078326146729, 0.1499999999999999944 ) ) ;
#1023 = ORIENTED_EDGE ( 'NONE', *, *, #819, .F. ) ;
#1024 = CARTESIAN_POINT ( 'NONE',  ( 0.6509322737717393448, 0.1048236605820157957, 0.1499999999999999944 ) ) ;
#1025 = ORIENTED_EDGE ( 'NONE', *, *, #763, .F. ) ;
#1026 = EDGE_CURVE ( 'NONE', #607, #85, #190, .T. ) ;
#1027 = CARTESIAN_POINT ( 'NONE',  ( 0.01899999999999822664, 0.5127274634171802292, 0.1499999999999999944 ) ) ;
#1028 = LINE ( 'NONE', #634, #891 ) ;
#1029 = VERTEX_POINT ( 'NONE', #126 ) ;
#1030 = VECTOR ( 'NONE', #853, 39.37007874015748854 ) ;
#1031 = CARTESIAN_POINT ( 'NONE',  ( 1.125311212104739944, -0.4543085461633671329, -0.1499999999999999944 ) ) ;
#1032 = ADVANCED_FACE ( 'NONE', ( #835 ), #749, .T. ) ;
#1033 = DIRECTION ( 'NONE',  ( -0.000000000000000000, -0.000000000000000000, -1.000000000000000000 ) ) ;
#1034 = AXIS2_PLACEMENT_3D ( 'NONE', #803, #265, #900 ) ;
#1035 = DIRECTION ( 'NONE',  ( 0.000000000000000000, 0.000000000000000000, 1.000000000000000000 ) ) ;
#1036 = LINE ( 'NONE', #2, #830 ) ;
#1037 = VERTEX_POINT ( 'NONE', #521 ) ;
#1038 = LINE ( 'NONE', #373, #846 ) ;
#1039 = CYLINDRICAL_SURFACE ( 'NONE', #313, 0.03999999999999889061 ) ;
#1040 = ADVANCED_BREP_SHAPE_REPRESENTATION ( '100-0587_0', ( #970, #309 ), #707 ) ;
#1041 = SHAPE_DEFINITION_REPRESENTATION ( #805, #1040 ) ;
#1042 = EDGE_CURVE ( 'NONE', #248, #797, #492, .T. ) ;
#1043 = CARTESIAN_POINT ( 'NONE',  ( 0.8355563014763540686, -0.4750153411555924077, 0.1499999999999999944 ) ) ;
#1044 = CARTESIAN_POINT ( 'NONE',  ( 0.6310937425210696450, -0.02505102008291171592, -0.1499999999999999944 ) ) ;
#1045 = ADVANCED_FACE ( 'NONE', ( #209 ), #33, .T. ) ;
#1046 = ORIENTED_EDGE ( 'NONE', *, *, #775, .F. ) ;
#1047 = DIRECTION ( 'NONE',  ( 0.8829475928589275435, 0.4694715627858896401, -0.000000000000000000 ) ) ;
ENDSEC;
END-ISO-10303-21;
