ISO-10303-21;
HEADER;
FILE_DESCRIPTION (( 'STEP AP214' ),
    '1' );
FILE_NAME ('100-0194.step',
    '2026-02-02T19:54:57',
    ( '' ),
    ( '' ),
    'SwSTEP 2.0',
    'SolidWorks 2025',
    '' );
FILE_SCHEMA (( 'AUTOMOTIVE_DESIGN' ));
ENDSEC;

DATA;
#1 = EDGE_CURVE ( 'NONE', #570, #586, #231, .T. ) ;
#2 = CARTESIAN_POINT ( 'NONE',  ( 0.6165063509461093938, -0.2799999999999999711, 0.000000000000000000 ) ) ;
#3 = DIRECTION ( 'NONE',  ( 1.000000000000000000, 0.000000000000000000, 0.000000000000000000 ) ) ;
#4 = DIRECTION ( 'NONE',  ( 1.253141281497368343E-16, -1.000000000000000000, 0.000000000000000000 ) ) ;
#5 = CIRCLE ( 'NONE', #53, 0.05999999999999999084 ) ;
#6 = CARTESIAN_POINT ( 'NONE',  ( 0.5099999999999997868, 0.000000000000000000, 0.2500000000000000000 ) ) ;
#7 = CARTESIAN_POINT ( 'NONE',  ( 0.4699999999999999734, -0.5849999999999999645, 0.2500000000000000000 ) ) ;
#8 = EDGE_LOOP ( 'NONE', ( #278, #77, #435, #219 ) ) ;
#9 = DIRECTION ( 'NONE',  ( -0.000000000000000000, -0.000000000000000000, -1.000000000000000000 ) ) ;
#10 = DIRECTION ( 'NONE',  ( -0.000000000000000000, -0.000000000000000000, -1.000000000000000000 ) ) ;
#11 = ORIENTED_EDGE ( 'NONE', *, *, #104, .F. ) ;
#12 = EDGE_CURVE ( 'NONE', #21, #72, #292, .T. ) ;
#13 = PLANE ( 'NONE',  #132 ) ;
#14 = DIRECTION ( 'NONE',  ( 0.000000000000000000, 0.000000000000000000, 1.000000000000000000 ) ) ;
#15 = ORIENTED_EDGE ( 'NONE', *, *, #518, .F. ) ;
#16 = VECTOR ( 'NONE', #517, 39.37007874015748143 ) ;
#17 = ORIENTED_EDGE ( 'NONE', *, *, #291, .F. ) ;
#18 = CARTESIAN_POINT ( 'NONE',  ( 0.5099999999999997868, 0.02000000000000000042, 0.2500000000000000000 ) ) ;
#19 = AXIS2_PLACEMENT_3D ( 'NONE', #6, #323, #325 ) ;
#20 = EDGE_CURVE ( 'NONE', #583, #342, #83, .T. ) ;
#21 = VERTEX_POINT ( 'NONE', #180 ) ;
#22 = DIRECTION ( 'NONE',  ( 1.253141281497368343E-16, -1.000000000000000000, 0.000000000000000000 ) ) ;
#23 = ORIENTED_EDGE ( 'NONE', *, *, #361, .T. ) ;
#24 = DIRECTION ( 'NONE',  ( 1.253141281497368343E-16, -1.000000000000000000, 0.000000000000000000 ) ) ;
#25 = VERTEX_POINT ( 'NONE', #321 ) ;
#26 = DIRECTION ( 'NONE',  ( -0.000000000000000000, -0.000000000000000000, -1.000000000000000000 ) ) ;
#27 = FACE_OUTER_BOUND ( 'NONE', #405, .T. ) ;
#28 = ORIENTED_EDGE ( 'NONE', *, *, #160, .F. ) ;
#29 = CARTESIAN_POINT ( 'NONE',  ( 0.4699999999999999734, -0.5849999999999998535, 0.000000000000000000 ) ) ;
#30 = PLANE ( 'NONE',  #271 ) ;
#31 = VERTEX_POINT ( 'NONE', #190 ) ;
#32 = CARTESIAN_POINT ( 'NONE',  ( 0.5099999999999997868, -0.04000000000000000083, 0.000000000000000000 ) ) ;
#33 = EDGE_CURVE ( 'NONE', #455, #581, #500, .T. ) ;
#34 = FACE_OUTER_BOUND ( 'NONE', #200, .T. ) ;
#35 = EDGE_LOOP ( 'NONE', ( #476, #329, #262, #419 ) ) ;
#36 = DIRECTION ( 'NONE',  ( -0.000000000000000000, -0.000000000000000000, -1.000000000000000000 ) ) ;
#37 = ADVANCED_FACE ( 'NONE', ( #386 ), #379, .T. ) ;
#38 = CARTESIAN_POINT ( 'NONE',  ( 0.1999999999999999833, -0.03999999999999999389, 0.000000000000000000 ) ) ;
#39 = ADVANCED_FACE ( 'NONE', ( #558 ), #237, .T. ) ;
#40 = PLANE ( 'NONE',  #214 ) ;
#41 = AXIS2_PLACEMENT_3D ( 'NONE', #317, #366, #460 ) ;
#42 = CIRCLE ( 'NONE', #41, 0.04000000000000000083 ) ;
#43 = CARTESIAN_POINT ( 'NONE',  ( 0.03349364905389037167, 0.02000000000000000042, 0.2500000000000000000 ) ) ;
#44 = ADVANCED_FACE ( 'NONE', ( #281 ), #13, .F. ) ;
#45 = CARTESIAN_POINT ( 'NONE',  ( 0.1800000000000000488, -0.5850000000000000755, 0.2500000000000000000 ) ) ;
#46 = FACE_OUTER_BOUND ( 'NONE', #149, .T. ) ;
#47 = DIRECTION ( 'NONE',  ( 1.000000000000000000, -3.124551142754799272E-19, 0.000000000000000000 ) ) ;
#48 = CARTESIAN_POINT ( 'NONE',  ( 0.6165063509461093938, 0.02000000000000000042, 0.000000000000000000 ) ) ;
#49 = CARTESIAN_POINT ( 'NONE',  ( 0.5099999999999997868, 0.02000000000000000042, 0.000000000000000000 ) ) ;
#50 = AXIS2_PLACEMENT_3D ( 'NONE', #541, #178, #131 ) ;
#51 = PRESENTATION_LAYER_ASSIGNMENT (  '', '', ( #313 ) ) ;
#52 = ORIENTED_EDGE ( 'NONE', *, *, #109, .T. ) ;
#53 = AXIS2_PLACEMENT_3D ( 'NONE', #148, #394, #474 ) ;
#54 = CARTESIAN_POINT ( 'NONE',  ( 0.1799999999999999933, -0.03999999999999999389, 0.2500000000000000000 ) ) ;
#55 = EDGE_CURVE ( 'NONE', #103, #21, #95, .T. ) ;
#56 = DIRECTION ( 'NONE',  ( -1.000000000000000000, -1.253141281497368589E-16, 0.000000000000000000 ) ) ;
#57 = ORIENTED_EDGE ( 'NONE', *, *, #210, .T. ) ;
#58 = ORIENTED_EDGE ( 'NONE', *, *, #64, .T. ) ;
#59 = CARTESIAN_POINT ( 'NONE',  ( 0.1399999999999999856, -0.04000000000000000083, 0.2500000000000000000 ) ) ;
#60 = VERTEX_POINT ( 'NONE', #43 ) ;
#61 = DIRECTION ( 'NONE',  ( -0.000000000000000000, -0.000000000000000000, -1.000000000000000000 ) ) ;
#62 = CARTESIAN_POINT ( 'NONE',  ( 0.1399999999999999856, 0.000000000000000000, 0.2500000000000000000 ) ) ;
#63 = ORIENTED_EDGE ( 'NONE', *, *, #228, .T. ) ;
#64 = EDGE_CURVE ( 'NONE', #72, #455, #225, .T. ) ;
#65 = CARTESIAN_POINT ( 'NONE',  ( 0.03349364905389035085, 0.000000000000000000, -3.414809992080329023E-17 ) ) ;
#66 = VECTOR ( 'NONE', #4, 39.37007874015748143 ) ;
#67 =( GEOMETRIC_REPRESENTATION_CONTEXT ( 3 ) GLOBAL_UNCERTAINTY_ASSIGNED_CONTEXT ( ( #85 ) ) GLOBAL_UNIT_ASSIGNED_CONTEXT ( ( #123, #447, #129 ) ) REPRESENTATION_CONTEXT ( 'NONE', 'WORKASPACE' ) );
#68 = DIRECTION ( 'NONE',  ( -0.000000000000000000, -0.000000000000000000, -1.000000000000000000 ) ) ;
#69 = ORIENTED_EDGE ( 'NONE', *, *, #496, .T. ) ;
#70 = CARTESIAN_POINT ( 'NONE',  ( 0.4499999999999999556, -0.5849999999999998535, 0.000000000000000000 ) ) ;
#71 = ADVANCED_FACE ( 'NONE', ( #46 ), #186, .T. ) ;
#72 = VERTEX_POINT ( 'NONE', #29 ) ;
#73 = DIRECTION ( 'NONE',  ( -0.000000000000000000, -0.000000000000000000, -1.000000000000000000 ) ) ;
#74 = ORIENTED_EDGE ( 'NONE', *, *, #508, .F. ) ;
#75 = DIRECTION ( 'NONE',  ( 0.000000000000000000, 1.000000000000000000, 0.000000000000000000 ) ) ;
#76 = ADVANCED_FACE ( 'NONE', ( #213 ), #353, .T. ) ;
#77 = ORIENTED_EDGE ( 'NONE', *, *, #339, .F. ) ;
#78 = PRESENTATION_STYLE_ASSIGNMENT (( #302 ) ) ;
#79 = VERTEX_POINT ( 'NONE', #166 ) ;
#80 = DIRECTION ( 'NONE',  ( -0.000000000000000000, -0.000000000000000000, -1.000000000000000000 ) ) ;
#81 = MANIFOLD_SOLID_BREP ( 'Cut-Extrude2', #175 ) ;
#82 = CARTESIAN_POINT ( 'NONE',  ( 0.5099999999999997868, 0.02000000000000000042, 0.2500000000000000000 ) ) ;
#83 = CIRCLE ( 'NONE', #369, 0.05999999999999997696 ) ;
#84 = ORIENTED_EDGE ( 'NONE', *, *, #428, .T. ) ;
#85 = UNCERTAINTY_MEASURE_WITH_UNIT (LENGTH_MEASURE( 1.000000000000000082E-05 ), #123, 'distance_accuracy_value', 'NONE');
#86 = ADVANCED_FACE ( 'NONE', ( #27 ), #309, .F. ) ;
#87 = AXIS2_PLACEMENT_3D ( 'NONE', #275, #9, #232 ) ;
#88 = DIRECTION ( 'NONE',  ( -0.000000000000000000, 1.000000000000000000, -0.000000000000000000 ) ) ;
#89 = VECTOR ( 'NONE', #181, 39.37007874015748143 ) ;
#90 = ORIENTED_EDGE ( 'NONE', *, *, #412, .T. ) ;
#91 = DIRECTION ( 'NONE',  ( 1.253141281497368589E-16, -1.000000000000000000, 0.000000000000000000 ) ) ;
#92 = LINE ( 'NONE', #310, #389 ) ;
#93 = AXIS2_PLACEMENT_3D ( 'NONE', #209, #483, #488 ) ;
#94 = CARTESIAN_POINT ( 'NONE',  ( 0.5099999999999997868, 0.02000000000000000042, 0.2500000000000000000 ) ) ;
#95 = LINE ( 'NONE', #287, #66 ) ;
#96 = LINE ( 'NONE', #54, #243 ) ;
#97 = CARTESIAN_POINT ( 'NONE',  ( 0.4499999999999998446, -0.03999999999999999389, 0.2500000000000000000 ) ) ;
#98 = DIRECTION ( 'NONE',  ( 0.000000000000000000, -0.000000000000000000, 1.000000000000000000 ) ) ;
#99 = ORIENTED_EDGE ( 'NONE', *, *, #486, .T. ) ;
#100 = DIRECTION ( 'NONE',  ( 0.000000000000000000, 0.000000000000000000, 1.000000000000000000 ) ) ;
#101 = LINE ( 'NONE', #385, #365 ) ;
#102 = CARTESIAN_POINT ( 'NONE',  ( 0.5099999999999997868, -0.04000000000000000083, 0.000000000000000000 ) ) ;
#103 = VERTEX_POINT ( 'NONE', #593 ) ;
#104 = EDGE_CURVE ( 'NONE', #124, #570, #459, .T. ) ;
#105 = CARTESIAN_POINT ( 'NONE',  ( 0.4699999999999999178, -0.04000000000000000777, 0.2500000000000000000 ) ) ;
#106 = DIRECTION ( 'NONE',  ( 0.000000000000000000, 0.000000000000000000, 1.000000000000000000 ) ) ;
#107 = LINE ( 'NONE', #444, #16 ) ;
#108 = ORIENTED_EDGE ( 'NONE', *, *, #496, .F. ) ;
#109 = EDGE_CURVE ( 'NONE', #381, #529, #588, .T. ) ;
#110 =( NAMED_UNIT ( * ) SI_UNIT ( $, .STERADIAN. ) SOLID_ANGLE_UNIT ( ) );
#111 = ADVANCED_FACE ( 'NONE', ( #312 ), #401, .T. ) ;
#112 = DIRECTION ( 'NONE',  ( 1.000000000000000000, -3.124551142754799272E-19, 0.000000000000000000 ) ) ;
#113 = CARTESIAN_POINT ( 'NONE',  ( 0.4499999999999999556, -0.5849999999999999645, 0.000000000000000000 ) ) ;
#114 = DIRECTION ( 'NONE',  ( 0.000000000000000000, 0.000000000000000000, 1.000000000000000000 ) ) ;
#115 = ORIENTED_EDGE ( 'NONE', *, *, #274, .T. ) ;
#116 = ADVANCED_BREP_SHAPE_REPRESENTATION ( '100-0194', ( #81, #602 ), #296 ) ;
#117 = DIRECTION ( 'NONE',  ( 1.000000000000000000, -3.124551142754799272E-19, 0.000000000000000000 ) ) ;
#118 = VECTOR ( 'NONE', #26, 39.37007874015748143 ) ;
#119 = ORIENTED_EDGE ( 'NONE', *, *, #406, .F. ) ;
#120 = LINE ( 'NONE', #146, #260 ) ;
#121 = ORIENTED_EDGE ( 'NONE', *, *, #434, .F. ) ;
#122 = CARTESIAN_POINT ( 'NONE',  ( 0.1999999999999999833, -0.03999999999999999389, 0.2500000000000000000 ) ) ;
#123 =( CONVERSION_BASED_UNIT ( 'INCH', #537 ) LENGTH_UNIT ( ) NAMED_UNIT ( #364 ) );
#124 = VERTEX_POINT ( 'NONE', #198 ) ;
#125 = AXIS2_PLACEMENT_3D ( 'NONE', #215, #142, #100 ) ;
#126 = VERTEX_POINT ( 'NONE', #65 ) ;
#127 = LINE ( 'NONE', #169, #580 ) ;
#128 = VERTEX_POINT ( 'NONE', #70 ) ;
#129 =( NAMED_UNIT ( * ) SI_UNIT ( $, .STERADIAN. ) SOLID_ANGLE_UNIT ( ) );
#130 = VECTOR ( 'NONE', #220, 39.37007874015748143 ) ;
#131 = DIRECTION ( 'NONE',  ( 0.000000000000000000, 0.000000000000000000, -1.000000000000000000 ) ) ;
#132 = AXIS2_PLACEMENT_3D ( 'NONE', #196, #567, #98 ) ;
#133 = ORIENTED_EDGE ( 'NONE', *, *, #416, .T. ) ;
#134 = VECTOR ( 'NONE', #61, 39.37007874015748143 ) ;
#135 = DIRECTION ( 'NONE',  ( 1.000000000000000000, 0.000000000000000000, 0.000000000000000000 ) ) ;
#136 = CARTESIAN_POINT ( 'NONE',  ( 0.03349364905389035779, -0.7300393700787402018, 0.2500000000000000000 ) ) ;
#137 = DIRECTION ( 'NONE',  ( -1.000000000000000000, -1.253141281497368589E-16, 0.000000000000000000 ) ) ;
#138 = VERTEX_POINT ( 'NONE', #578 ) ;
#139 = DIRECTION ( 'NONE',  ( 1.253141281497368343E-16, -1.000000000000000000, 0.000000000000000000 ) ) ;
#140 = PLANE ( 'NONE',  #504 ) ;
#141 = DIRECTION ( 'NONE',  ( -0.000000000000000000, -0.000000000000000000, -1.000000000000000000 ) ) ;
#142 = DIRECTION ( 'NONE',  ( -0.000000000000000000, 1.000000000000000000, -0.000000000000000000 ) ) ;
#143 =( NAMED_UNIT ( * ) PLANE_ANGLE_UNIT ( ) SI_UNIT ( $, .RADIAN. ) );
#144 = DIRECTION ( 'NONE',  ( -0.000000000000000000, 1.000000000000000000, -0.000000000000000000 ) ) ;
#145 = VERTEX_POINT ( 'NONE', #387 ) ;
#146 = CARTESIAN_POINT ( 'NONE',  ( 0.1999999999999999833, -0.03999999999999999389, 0.000000000000000000 ) ) ;
#147 = ORIENTED_EDGE ( 'NONE', *, *, #211, .T. ) ;
#148 = CARTESIAN_POINT ( 'NONE',  ( 0.1399999999999999856, -0.04000000000000000083, 0.000000000000000000 ) ) ;
#149 = EDGE_LOOP ( 'NONE', ( #11, #540, #158, #204 ) ) ;
#150 = EDGE_CURVE ( 'NONE', #577, #346, #288, .T. ) ;
#151 = DIRECTION ( 'NONE',  ( -1.000000000000000000, 0.000000000000000000, 0.000000000000000000 ) ) ;
#152 = VERTEX_POINT ( 'NONE', #208 ) ;
#153 = DIRECTION ( 'NONE',  ( -0.000000000000000000, 1.000000000000000000, -0.000000000000000000 ) ) ;
#154 = ORIENTED_EDGE ( 'NONE', *, *, #388, .T. ) ;
#155 = DIRECTION ( 'NONE',  ( 1.000000000000000000, 0.000000000000000000, -0.000000000000000000 ) ) ;
#156 = AXIS2_PLACEMENT_3D ( 'NONE', #471, #433, #14 ) ;
#157 = COLOUR_RGB ( '',0.7921568627450980005, 0.8196078431372548767, 0.9333333333333333481 ) ;
#158 = ORIENTED_EDGE ( 'NONE', *, *, #20, .T. ) ;
#159 = DIRECTION ( 'NONE',  ( -0.000000000000000000, -0.000000000000000000, -1.000000000000000000 ) ) ;
#160 = EDGE_CURVE ( 'NONE', #282, #381, #301, .T. ) ;
#161 = VECTOR ( 'NONE', #318, 39.37007874015748143 ) ;
#162 = ORIENTED_EDGE ( 'NONE', *, *, #416, .F. ) ;
#163 = ORIENTED_EDGE ( 'NONE', *, *, #207, .F. ) ;
#164 = CARTESIAN_POINT ( 'NONE',  ( 0.3250000000000000111, -0.5850000000000000755, 0.2500000000000000000 ) ) ;
#165 = EDGE_LOOP ( 'NONE', ( #58, #244, #216, #154 ) ) ;
#166 = CARTESIAN_POINT ( 'NONE',  ( 0.5099999999999997868, -4.268512490100411279E-17, 0.2500000000000000000 ) ) ;
#167 = EDGE_CURVE ( 'NONE', #126, #25, #554, .T. ) ;
#168 = ORIENTED_EDGE ( 'NONE', *, *, #406, .T. ) ;
#169 = CARTESIAN_POINT ( 'NONE',  ( 0.000000000000000000, 0.000000000000000000, 0.2500000000000000000 ) ) ;
#170 = EDGE_CURVE ( 'NONE', #311, #31, #526, .T. ) ;
#171 = VERTEX_POINT ( 'NONE', #241 ) ;
#172 = DIRECTION ( 'NONE',  ( -1.000000000000000000, 0.000000000000000000, 0.000000000000000000 ) ) ;
#173 = DIRECTION ( 'NONE',  ( 0.000000000000000000, 0.000000000000000000, 1.000000000000000000 ) ) ;
#174 = ORIENTED_EDGE ( 'NONE', *, *, #269, .T. ) ;
#175 = CLOSED_SHELL ( 'NONE', ( #469, #270, #71, #598, #489, #298, #76, #39, #44, #572, #438, #111, #380, #556, #182, #86, #453, #37 ) ) ;
#176 = CARTESIAN_POINT ( 'NONE',  ( 0.3250000000000000111, -0.5850000000000000755, 0.2500000000000000000 ) ) ;
#177 = VECTOR ( 'NONE', #258, 39.37007874015748143 ) ;
#178 = DIRECTION ( 'NONE',  ( 0.000000000000000000, -1.000000000000000000, 0.000000000000000000 ) ) ;
#179 = CARTESIAN_POINT ( 'NONE',  ( 0.1399999999999999856, -0.04000000000000000083, 0.2500000000000000000 ) ) ;
#180 = CARTESIAN_POINT ( 'NONE',  ( 0.1800000000000000488, -0.5850000000000000755, 0.000000000000000000 ) ) ;
#181 = DIRECTION ( 'NONE',  ( 0.000000000000000000, -1.000000000000000000, 0.000000000000000000 ) ) ;
#182 = ADVANCED_FACE ( 'NONE', ( #203 ), #337, .T. ) ;
#183 = CIRCLE ( 'NONE', #50, 0.2500000000000000000 ) ;
#184 = PRODUCT_CONTEXT ( 'NONE', #579, 'mechanical' ) ;
#185 = AXIS2_PLACEMENT_3D ( 'NONE', #217, #80, #450 ) ;
#186 = CYLINDRICAL_SURFACE ( 'NONE', #185, 0.05999999999999997696 ) ;
#187 = DIRECTION ( 'NONE',  ( 1.000000000000000000, 0.000000000000000000, 0.000000000000000000 ) ) ;
#188 = CIRCLE ( 'NONE', #549, 0.1249999999999999584 ) ;
#189 = CARTESIAN_POINT ( 'NONE',  ( 0.5099999999999997868, -4.268512490100411279E-17, 0.2500000000000000000 ) ) ;
#190 = CARTESIAN_POINT ( 'NONE',  ( 0.6165063509461093938, -1.707404996040164512E-16, 0.2500000000000000000 ) ) ;
#191 = VERTEX_POINT ( 'NONE', #340 ) ;
#192 = CARTESIAN_POINT ( 'NONE',  ( 0.4499999999999999556, -0.5849999999999998535, 0.2500000000000000000 ) ) ;
#193 =( CONVERSION_BASED_UNIT ( 'INCH', #378 ) LENGTH_UNIT ( ) NAMED_UNIT ( #452 ) );
#194 = EDGE_LOOP ( 'NONE', ( #430, #384, #266, #308 ) ) ;
#195 = ORIENTED_EDGE ( 'NONE', *, *, #484, .F. ) ;
#196 = CARTESIAN_POINT ( 'NONE',  ( 0.000000000000000000, 0.000000000000000000, 0.2500000000000000000 ) ) ;
#197 = AXIS2_PLACEMENT_3D ( 'NONE', #507, #512, #432 ) ;
#198 = CARTESIAN_POINT ( 'NONE',  ( 0.4499999999999998446, -0.03999999999999999389, 0.000000000000000000 ) ) ;
#199 = AXIS2_PLACEMENT_3D ( 'NONE', #477, #75, #344 ) ;
#200 = EDGE_LOOP ( 'NONE', ( #449, #163, #562, #52 ) ) ;
#201 = CARTESIAN_POINT ( 'NONE',  ( 0.1399999999999999856, -0.04000000000000000083, 0.2500000000000000000 ) ) ;
#202 = EDGE_LOOP ( 'NONE', ( #119, #425, #290, #383 ) ) ;
#203 = FACE_OUTER_BOUND ( 'NONE', #206, .T. ) ;
#204 = ORIENTED_EDGE ( 'NONE', *, *, #251, .T. ) ;
#205 = DIRECTION ( 'NONE',  ( 3.124551142754798790E-19, 1.000000000000000000, -0.000000000000000000 ) ) ;
#206 = EDGE_LOOP ( 'NONE', ( #115, #108, #349, #121, #473, #28, #257, #195, #133, #84, #480, #99, #23, #396, #174, #464 ) ) ;
#207 = EDGE_CURVE ( 'NONE', #282, #360, #442, .T. ) ;
#208 = CARTESIAN_POINT ( 'NONE',  ( 0.1399999999999999856, 0.02000000000000000042, 0.2500000000000000000 ) ) ;
#209 = CARTESIAN_POINT ( 'NONE',  ( 0.5099999999999997868, -0.04000000000000000083, 0.000000000000000000 ) ) ;
#210 = EDGE_CURVE ( 'NONE', #360, #529, #120, .T. ) ;
#211 = EDGE_CURVE ( 'NONE', #128, #124, #330, .T. ) ;
#212 = ORIENTED_EDGE ( 'NONE', *, *, #486, .F. ) ;
#213 = FACE_OUTER_BOUND ( 'NONE', #8, .T. ) ;
#214 = AXIS2_PLACEMENT_3D ( 'NONE', #448, #590, #497 ) ;
#215 = CARTESIAN_POINT ( 'NONE',  ( 0.2500000000000000000, -0.7300393700787402018, 0.1250000000000000000 ) ) ;
#216 = ORIENTED_EDGE ( 'NONE', *, *, #596, .F. ) ;
#217 = CARTESIAN_POINT ( 'NONE',  ( 0.5099999999999997868, -0.04000000000000000083, 0.2500000000000000000 ) ) ;
#218 = CARTESIAN_POINT ( 'NONE',  ( 0.4699999999999999734, -0.5849999999999999645, 0.2500000000000000000 ) ) ;
#219 = ORIENTED_EDGE ( 'NONE', *, *, #207, .T. ) ;
#220 = DIRECTION ( 'NONE',  ( -0.000000000000000000, -0.000000000000000000, -1.000000000000000000 ) ) ;
#221 = CARTESIAN_POINT ( 'NONE',  ( 0.03349364905389035085, -0.7300393700787402018, -3.414809992080329023E-17 ) ) ;
#222 = AXIS2_PLACEMENT_3D ( 'NONE', #176, #173, #359 ) ;
#223 = AXIS2_PLACEMENT_3D ( 'NONE', #59, #10, #151 ) ;
#224 = DIRECTION ( 'NONE',  ( 1.000000000000000000, 1.253141281497368343E-16, -0.000000000000000000 ) ) ;
#225 = LINE ( 'NONE', #552, #534 ) ;
#226 = DIRECTION ( 'NONE',  ( -0.000000000000000000, -0.000000000000000000, -1.000000000000000000 ) ) ;
#227 = ORIENTED_EDGE ( 'NONE', *, *, #64, .F. ) ;
#228 = EDGE_CURVE ( 'NONE', #441, #360, #5, .T. ) ;
#229 = CARTESIAN_POINT ( 'NONE',  ( 0.4699999999999999178, -0.04000000000000000777, 0.000000000000000000 ) ) ;
#230 = CARTESIAN_POINT ( 'NONE',  ( 0.000000000000000000, 0.02000000000000000042, 0.000000000000000000 ) ) ;
#231 = LINE ( 'NONE', #49, #350 ) ;
#232 = DIRECTION ( 'NONE',  ( -1.000000000000000000, 0.000000000000000000, 0.000000000000000000 ) ) ;
#233 = AXIS2_PLACEMENT_3D ( 'NONE', #179, #356, #548 ) ;
#234 = DIRECTION ( 'NONE',  ( -0.000000000000000000, -0.000000000000000000, -1.000000000000000000 ) ) ;
#235 = EDGE_LOOP ( 'NONE', ( #15, #582, #336, #457 ) ) ;
#236 = CARTESIAN_POINT ( 'NONE',  ( 0.4699999999999999178, -0.04000000000000000777, 0.2500000000000000000 ) ) ;
#237 = PLANE ( 'NONE',  #197 ) ;
#238 = EDGE_CURVE ( 'NONE', #79, #31, #297, .T. ) ;
#239 = CARTESIAN_POINT ( 'NONE',  ( 0.5099999999999997868, -0.04000000000000000083, 0.2500000000000000000 ) ) ;
#240 = ORIENTED_EDGE ( 'NONE', *, *, #484, .T. ) ;
#241 = CARTESIAN_POINT ( 'NONE',  ( 0.1800000000000000488, -0.5850000000000000755, 0.2500000000000000000 ) ) ;
#242 = CARTESIAN_POINT ( 'NONE',  ( 0.000000000000000000, 0.000000000000000000, 0.000000000000000000 ) ) ;
#243 = VECTOR ( 'NONE', #139, 39.37007874015748143 ) ;
#244 = ORIENTED_EDGE ( 'NONE', *, *, #585, .F. ) ;
#245 = DIRECTION ( 'NONE',  ( -0.000000000000000000, -0.000000000000000000, -1.000000000000000000 ) ) ;
#246 = PRODUCT_DEFINITION_CONTEXT ( 'detailed design', #525, 'design' ) ;
#247 = EDGE_LOOP ( 'NONE', ( #300, #399, #522, #509 ) ) ;
#248 = PLANE ( 'NONE',  #524 ) ;
#249 = EDGE_LOOP ( 'NONE', ( #462, #254, #595, #446 ) ) ;
#250 = CARTESIAN_POINT ( 'NONE',  ( 0.5099999999999997868, 0.02000000000000000042, 0.2500000000000000000 ) ) ;
#251 = EDGE_CURVE ( 'NONE', #342, #570, #479, .T. ) ;
#252 = SURFACE_STYLE_FILL_AREA ( #410 ) ;
#253 = AXIS2_PLACEMENT_3D ( 'NONE', #511, #557, #472 ) ;
#254 = ORIENTED_EDGE ( 'NONE', *, *, #603, .F. ) ;
#255 = FILL_AREA_STYLE_COLOUR ( '', #157 ) ;
#256 = DIRECTION ( 'NONE',  ( 1.000000000000000000, 0.000000000000000000, 0.000000000000000000 ) ) ;
#257 = ORIENTED_EDGE ( 'NONE', *, *, #264, .F. ) ;
#258 = DIRECTION ( 'NONE',  ( -0.000000000000000000, -0.000000000000000000, -1.000000000000000000 ) ) ;
#259 = AXIS2_PLACEMENT_3D ( 'NONE', #327, #106, #324 ) ;
#260 = VECTOR ( 'NONE', #22, 39.37007874015748143 ) ;
#261 = CARTESIAN_POINT ( 'NONE',  ( 0.1399999999999999856, 0.02000000000000000042, 0.000000000000000000 ) ) ;
#262 = ORIENTED_EDGE ( 'NONE', *, *, #361, .F. ) ;
#263 = DIRECTION ( 'NONE',  ( 1.000000000000000000, 0.000000000000000000, -0.000000000000000000 ) ) ;
#264 = EDGE_CURVE ( 'NONE', #152, #282, #514, .T. ) ;
#265 = CARTESIAN_POINT ( 'NONE',  ( 0.3250000000000000111, -0.5850000000000000755, 0.2500000000000000000 ) ) ;
#266 = ORIENTED_EDGE ( 'NONE', *, *, #150, .F. ) ;
#267 = FACE_OUTER_BOUND ( 'NONE', #165, .T. ) ;
#268 = FACE_OUTER_BOUND ( 'NONE', #400, .T. ) ;
#269 = EDGE_CURVE ( 'NONE', #542, #79, #436, .T. ) ;
#270 = ADVANCED_FACE ( 'NONE', ( #571 ), #248, .T. ) ;
#271 = AXIS2_PLACEMENT_3D ( 'NONE', #218, #137, #91 ) ;
#272 = LINE ( 'NONE', #94, #589 ) ;
#273 = ORIENTED_EDGE ( 'NONE', *, *, #211, .F. ) ;
#274 = EDGE_CURVE ( 'NONE', #31, #191, #285, .T. ) ;
#275 = CARTESIAN_POINT ( 'NONE',  ( 0.3250000000000000111, -0.5850000000000000755, 0.2500000000000000000 ) ) ;
#276 = FACE_OUTER_BOUND ( 'NONE', #413, .T. ) ;
#277 = DIRECTION ( 'NONE',  ( -0.000000000000000000, -0.000000000000000000, -1.000000000000000000 ) ) ;
#278 = ORIENTED_EDGE ( 'NONE', *, *, #228, .F. ) ;
#279 = CYLINDRICAL_SURFACE ( 'NONE', #87, 0.1249999999999999584 ) ;
#280 = CYLINDRICAL_SURFACE ( 'NONE', #253, 0.03999999999999998002 ) ;
#281 = FACE_OUTER_BOUND ( 'NONE', #194, .T. ) ;
#282 = VERTEX_POINT ( 'NONE', #122 ) ;
#283 = LINE ( 'NONE', #7, #390 ) ;
#284 = DIRECTION ( 'NONE',  ( 1.000000000000000000, 0.000000000000000000, 0.000000000000000000 ) ) ;
#285 = LINE ( 'NONE', #530, #362 ) ;
#286 = LINE ( 'NONE', #189, #355 ) ;
#287 = CARTESIAN_POINT ( 'NONE',  ( 0.1799999999999999933, -0.03999999999999999389, 0.000000000000000000 ) ) ;
#288 = LINE ( 'NONE', #528, #576 ) ;
#289 = DIRECTION ( 'NONE',  ( -0.000000000000000000, -0.000000000000000000, -1.000000000000000000 ) ) ;
#290 = ORIENTED_EDGE ( 'NONE', *, *, #348, .T. ) ;
#291 = EDGE_CURVE ( 'NONE', #581, #311, #107, .T. ) ;
#292 = CIRCLE ( 'NONE', #259, 0.1449999999999999623 ) ;
#293 = DIRECTION ( 'NONE',  ( 0.000000000000000000, 0.000000000000000000, 1.000000000000000000 ) ) ;
#294 = EDGE_CURVE ( 'NONE', #586, #191, #499, .T. ) ;
#295 = ORIENTED_EDGE ( 'NONE', *, *, #1, .F. ) ;
#296 =( GEOMETRIC_REPRESENTATION_CONTEXT ( 3 ) GLOBAL_UNCERTAINTY_ASSIGNED_CONTEXT ( ( #373 ) ) GLOBAL_UNIT_ASSIGNED_CONTEXT ( ( #193, #143, #110 ) ) REPRESENTATION_CONTEXT ( 'NONE', 'WORKASPACE' ) );
#297 = LINE ( 'NONE', #437, #547 ) ;
#298 = ADVANCED_FACE ( 'NONE', ( #34 ), #40, .T. ) ;
#299 = ORIENTED_EDGE ( 'NONE', *, *, #320, .F. ) ;
#300 = ORIENTED_EDGE ( 'NONE', *, *, #291, .T. ) ;
#301 = LINE ( 'NONE', #482, #451 ) ;
#302 = SURFACE_STYLE_USAGE ( .BOTH. , #492 ) ;
#303 = AXIS2_PLACEMENT_3D ( 'NONE', #32, #584, #263 ) ;
#304 = ORIENTED_EDGE ( 'NONE', *, *, #533, .F. ) ;
#305 = DIRECTION ( 'NONE',  ( -0.000000000000000000, -0.000000000000000000, -1.000000000000000000 ) ) ;
#306 = AXIS2_PLACEMENT_3D ( 'NONE', #265, #456, #407 ) ;
#307 = CIRCLE ( 'NONE', #233, 0.04000000000000000083 ) ;
#308 = ORIENTED_EDGE ( 'NONE', *, *, #428, .F. ) ;
#309 = PLANE ( 'NONE',  #303 ) ;
#310 = CARTESIAN_POINT ( 'NONE',  ( 0.4499999999999999556, -0.5849999999999999645, 0.2500000000000000000 ) ) ;
#311 = VERTEX_POINT ( 'NONE', #544 ) ;
#312 = FACE_OUTER_BOUND ( 'NONE', #35, .T. ) ;
#313 = STYLED_ITEM ( 'NONE', ( #78 ), #81 ) ;
#314 = VECTOR ( 'NONE', #568, 39.37007874015748143 ) ;
#315 = LINE ( 'NONE', #221, #395 ) ;
#316 = ORIENTED_EDGE ( 'NONE', *, *, #539, .F. ) ;
#317 = CARTESIAN_POINT ( 'NONE',  ( 0.1399999999999999856, -0.04000000000000000083, 0.000000000000000000 ) ) ;
#318 = DIRECTION ( 'NONE',  ( 0.000000000000000000, -1.000000000000000000, 0.000000000000000000 ) ) ;
#319 = CARTESIAN_POINT ( 'NONE',  ( 0.1799999999999999933, -0.03999999999999999389, 0.2500000000000000000 ) ) ;
#320 = EDGE_CURVE ( 'NONE', #60, #478, #183, .T. ) ;
#321 = CARTESIAN_POINT ( 'NONE',  ( 0.03349364905389034391, 0.000000000000000000, 0.2500000000000000000 ) ) ;
#322 = AXIS2_PLACEMENT_3D ( 'NONE', #239, #73, #563 ) ;
#323 = DIRECTION ( 'NONE',  ( 3.124551142754798790E-19, 1.000000000000000000, -0.000000000000000000 ) ) ;
#324 = DIRECTION ( 'NONE',  ( 1.000000000000000000, 0.000000000000000000, 0.000000000000000000 ) ) ;
#325 = DIRECTION ( 'NONE',  ( -1.000000000000000000, 3.124551142754798790E-19, 0.000000000000000000 ) ) ;
#326 = DIRECTION ( 'NONE',  ( 1.000000000000000000, 0.000000000000000000, 0.000000000000000000 ) ) ;
#327 = CARTESIAN_POINT ( 'NONE',  ( 0.3250000000000000111, -0.5850000000000000755, 0.000000000000000000 ) ) ;
#328 = EDGE_CURVE ( 'NONE', #126, #478, #315, .T. ) ;
#329 = ORIENTED_EDGE ( 'NONE', *, *, #388, .F. ) ;
#330 = LINE ( 'NONE', #113, #314 ) ;
#331 = VECTOR ( 'NONE', #36, 39.37007874015748143 ) ;
#332 = LINE ( 'NONE', #236, #376 ) ;
#333 = CARTESIAN_POINT ( 'NONE',  ( 0.3999999999999997446, -0.2799999999999999711, 0.1250000000000000000 ) ) ;
#334 = CARTESIAN_POINT ( 'NONE',  ( 0.3999999999999997446, 0.000000000000000000, 0.1250000000000000000 ) ) ;
#335 = APPLICATION_PROTOCOL_DEFINITION ( 'draft international standard', 'automotive_design', 1998, #579 ) ;
#336 = ORIENTED_EDGE ( 'NONE', *, *, #274, .F. ) ;
#337 = PLANE ( 'NONE',  #536 ) ;
#338 = EDGE_LOOP ( 'NONE', ( #519, #162, #485, #408 ) ) ;
#339 = EDGE_CURVE ( 'NONE', #152, #441, #415, .T. ) ;
#340 = CARTESIAN_POINT ( 'NONE',  ( 0.6165063509461093938, 0.02000000000000000042, 0.2500000000000000000 ) ) ;
#341 = SHAPE_DEFINITION_REPRESENTATION ( #398, #116 ) ;
#342 = VERTEX_POINT ( 'NONE', #82 ) ;
#343 = VECTOR ( 'NONE', #226, 39.37007874015748143 ) ;
#344 = DIRECTION ( 'NONE',  ( 0.000000000000000000, 0.000000000000000000, 1.000000000000000000 ) ) ;
#345 = ORIENTED_EDGE ( 'NONE', *, *, #150, .T. ) ;
#346 = VERTEX_POINT ( 'NONE', #594 ) ;
#347 = DIRECTION ( 'NONE',  ( -0.000000000000000000, -0.000000000000000000, -1.000000000000000000 ) ) ;
#348 = EDGE_CURVE ( 'NONE', #381, #138, #409, .T. ) ;
#349 = ORIENTED_EDGE ( 'NONE', *, *, #20, .F. ) ;
#350 = VECTOR ( 'NONE', #112, 39.37007874015748143 ) ;
#351 = AXIS2_PLACEMENT_3D ( 'NONE', #201, #159, #392 ) ;
#352 = ORIENTED_EDGE ( 'NONE', *, *, #104, .T. ) ;
#353 = CYLINDRICAL_SURFACE ( 'NONE', #575, 0.05999999999999999084 ) ;
#354 = VECTOR ( 'NONE', #187, 39.37007874015748143 ) ;
#355 = VECTOR ( 'NONE', #234, 39.37007874015748143 ) ;
#356 = DIRECTION ( 'NONE',  ( -0.000000000000000000, -0.000000000000000000, -1.000000000000000000 ) ) ;
#357 = ORIENTED_EDGE ( 'NONE', *, *, #339, .T. ) ;
#358 =( LENGTH_UNIT ( ) NAMED_UNIT ( * ) SI_UNIT ( $, .METRE. ) );
#359 = DIRECTION ( 'NONE',  ( 1.000000000000000000, 0.000000000000000000, 0.000000000000000000 ) ) ;
#360 = VERTEX_POINT ( 'NONE', #38 ) ;
#361 = EDGE_CURVE ( 'NONE', #171, #443, #601, .T. ) ;
#362 = VECTOR ( 'NONE', #153, 39.37007874015748143 ) ;
#363 = CARTESIAN_POINT ( 'NONE',  ( 0.1399999999999999856, 0.02000000000000000042, 0.2500000000000000000 ) ) ;
#364 = DIMENSIONAL_EXPONENTS ( 1.000000000000000000, 0.000000000000000000, 0.000000000000000000, 0.000000000000000000, 0.000000000000000000, 0.000000000000000000, 0.000000000000000000 ) ;
#365 = VECTOR ( 'NONE', #68, 39.37007874015748143 ) ;
#366 = DIRECTION ( 'NONE',  ( -0.000000000000000000, -0.000000000000000000, -1.000000000000000000 ) ) ;
#367 = DIRECTION ( 'NONE',  ( -1.253141281497368343E-16, 1.000000000000000000, 0.000000000000000000 ) ) ;
#368 = DIRECTION ( 'NONE',  ( -1.000000000000000000, 0.000000000000000000, 0.000000000000000000 ) ) ;
#369 = AXIS2_PLACEMENT_3D ( 'NONE', #605, #277, #284 ) ;
#370 = CARTESIAN_POINT ( 'NONE',  ( 0.2000000000000000389, -0.5850000000000000755, 0.000000000000000000 ) ) ;
#371 = AXIS2_PLACEMENT_3D ( 'NONE', #334, #574, #523 ) ;
#372 = APPLICATION_PROTOCOL_DEFINITION ( 'draft international standard', 'automotive_design', 1998, #525 ) ;
#373 = UNCERTAINTY_MEASURE_WITH_UNIT (LENGTH_MEASURE( 1.000000000000000082E-05 ), #193, 'distance_accuracy_value', 'NONE');
#374 = ORIENTED_EDGE ( 'NONE', *, *, #1, .T. ) ;
#375 = VECTOR ( 'NONE', #498, 39.37007874015748143 ) ;
#376 = VECTOR ( 'NONE', #289, 39.37007874015748143 ) ;
#377 = FACE_OUTER_BOUND ( 'NONE', #202, .T. ) ;
#378 = LENGTH_MEASURE_WITH_UNIT ( LENGTH_MEASURE( 0.02539999999999999897 ), #506 );
#379 = CYLINDRICAL_SURFACE ( 'NONE', #553, 0.2499999999999999722 ) ;
#380 = ADVANCED_FACE ( 'NONE', ( #267 ), #30, .F. ) ;
#381 = VERTEX_POINT ( 'NONE', #600 ) ;
#382 = CARTESIAN_POINT ( 'NONE',  ( 0.5099999999999997868, -4.268512490100411279E-17, 0.000000000000000000 ) ) ;
#383 = ORIENTED_EDGE ( 'NONE', *, *, #508, .T. ) ;
#384 = ORIENTED_EDGE ( 'NONE', *, *, #533, .T. ) ;
#385 = CARTESIAN_POINT ( 'NONE',  ( 0.4499999999999998446, -0.03999999999999999389, 0.2500000000000000000 ) ) ;
#386 = FACE_OUTER_BOUND ( 'NONE', #235, .T. ) ;
#387 = CARTESIAN_POINT ( 'NONE',  ( 0.1799999999999999933, -0.03999999999999999389, 0.2500000000000000000 ) ) ;
#388 = EDGE_CURVE ( 'NONE', #443, #72, #493, .T. ) ;
#389 = VECTOR ( 'NONE', #490, 39.37007874015748143 ) ;
#390 = VECTOR ( 'NONE', #467, 39.37007874015748143 ) ;
#391 = EDGE_LOOP ( 'NONE', ( #527, #295, #403, #69 ) ) ;
#392 = DIRECTION ( 'NONE',  ( 1.000000000000000000, -8.537024980200823790E-16, 0.000000000000000000 ) ) ;
#393 = ORIENTED_EDGE ( 'NONE', *, *, #412, .F. ) ;
#394 = DIRECTION ( 'NONE',  ( -0.000000000000000000, -0.000000000000000000, -1.000000000000000000 ) ) ;
#395 = VECTOR ( 'NONE', #88, 39.37007874015748143 ) ;
#396 = ORIENTED_EDGE ( 'NONE', *, *, #596, .T. ) ;
#397 = DIRECTION ( 'NONE',  ( -1.000000000000000000, 3.124551142754798790E-19, 0.000000000000000000 ) ) ;
#398 = PRODUCT_DEFINITION_SHAPE ( 'NONE', 'NONE',  #546 ) ;
#399 = ORIENTED_EDGE ( 'NONE', *, *, #170, .T. ) ;
#400 = EDGE_LOOP ( 'NONE', ( #468, #516, #212, #545 ) ) ;
#401 = CYLINDRICAL_SURFACE ( 'NONE', #587, 0.1449999999999999623 ) ;
#402 = EDGE_CURVE ( 'NONE', #577, #145, #307, .T. ) ;
#403 = ORIENTED_EDGE ( 'NONE', *, *, #251, .F. ) ;
#404 = CARTESIAN_POINT ( 'NONE',  ( 0.1399999999999999856, -0.04000000000000000083, 0.2500000000000000000 ) ) ;
#405 = EDGE_LOOP ( 'NONE', ( #374, #491, #17, #573, #227, #439, #564, #393, #304, #535, #445, #63, #57, #168, #147, #352 ) ) ;
#406 = EDGE_CURVE ( 'NONE', #529, #128, #188, .T. ) ;
#407 = DIRECTION ( 'NONE',  ( 1.000000000000000000, 0.000000000000000000, 0.000000000000000000 ) ) ;
#408 = ORIENTED_EDGE ( 'NONE', *, *, #328, .F. ) ;
#409 = CIRCLE ( 'NONE', #306, 0.1249999999999999584 ) ;
#410 = FILL_AREA_STYLE ('',( #255 ) ) ;
#411 = PLANE ( 'NONE',  #538 ) ;
#412 = EDGE_CURVE ( 'NONE', #346, #103, #42, .T. ) ;
#413 = EDGE_LOOP ( 'NONE', ( #90, #465, #592, #345 ) ) ;
#414 = DIRECTION ( 'NONE',  ( 0.000000000000000000, 0.000000000000000000, 1.000000000000000000 ) ) ;
#415 = LINE ( 'NONE', #363, #130 ) ;
#416 = EDGE_CURVE ( 'NONE', #60, #25, #550, .T. ) ;
#417 = VECTOR ( 'NONE', #326, 39.37007874015748143 ) ;
#418 = CARTESIAN_POINT ( 'NONE',  ( 0.4699999999999999734, -0.5849999999999998535, 0.2500000000000000000 ) ) ;
#419 = ORIENTED_EDGE ( 'NONE', *, *, #502, .T. ) ;
#420 = LINE ( 'NONE', #2, #89 ) ;
#421 = ORIENTED_EDGE ( 'NONE', *, *, #434, .T. ) ;
#422 = FACE_OUTER_BOUND ( 'NONE', #247, .T. ) ;
#423 = EDGE_CURVE ( 'NONE', #145, #103, #454, .T. ) ;
#424 = CARTESIAN_POINT ( 'NONE',  ( 0.5099999999999997868, 0.02000000000000000042, 0.000000000000000000 ) ) ;
#425 = ORIENTED_EDGE ( 'NONE', *, *, #109, .F. ) ;
#426 = VECTOR ( 'NONE', #3, 39.37007874015748143 ) ;
#427 = LINE ( 'NONE', #192, #343 ) ;
#428 = EDGE_CURVE ( 'NONE', #25, #577, #127, .T. ) ;
#429 = FACE_OUTER_BOUND ( 'NONE', #249, .T. ) ;
#430 = ORIENTED_EDGE ( 'NONE', *, *, #167, .F. ) ;
#431 = CARTESIAN_POINT ( 'NONE',  ( 0.4499999999999999556, -0.5849999999999999645, 0.2500000000000000000 ) ) ;
#432 = DIRECTION ( 'NONE',  ( 0.000000000000000000, -0.000000000000000000, 1.000000000000000000 ) ) ;
#433 = DIRECTION ( 'NONE',  ( -0.000000000000000000, -1.000000000000000000, -0.000000000000000000 ) ) ;
#434 = EDGE_CURVE ( 'NONE', #138, #583, #92, .T. ) ;
#435 = ORIENTED_EDGE ( 'NONE', *, *, #264, .T. ) ;
#436 = CIRCLE ( 'NONE', #322, 0.03999999999999998002 ) ;
#437 = CARTESIAN_POINT ( 'NONE',  ( 0.5099999999999997868, 0.000000000000000000, 0.2500000000000000000 ) ) ;
#438 = ADVANCED_FACE ( 'NONE', ( #268 ), #411, .F. ) ;
#439 = ORIENTED_EDGE ( 'NONE', *, *, #12, .F. ) ;
#440 = CARTESIAN_POINT ( 'NONE',  ( 0.5099999999999997868, -0.04000000000000000083, 0.2500000000000000000 ) ) ;
#441 = VERTEX_POINT ( 'NONE', #261 ) ;
#442 = LINE ( 'NONE', #520, #118 ) ;
#443 = VERTEX_POINT ( 'NONE', #418 ) ;
#444 = CARTESIAN_POINT ( 'NONE',  ( 0.5099999999999997868, 0.000000000000000000, 0.000000000000000000 ) ) ;
#445 = ORIENTED_EDGE ( 'NONE', *, *, #539, .T. ) ;
#446 = ORIENTED_EDGE ( 'NONE', *, *, #585, .T. ) ;
#447 =( NAMED_UNIT ( * ) PLANE_ANGLE_UNIT ( ) SI_UNIT ( $, .RADIAN. ) );
#448 = CARTESIAN_POINT ( 'NONE',  ( 0.1999999999999999833, -0.03999999999999999389, 0.2500000000000000000 ) ) ;
#449 = ORIENTED_EDGE ( 'NONE', *, *, #210, .F. ) ;
#450 = DIRECTION ( 'NONE',  ( -1.000000000000000000, 0.000000000000000000, 0.000000000000000000 ) ) ;
#451 = VECTOR ( 'NONE', #24, 39.37007874015748143 ) ;
#452 = DIMENSIONAL_EXPONENTS ( 1.000000000000000000, 0.000000000000000000, 0.000000000000000000, 0.000000000000000000, 0.000000000000000000, 0.000000000000000000, 0.000000000000000000 ) ;
#453 = ADVANCED_FACE ( 'NONE', ( #604 ), #551, .T. ) ;
#454 = LINE ( 'NONE', #501, #375 ) ;
#455 = VERTEX_POINT ( 'NONE', #229 ) ;
#456 = DIRECTION ( 'NONE',  ( 0.000000000000000000, 0.000000000000000000, 1.000000000000000000 ) ) ;
#457 = ORIENTED_EDGE ( 'NONE', *, *, #170, .F. ) ;
#458 = CARTESIAN_POINT ( 'NONE',  ( 0.4699999999999999734, -0.5849999999999998535, 0.2500000000000000000 ) ) ;
#459 = CIRCLE ( 'NONE', #93, 0.05999999999999997696 ) ;
#460 = DIRECTION ( 'NONE',  ( -1.000000000000000000, 0.000000000000000000, 0.000000000000000000 ) ) ;
#461 = LINE ( 'NONE', #45, #495 ) ;
#462 = ORIENTED_EDGE ( 'NONE', *, *, #33, .T. ) ;
#463 = PLANE ( 'NONE',  #19 ) ;
#464 = ORIENTED_EDGE ( 'NONE', *, *, #238, .T. ) ;
#465 = ORIENTED_EDGE ( 'NONE', *, *, #423, .F. ) ;
#466 = DIRECTION ( 'NONE',  ( -0.000000000000000000, -0.000000000000000000, -1.000000000000000000 ) ) ;
#467 = DIRECTION ( 'NONE',  ( -1.253141281497368589E-16, 1.000000000000000000, 0.000000000000000000 ) ) ;
#468 = ORIENTED_EDGE ( 'NONE', *, *, #55, .T. ) ;
#469 = ADVANCED_FACE ( 'NONE', ( #422 ), #463, .F. ) ;
#470 = DIRECTION ( 'NONE',  ( 0.000000000000000000, 0.000000000000000000, 1.000000000000000000 ) ) ;
#471 = CARTESIAN_POINT ( 'NONE',  ( 0.3999999999999997446, 0.02000000000000000042, 0.1250000000000000000 ) ) ;
#472 = DIRECTION ( 'NONE',  ( -1.000000000000000000, 0.000000000000000000, 0.000000000000000000 ) ) ;
#473 = ORIENTED_EDGE ( 'NONE', *, *, #348, .F. ) ;
#474 = DIRECTION ( 'NONE',  ( 1.000000000000000000, -8.537024980200823790E-16, 0.000000000000000000 ) ) ;
#475 = DIRECTION ( 'NONE',  ( 1.000000000000000000, 0.000000000000000000, 0.000000000000000000 ) ) ;
#476 = ORIENTED_EDGE ( 'NONE', *, *, #12, .T. ) ;
#477 = CARTESIAN_POINT ( 'NONE',  ( 0.2500000000000000000, 0.000000000000000000, 0.1250000000000000000 ) ) ;
#478 = VERTEX_POINT ( 'NONE', #505 ) ;
#479 = LINE ( 'NONE', #18, #134 ) ;
#480 = ORIENTED_EDGE ( 'NONE', *, *, #402, .T. ) ;
#481 = PRODUCT ( '100-0194', '100-0194', '', ( #184 ) ) ;
#482 = CARTESIAN_POINT ( 'NONE',  ( 0.1999999999999999833, -0.03999999999999999389, 0.2500000000000000000 ) ) ;
#483 = DIRECTION ( 'NONE',  ( -0.000000000000000000, -0.000000000000000000, -1.000000000000000000 ) ) ;
#484 = EDGE_CURVE ( 'NONE', #60, #152, #559, .T. ) ;
#485 = ORIENTED_EDGE ( 'NONE', *, *, #320, .T. ) ;
#486 = EDGE_CURVE ( 'NONE', #145, #171, #96, .T. ) ;
#487 = EDGE_LOOP ( 'NONE', ( #316, #299, #240, #357 ) ) ;
#488 = DIRECTION ( 'NONE',  ( 1.000000000000000000, 0.000000000000000000, 0.000000000000000000 ) ) ;
#489 = ADVANCED_FACE ( 'NONE', ( #377 ), #279, .F. ) ;
#490 = DIRECTION ( 'NONE',  ( -1.253141281497368589E-16, 1.000000000000000000, 0.000000000000000000 ) ) ;
#491 = ORIENTED_EDGE ( 'NONE', *, *, #518, .T. ) ;
#492 = SURFACE_SIDE_STYLE ('',( #252 ) ) ;
#493 = LINE ( 'NONE', #458, #331 ) ;
#494 = ORIENTED_EDGE ( 'NONE', *, *, #565, .T. ) ;
#495 = VECTOR ( 'NONE', #466, 39.37007874015748143 ) ;
#496 = EDGE_CURVE ( 'NONE', #342, #191, #272, .T. ) ;
#497 = DIRECTION ( 'NONE',  ( -1.253141281497368343E-16, 1.000000000000000000, 0.000000000000000000 ) ) ;
#498 = DIRECTION ( 'NONE',  ( -0.000000000000000000, -0.000000000000000000, -1.000000000000000000 ) ) ;
#499 = CIRCLE ( 'NONE', #156, 0.2499999999999999722 ) ;
#500 = CIRCLE ( 'NONE', #513, 0.03999999999999998002 ) ;
#501 = CARTESIAN_POINT ( 'NONE',  ( 0.1799999999999999933, -0.03999999999999999389, 0.2500000000000000000 ) ) ;
#502 = EDGE_CURVE ( 'NONE', #171, #21, #461, .T. ) ;
#503 = DIRECTION ( 'NONE',  ( -1.253141281497368589E-16, 1.000000000000000000, 0.000000000000000000 ) ) ;
#504 = AXIS2_PLACEMENT_3D ( 'NONE', #431, #56, #561 ) ;
#505 = CARTESIAN_POINT ( 'NONE',  ( 0.03349364905389035085, 0.02000000000000000042, -3.414809992080329023E-17 ) ) ;
#506 =( LENGTH_UNIT ( ) NAMED_UNIT ( * ) SI_UNIT ( $, .METRE. ) );
#507 = CARTESIAN_POINT ( 'NONE',  ( 0.000000000000000000, 0.02000000000000000042, 0.2500000000000000000 ) ) ;
#508 = EDGE_CURVE ( 'NONE', #138, #128, #427, .T. ) ;
#509 = ORIENTED_EDGE ( 'NONE', *, *, #603, .T. ) ;
#510 = CARTESIAN_POINT ( 'NONE',  ( 0.000000000000000000, 0.02000000000000000042, 0.2500000000000000000 ) ) ;
#511 = CARTESIAN_POINT ( 'NONE',  ( 0.5099999999999997868, -0.04000000000000000083, 0.2500000000000000000 ) ) ;
#512 = DIRECTION ( 'NONE',  ( 0.000000000000000000, 1.000000000000000000, 0.000000000000000000 ) ) ;
#513 = AXIS2_PLACEMENT_3D ( 'NONE', #102, #141, #368 ) ;
#514 = CIRCLE ( 'NONE', #351, 0.05999999999999999084 ) ;
#515 = LINE ( 'NONE', #230, #417 ) ;
#516 = ORIENTED_EDGE ( 'NONE', *, *, #502, .F. ) ;
#517 = DIRECTION ( 'NONE',  ( 1.000000000000000000, -3.124551142754799272E-19, 0.000000000000000000 ) ) ;
#518 = EDGE_CURVE ( 'NONE', #586, #311, #420, .T. ) ;
#519 = ORIENTED_EDGE ( 'NONE', *, *, #167, .T. ) ;
#520 = CARTESIAN_POINT ( 'NONE',  ( 0.1999999999999999833, -0.03999999999999999389, 0.2500000000000000000 ) ) ;
#521 = CYLINDRICAL_SURFACE ( 'NONE', #223, 0.04000000000000000083 ) ;
#522 = ORIENTED_EDGE ( 'NONE', *, *, #238, .F. ) ;
#523 = DIRECTION ( 'NONE',  ( -1.000000000000000000, 3.124551142754798790E-19, 0.000000000000000000 ) ) ;
#524 = AXIS2_PLACEMENT_3D ( 'NONE', #250, #205, #397 ) ;
#525 = APPLICATION_CONTEXT ( 'automotive_design' ) ;
#526 = CIRCLE ( 'NONE', #371, 0.2499999999999999167 ) ;
#527 = ORIENTED_EDGE ( 'NONE', *, *, #294, .F. ) ;
#528 = CARTESIAN_POINT ( 'NONE',  ( 0.1399999999999999856, 0.000000000000000000, 0.2500000000000000000 ) ) ;
#529 = VERTEX_POINT ( 'NONE', #370 ) ;
#530 = CARTESIAN_POINT ( 'NONE',  ( 0.6165063509461093938, -0.2799999999999999711, 0.2500000000000000000 ) ) ;
#531 = PRODUCT_RELATED_PRODUCT_CATEGORY ( 'part', '', ( #481 ) ) ;
#532 = DIRECTION ( 'NONE',  ( -1.000000000000000000, 0.000000000000000000, 0.000000000000000000 ) ) ;
#533 = EDGE_CURVE ( 'NONE', #126, #346, #555, .T. ) ;
#534 = VECTOR ( 'NONE', #503, 39.37007874015748143 ) ;
#535 = ORIENTED_EDGE ( 'NONE', *, *, #328, .T. ) ;
#536 = AXIS2_PLACEMENT_3D ( 'NONE', #440, #293, #155 ) ;
#537 = LENGTH_MEASURE_WITH_UNIT ( LENGTH_MEASURE( 0.02539999999999999897 ), #358 );
#538 = AXIS2_PLACEMENT_3D ( 'NONE', #319, #224, #367 ) ;
#539 = EDGE_CURVE ( 'NONE', #478, #441, #515, .T. ) ;
#540 = ORIENTED_EDGE ( 'NONE', *, *, #565, .F. ) ;
#541 = CARTESIAN_POINT ( 'NONE',  ( 0.2500000000000000000, 0.02000000000000000042, 0.1250000000000000000 ) ) ;
#542 = VERTEX_POINT ( 'NONE', #105 ) ;
#543 = CARTESIAN_POINT ( 'NONE',  ( 0.2000000000000000389, -0.5850000000000000755, 0.2500000000000000000 ) ) ;
#544 = CARTESIAN_POINT ( 'NONE',  ( 0.6165063509461093938, -3.327845405593101820E-20, 0.000000000000000000 ) ) ;
#545 = ORIENTED_EDGE ( 'NONE', *, *, #423, .T. ) ;
#546 = PRODUCT_DEFINITION ( 'UNKNOWN', '', #591, #246 ) ;
#547 = VECTOR ( 'NONE', #117, 39.37007874015748143 ) ;
#548 = DIRECTION ( 'NONE',  ( -1.000000000000000000, 0.000000000000000000, 0.000000000000000000 ) ) ;
#549 = AXIS2_PLACEMENT_3D ( 'NONE', #597, #414, #135 ) ;
#550 = LINE ( 'NONE', #136, #161 ) ;
#551 = CYLINDRICAL_SURFACE ( 'NONE', #125, 0.2499999999999999722 ) ;
#552 = CARTESIAN_POINT ( 'NONE',  ( 0.4699999999999999734, -0.5849999999999999645, 0.000000000000000000 ) ) ;
#553 = AXIS2_PLACEMENT_3D ( 'NONE', #333, #144, #470 ) ;
#554 = CIRCLE ( 'NONE', #199, 0.2499999999999999722 ) ;
#555 = LINE ( 'NONE', #242, #426 ) ;
#556 = ADVANCED_FACE ( 'NONE', ( #429 ), #280, .F. ) ;
#557 = DIRECTION ( 'NONE',  ( -0.000000000000000000, -0.000000000000000000, -1.000000000000000000 ) ) ;
#558 = FACE_OUTER_BOUND ( 'NONE', #487, .T. ) ;
#559 = LINE ( 'NONE', #510, #354 ) ;
#560 = EDGE_LOOP ( 'NONE', ( #273, #74, #421, #494 ) ) ;
#561 = DIRECTION ( 'NONE',  ( 1.253141281497368589E-16, -1.000000000000000000, 0.000000000000000000 ) ) ;
#562 = ORIENTED_EDGE ( 'NONE', *, *, #160, .T. ) ;
#563 = DIRECTION ( 'NONE',  ( -1.000000000000000000, 0.000000000000000000, 0.000000000000000000 ) ) ;
#564 = ORIENTED_EDGE ( 'NONE', *, *, #55, .F. ) ;
#565 = EDGE_CURVE ( 'NONE', #583, #124, #101, .T. ) ;
#566 = FACE_OUTER_BOUND ( 'NONE', #560, .T. ) ;
#567 = DIRECTION ( 'NONE',  ( 0.000000000000000000, 1.000000000000000000, 0.000000000000000000 ) ) ;
#568 = DIRECTION ( 'NONE',  ( -1.253141281497368589E-16, 1.000000000000000000, 0.000000000000000000 ) ) ;
#569 = CARTESIAN_POINT ( 'NONE',  ( 0.000000000000000000, 0.000000000000000000, 0.000000000000000000 ) ) ;
#570 = VERTEX_POINT ( 'NONE', #424 ) ;
#571 = FACE_OUTER_BOUND ( 'NONE', #391, .T. ) ;
#572 = ADVANCED_FACE ( 'NONE', ( #276 ), #521, .F. ) ;
#573 = ORIENTED_EDGE ( 'NONE', *, *, #33, .F. ) ;
#574 = DIRECTION ( 'NONE',  ( -3.124551142754798790E-19, -1.000000000000000000, 0.000000000000000000 ) ) ;
#575 = AXIS2_PLACEMENT_3D ( 'NONE', #404, #305, #172 ) ;
#576 = VECTOR ( 'NONE', #245, 39.37007874015748143 ) ;
#577 = VERTEX_POINT ( 'NONE', #62 ) ;
#578 = CARTESIAN_POINT ( 'NONE',  ( 0.4499999999999999556, -0.5849999999999998535, 0.2500000000000000000 ) ) ;
#579 = APPLICATION_CONTEXT ( 'automotive_design' ) ;
#580 = VECTOR ( 'NONE', #256, 39.37007874015748143 ) ;
#581 = VERTEX_POINT ( 'NONE', #382 ) ;
#582 = ORIENTED_EDGE ( 'NONE', *, *, #294, .T. ) ;
#583 = VERTEX_POINT ( 'NONE', #97 ) ;
#584 = DIRECTION ( 'NONE',  ( 0.000000000000000000, 0.000000000000000000, 1.000000000000000000 ) ) ;
#585 = EDGE_CURVE ( 'NONE', #542, #455, #332, .T. ) ;
#586 = VERTEX_POINT ( 'NONE', #48 ) ;
#587 = AXIS2_PLACEMENT_3D ( 'NONE', #164, #347, #532 ) ;
#588 = LINE ( 'NONE', #543, #177 ) ;
#589 = VECTOR ( 'NONE', #47, 39.37007874015748143 ) ;
#590 = DIRECTION ( 'NONE',  ( 1.000000000000000000, 1.253141281497368343E-16, -0.000000000000000000 ) ) ;
#591 = PRODUCT_DEFINITION_FORMATION_WITH_SPECIFIED_SOURCE ( 'ANY', '', #481, .NOT_KNOWN. ) ;
#592 = ORIENTED_EDGE ( 'NONE', *, *, #402, .F. ) ;
#593 = CARTESIAN_POINT ( 'NONE',  ( 0.1799999999999999933, -0.03999999999999999389, 0.000000000000000000 ) ) ;
#594 = CARTESIAN_POINT ( 'NONE',  ( 0.1399999999999999856, 0.000000000000000000, 0.000000000000000000 ) ) ;
#595 = ORIENTED_EDGE ( 'NONE', *, *, #269, .F. ) ;
#596 = EDGE_CURVE ( 'NONE', #443, #542, #283, .T. ) ;
#597 = CARTESIAN_POINT ( 'NONE',  ( 0.3250000000000000111, -0.5850000000000000755, 0.000000000000000000 ) ) ;
#598 = ADVANCED_FACE ( 'NONE', ( #566 ), #140, .T. ) ;
#599 = MECHANICAL_DESIGN_GEOMETRIC_PRESENTATION_REPRESENTATION (  '', ( #313 ), #67 ) ;
#600 = CARTESIAN_POINT ( 'NONE',  ( 0.2000000000000000389, -0.5850000000000000755, 0.2500000000000000000 ) ) ;
#601 = CIRCLE ( 'NONE', #222, 0.1449999999999999623 ) ;
#602 = AXIS2_PLACEMENT_3D ( 'NONE', #569, #114, #475 ) ;
#603 = EDGE_CURVE ( 'NONE', #79, #581, #286, .T. ) ;
#604 = FACE_OUTER_BOUND ( 'NONE', #338, .T. ) ;
#605 = CARTESIAN_POINT ( 'NONE',  ( 0.5099999999999997868, -0.04000000000000000083, 0.2500000000000000000 ) ) ;
ENDSEC;
END-ISO-10303-21;
