ISO-10303-21;
HEADER;
FILE_DESCRIPTION (( 'STEP AP214' ),
    '1' );
FILE_NAME ('423-0293.STEP',
    '2026-03-06T17:32:21',
    ( '' ),
    ( '' ),
    'SwSTEP 2.0',
    'SolidWorks 2025',
    '' );
FILE_SCHEMA (( 'AUTOMOTIVE_DESIGN' ));
ENDSEC;

DATA;
#1 = DIRECTION ( 'NONE',  ( 0.000000000000000000, 0.000000000000000000, 1.000000000000000000 ) ) ;
#2 = CARTESIAN_POINT ( 'NONE',  ( 0.000000000000000000, 0.000000000000000000, 0.2500000000000000000 ) ) ;
#3 = VERTEX_POINT ( 'NONE', #626 ) ;
#4 = CARTESIAN_POINT ( 'NONE',  ( -0.3810068269364012550, 0.1226351822333073271, 0.2500000000000000000 ) ) ;
#5 = EDGE_CURVE ( 'NONE', #52, #947, #279, .T. ) ;
#6 = CARTESIAN_POINT ( 'NONE',  ( -0.6380414239564231593, 1.349999999999999423, 0.1350000000000002032 ) ) ;
#7 = FACE_OUTER_BOUND ( 'NONE', #906, .T. ) ;
#8 = ORIENTED_EDGE ( 'NONE', *, *, #772, .F. ) ;
#9 = DIRECTION ( 'NONE',  ( 0.1736481776669284438, 0.9848077530122083534, 0.000000000000000000 ) ) ;
#10 = EDGE_CURVE ( 'NONE', #947, #265, #130, .T. ) ;
#11 = ORIENTED_EDGE ( 'NONE', *, *, #191, .F. ) ;
#12 = CARTESIAN_POINT ( 'NONE',  ( -0.5986491138359348874, 1.356945927106676830, 0.1350000000000001477 ) ) ;
#13 = VECTOR ( 'NONE', #1080, 39.37007874015748854 ) ;
#14 = DIRECTION ( 'NONE',  ( -0.000000000000000000, -0.000000000000000000, 1.000000000000000000 ) ) ;
#15 = CIRCLE ( 'NONE', #187, 0.009999999999999995004 ) ;
#16 = VECTOR ( 'NONE', #1028, 39.37007874015748143 ) ;
#17 = ORIENTED_EDGE ( 'NONE', *, *, #70, .T. ) ;
#18 = DIRECTION ( 'NONE',  ( 0.9848077530122087975, -0.1736481776669272226, 0.000000000000000000 ) ) ;
#19 = VERTEX_POINT ( 'NONE', #282 ) ;
#20 = CARTESIAN_POINT ( 'NONE',  ( -0.8366905377923583575, 2.706945927106678251, 0.1499999999999999944 ) ) ;
#21 = EDGE_CURVE ( 'NONE', #52, #924, #369, .T. ) ;
#22 = LINE ( 'NONE', #590, #1064 ) ;
#23 = ORIENTED_EDGE ( 'NONE', *, *, #716, .T. ) ;
#24 = DIRECTION ( 'NONE',  ( 0.1736481776669266397, -0.9848077530122086864, -8.537024980200805055E-16 ) ) ;
#25 = VERTEX_POINT ( 'NONE', #953 ) ;
#26 = LINE ( 'NONE', #295, #742 ) ;
#27 = EDGE_CURVE ( 'NONE', #727, #97, #37, .T. ) ;
#28 = CARTESIAN_POINT ( 'NONE',  ( 0.8310806031885995537, 2.444779587653385544, -0.009937313161588447186 ) ) ;
#29 = VERTEX_POINT ( 'NONE', #950 ) ;
#30 = DIRECTION ( 'NONE',  ( -0.9848077530122085754, 0.1736481776669272781, 3.879563790152866121E-18 ) ) ;
#31 = ORIENTED_EDGE ( 'NONE', *, *, #591, .F. ) ;
#32 = CARTESIAN_POINT ( 'NONE',  ( 0.6986980742049044846, 2.557816530264688026, -4.142918808507379021E-16 ) ) ;
#33 = ORIENTED_EDGE ( 'NONE', *, *, #27, .F. ) ;
#34 = CIRCLE ( 'NONE', #168, 0.1000000000000000194 ) ;
#35 = ORIENTED_EDGE ( 'NONE', *, *, #230, .F. ) ;
#36 = FACE_OUTER_BOUND ( 'NONE', #942, .T. ) ;
#37 = LINE ( 'NONE', #456, #239 ) ;
#38 = APPLICATION_CONTEXT ( 'automotive_design' ) ;
#39 = VERTEX_POINT ( 'NONE', #366 ) ;
#40 = EDGE_CURVE ( 'NONE', #631, #594, #966, .T. ) ;
#41 = LINE ( 'NONE', #545, #375 ) ;
#42 = LINE ( 'NONE', #530, #783 ) ;
#43 = ORIENTED_EDGE ( 'NONE', *, *, #77, .F. ) ;
#44 = FILL_AREA_STYLE_COLOUR ( '', #661 ) ;
#45 = EDGE_CURVE ( 'NONE', #928, #446, #1050, .T. ) ;
#46 = DIRECTION ( 'NONE',  ( 0.1725596321415329981, -0.9786343045642142968, -0.1117947730678652135 ) ) ;
#47 = VERTEX_POINT ( 'NONE', #630 ) ;
#48 = DIRECTION ( 'NONE',  ( 0.9848077530122085754, 0.1736481776669272503, -0.000000000000000000 ) ) ;
#49 = AXIS2_PLACEMENT_3D ( 'NONE', #266, #835, #925 ) ;
#50 = VECTOR ( 'NONE', #413, 39.37007874015748143 ) ;
#51 = CARTESIAN_POINT ( 'NONE',  ( 0.000000000000000000, 0.000000000000000000, -0.2500000000000000000 ) ) ;
#52 = VERTEX_POINT ( 'NONE', #206 ) ;
#53 = EDGE_LOOP ( 'NONE', ( #297, #305, #111, #552 ) ) ;
#54 = CARTESIAN_POINT ( 'NONE',  ( 0.8760828479128467405, 2.700000000000000178, 0.1499999999999999944 ) ) ;
#55 = DIRECTION ( 'NONE',  ( 0.1736481776669284438, 0.9848077530122083534, 2.664535259100376880E-15 ) ) ;
#56 = EDGE_CURVE ( 'NONE', #980, #374, #42, .T. ) ;
#57 = CARTESIAN_POINT ( 'NONE',  ( 0.4145708121834925652, 0.08263518223330729162, 0.2500000000000000000 ) ) ;
#58 = ORIENTED_EDGE ( 'NONE', *, *, #420, .T. ) ;
#59 = CARTESIAN_POINT ( 'NONE',  ( 0.3606076898795116392, 0.006945927106677088347, 0.2500000000000000000 ) ) ;
#60 = DIRECTION ( 'NONE',  ( -0.000000000000000000, -0.000000000000000000, -1.000000000000000000 ) ) ;
#61 = ORIENTED_EDGE ( 'NONE', *, *, #908, .F. ) ;
#62 = LINE ( 'NONE', #569, #428 ) ;
#63 = CIRCLE ( 'NONE', #902, 0.1000000000000001998 ) ;
#64 = VECTOR ( 'NONE', #278, 39.37007874015748143 ) ;
#65 = LINE ( 'NONE', #1065, #323 ) ;
#66 = AXIS2_PLACEMENT_3D ( 'NONE', #613, #443, #629 ) ;
#67 = CARTESIAN_POINT ( 'NONE',  ( -0.2825260516351804085, 0.1400000000000000133, -0.2500000000000000000 ) ) ;
#68 = ORIENTED_EDGE ( 'NONE', *, *, #422, .T. ) ;
#69 = CARTESIAN_POINT ( 'NONE',  ( 0.8193257200256635064, 2.608465151805457793, 0.2500000000000000000 ) ) ;
#70 = EDGE_CURVE ( 'NONE', #1068, #1056, #706, .T. ) ;
#71 = EDGE_CURVE ( 'NONE', #562, #212, #874, .T. ) ;
#72 = FACE_OUTER_BOUND ( 'NONE', #526, .T. ) ;
#73 = LINE ( 'NONE', #983, #482 ) ;
#74 = ORIENTED_EDGE ( 'NONE', *, *, #960, .F. ) ;
#75 = CARTESIAN_POINT ( 'NONE',  ( -0.5239809945513825840, 0.2424295217258927437, 2.347681869555226049E-17 ) ) ;
#76 = ORIENTED_EDGE ( 'NONE', *, *, #156, .T. ) ;
#77 = EDGE_CURVE ( 'NONE', #594, #52, #104, .T. ) ;
#78 = DIRECTION ( 'NONE',  ( 0.01941295861592248762, -0.1100963592634741361, -0.9937313161588018362 ) ) ;
#79 = PRODUCT ( '423-0293', '423-0293', '', ( #439 ) ) ;
#80 = DIRECTION ( 'NONE',  ( 0.000000000000000000, -1.000000000000000000, 0.000000000000000000 ) ) ;
#81 = ORIENTED_EDGE ( 'NONE', *, *, #716, .F. ) ;
#82 = CARTESIAN_POINT ( 'NONE',  ( -0.3160900368822717743, 0.000000000000000000, 0.2500000000000000000 ) ) ;
#83 = EDGE_CURVE ( 'NONE', #219, #761, #241, .T. ) ;
#84 = DIRECTION ( 'NONE',  ( -0.9848077530122085754, -0.1736481776669272503, -0.000000000000000000 ) ) ;
#85 = AXIS2_PLACEMENT_3D ( 'NONE', #719, #640, #976 ) ;
#86 = CIRCLE ( 'NONE', #712, 0.01000000000000011817 ) ;
#87 = LINE ( 'NONE', #753, #50 ) ;
#88 = ORIENTED_EDGE ( 'NONE', *, *, #995, .F. ) ;
#89 = DIRECTION ( 'NONE',  ( -0.000000000000000000, -0.000000000000000000, 1.000000000000000000 ) ) ;
#90 = DIRECTION ( 'NONE',  ( 0.000000000000000000, -0.9939186193649264256, 0.1101171107490488549 ) ) ;
#91 = CARTESIAN_POINT ( 'NONE',  ( 0.6831653106506091477, 2.469725850710789761, -3.585550491684345597E-16 ) ) ;
#92 = ORIENTED_EDGE ( 'NONE', *, *, #881, .F. ) ;
#93 = CARTESIAN_POINT ( 'NONE',  ( 0.3160900368822717188, 0.1000000000000000056, -0.2500000000000000000 ) ) ;
#94 = ORIENTED_EDGE ( 'NONE', *, *, #339, .T. ) ;
#95 = DIRECTION ( 'NONE',  ( 0.000000000000000000, 0.9939186193649264256, -0.1101171107490492435 ) ) ;
#96 = CARTESIAN_POINT ( 'NONE',  ( 0.4145708121834925652, 0.08263518223330730550, 0.2500000000000000000 ) ) ;
#97 = VERTEX_POINT ( 'NONE', #229 ) ;
#98 = VERTEX_POINT ( 'NONE', #643 ) ;
#99 = EDGE_CURVE ( 'NONE', #1055, #397, #86, .T. ) ;
#100 = CARTESIAN_POINT ( 'NONE',  ( -0.8760828479128467405, 2.700000000000000178, -0.1499999999999999667 ) ) ;
#101 = VECTOR ( 'NONE', #801, 39.37007874015748143 ) ;
#102 = CIRCLE ( 'NONE', #532, 0.1000000000000001998 ) ;
#103 = DIRECTION ( 'NONE',  ( -0.9848077530122048007, -0.1736481776669483168, -0.000000000000000000 ) ) ;
#104 = CIRCLE ( 'NONE', #664, 0.1000000000000000194 ) ;
#105 = ORIENTED_EDGE ( 'NONE', *, *, #943, .F. ) ;
#106 = EDGE_LOOP ( 'NONE', ( #963, #600, #539, #1018 ) ) ;
#107 = EDGE_CURVE ( 'NONE', #1068, #147, #360, .T. ) ;
#108 = CARTESIAN_POINT ( 'NONE',  ( 0.4056099346037585485, 0.2621663394532898206, 0.009937313161588051669 ) ) ;
#109 = CARTESIAN_POINT ( 'NONE',  ( 0.2825260516351804085, 0.1400000000000000133, 0.2500000000000000000 ) ) ;
#110 = ORIENTED_EDGE ( 'NONE', *, *, #843, .F. ) ;
#111 = ORIENTED_EDGE ( 'NONE', *, *, #261, .F. ) ;
#112 = LINE ( 'NONE', #281, #868 ) ;
#113 = ORIENTED_EDGE ( 'NONE', *, *, #843, .T. ) ;
#114 = ORIENTED_EDGE ( 'NONE', *, *, #755, .F. ) ;
#115 = CARTESIAN_POINT ( 'NONE',  ( 0.8366905377923583575, 2.706945927106678251, 0.2500000000000000000 ) ) ;
#116 = DIRECTION ( 'NONE',  ( 0.9848077530122048007, -0.1736481776669483168, 0.000000000000000000 ) ) ;
#117 = AXIS2_PLACEMENT_3D ( 'NONE', #353, #14, #257 ) ;
#118 = EDGE_CURVE ( 'NONE', #939, #700, #987, .T. ) ;
#119 = ORIENTED_EDGE ( 'NONE', *, *, #597, .T. ) ;
#120 = VECTOR ( 'NONE', #46, 39.37007874015748854 ) ;
#121 = LINE ( 'NONE', #625, #536 ) ;
#122 = CARTESIAN_POINT ( 'NONE',  ( -0.4145708121834925652, 0.08263518223330729162, 0.2500000000000000000 ) ) ;
#123 = EDGE_CURVE ( 'NONE', #687, #814, #896, .T. ) ;
#124 = EDGE_LOOP ( 'NONE', ( #274, #855, #337, #215 ) ) ;
#125 = PRODUCT_DEFINITION_CONTEXT ( 'detailed design', #441, 'design' ) ;
#126 = DIRECTION ( 'NONE',  ( -0.9848077530122085754, -0.1736481776669272503, 0.000000000000000000 ) ) ;
#127 = VERTEX_POINT ( 'NONE', #999 ) ;
#128 = FACE_OUTER_BOUND ( 'NONE', #603, .T. ) ;
#129 = DIRECTION ( 'NONE',  ( -0.1725596321415329981, 0.9786343045642142968, -0.1117947730678649637 ) ) ;
#130 = LINE ( 'NONE', #870, #608 ) ;
#131 = AXIS2_PLACEMENT_3D ( 'NONE', #252, #402, #247 ) ;
#132 = ORIENTED_EDGE ( 'NONE', *, *, #45, .T. ) ;
#133 = PRESENTATION_STYLE_ASSIGNMENT (( #213 ) ) ;
#134 = AXIS2_PLACEMENT_3D ( 'NONE', #377, #632, #1052 ) ;
#135 = CIRCLE ( 'NONE', #222, 0.1000000000000000194 ) ;
#136 = ADVANCED_FACE ( 'NONE', ( #490 ), #823, .T. ) ;
#137 = LINE ( 'NONE', #986, #550 ) ;
#138 = CARTESIAN_POINT ( 'NONE',  ( 0.3999999999999999667, 0.000000000000000000, 0.2500000000000000000 ) ) ;
#139 = ORIENTED_EDGE ( 'NONE', *, *, #216, .F. ) ;
#140 = CARTESIAN_POINT ( 'NONE',  ( -0.8193257200256657269, 2.608465151805456905, -0.1499999999999999944 ) ) ;
#141 = ADVANCED_FACE ( 'NONE', ( #726 ), #1085, .T. ) ;
#142 = PLANE ( 'NONE',  #448 ) ;
#143 = DIRECTION ( 'NONE',  ( 0.1725596321415330536, -0.9786343045642142968, -0.1117947730678652135 ) ) ;
#144 = ORIENTED_EDGE ( 'NONE', *, *, #1042, .T. ) ;
#145 = DIRECTION ( 'NONE',  ( -0.9848077530122087975, 0.1736481776669272226, -0.000000000000000000 ) ) ;
#146 = FACE_OUTER_BOUND ( 'NONE', #702, .T. ) ;
#147 = VERTEX_POINT ( 'NONE', #319 ) ;
#148 = DIRECTION ( 'NONE',  ( 0.9848077530122085754, -0.1736481776669272503, -0.000000000000000000 ) ) ;
#149 = ADVANCED_FACE ( 'NONE', ( #660, #326 ), #720, .F. ) ;
#150 = VECTOR ( 'NONE', #269, 39.37007874015748143 ) ;
#151 = VECTOR ( 'NONE', #571, 39.37007874015748854 ) ;
#152 = CIRCLE ( 'NONE', #587, 0.01000000000000011817 ) ;
#153 = DIRECTION ( 'NONE',  ( -0.9848077530122085754, 0.1736481776669272503, -0.000000000000000000 ) ) ;
#154 = CARTESIAN_POINT ( 'NONE',  ( 0.7914941634819518956, 2.450624551167427612, -3.585550827057637673E-16 ) ) ;
#155 = EDGE_LOOP ( 'NONE', ( #23, #848, #488, #861, #1044, #707 ) ) ;
#156 = EDGE_CURVE ( 'NONE', #871, #1055, #234, .T. ) ;
#157 = LINE ( 'NONE', #907, #447 ) ;
#158 = DIRECTION ( 'NONE',  ( 0.1736481776669271948, -0.9848077530122085754, 0.000000000000000000 ) ) ;
#159 = DIRECTION ( 'NONE',  ( -0.9848077530122087975, -0.1736481776669272226, 0.000000000000000000 ) ) ;
#160 = ORIENTED_EDGE ( 'NONE', *, *, #1048, .T. ) ;
#161 = LINE ( 'NONE', #69, #13 ) ;
#162 = ADVANCED_FACE ( 'NONE', ( #146 ), #565, .F. ) ;
#163 = FACE_OUTER_BOUND ( 'NONE', #283, .T. ) ;
#164 = FACE_OUTER_BOUND ( 'NONE', #124, .T. ) ;
#165 = VERTEX_POINT ( 'NONE', #301 ) ;
#166 = CARTESIAN_POINT ( 'NONE',  ( -0.2825260516351804085, 0.04000000000000000083, 0.2500000000000000000 ) ) ;
#167 = VECTOR ( 'NONE', #311, 39.37007874015748854 ) ;
#168 = AXIS2_PLACEMENT_3D ( 'NONE', #740, #909, #555 ) ;
#169 = DIRECTION ( 'NONE',  ( -0.1736481776669272226, 0.9848077530122085754, 0.000000000000000000 ) ) ;
#170 = AXIS2_PLACEMENT_3D ( 'NONE', #180, #520, #681 ) ;
#171 = DIRECTION ( 'NONE',  ( 0.000000000000000000, 0.000000000000000000, -1.000000000000000000 ) ) ;
#172 = VERTEX_POINT ( 'NONE', #978 ) ;
#173 = CARTESIAN_POINT ( 'NONE',  ( 0.4058040641899176570, 0.2632673030459245500, 3.372134790388647295E-17 ) ) ;
#174 = ORIENTED_EDGE ( 'NONE', *, *, #56, .F. ) ;
#175 = DIRECTION ( 'NONE',  ( 0.1736481776669284438, 0.9848077530122083534, 0.000000000000000000 ) ) ;
#176 = DIRECTION ( 'NONE',  ( 0.1736481776669194788, 0.9848077530122099077, -7.105427357600920606E-15 ) ) ;
#177 = EDGE_LOOP ( 'NONE', ( #751, #438, #43, #74 ) ) ;
#178 = ORIENTED_EDGE ( 'NONE', *, *, #943, .T. ) ;
#179 = CARTESIAN_POINT ( 'NONE',  ( 0.3561556115723365501, -0.01830306365632004134, 0.02210224760884794970 ) ) ;
#180 = CARTESIAN_POINT ( 'NONE',  ( -0.8587180301461538878, 2.601519224698779276, 0.1499999999999999944 ) ) ;
#181 = VERTEX_POINT ( 'NONE', #890 ) ;
#182 = CARTESIAN_POINT ( 'NONE',  ( -0.4434598925337366326, 0.2464732984091248802, 2.316647798312490544E-17 ) ) ;
#183 = EDGE_CURVE ( 'NONE', #749, #425, #224, .T. ) ;
#184 = ORIENTED_EDGE ( 'NONE', *, *, #339, .F. ) ;
#185 = CARTESIAN_POINT ( 'NONE',  ( -0.3160900368822717743, 0.1000000000000000056, 0.2500000000000000000 ) ) ;
#186 = CARTESIAN_POINT ( 'NONE',  ( 0.5986491138359348874, 1.356945927106676830, 0.1349999999999998979 ) ) ;
#187 = AXIS2_PLACEMENT_3D ( 'NONE', #877, #48, #714 ) ;
#188 = AXIS2_PLACEMENT_3D ( 'NONE', #91, #507, #417 ) ;
#189 = ORIENTED_EDGE ( 'NONE', *, *, #383, .T. ) ;
#190 = DIRECTION ( 'NONE',  ( 0.9848077530122087975, 0.1736481776669272226, -0.000000000000000000 ) ) ;
#191 = EDGE_CURVE ( 'NONE', #562, #19, #474, .T. ) ;
#192 = ORIENTED_EDGE ( 'NONE', *, *, #566, .T. ) ;
#193 = LINE ( 'NONE', #198, #64 ) ;
#194 = VERTEX_POINT ( 'NONE', #396 ) ;
#195 = DIRECTION ( 'NONE',  ( 0.9848077530122085754, 0.1736481776669272503, 3.490517547424260691E-18 ) ) ;
#196 = ORIENTED_EDGE ( 'NONE', *, *, #524, .T. ) ;
#197 = EDGE_CURVE ( 'NONE', #794, #3, #73, .T. ) ;
#198 = CARTESIAN_POINT ( 'NONE',  ( 0.7916882930681108377, 2.451725514760062286, -0.009937313161588431573 ) ) ;
#199 = CARTESIAN_POINT ( 'NONE',  ( -0.3810068269364012550, 0.1226351822333072855, -0.2500000000000000000 ) ) ;
#200 = ORIENTED_EDGE ( 'NONE', *, *, #56, .T. ) ;
#201 = EDGE_CURVE ( 'NONE', #446, #25, #207, .T. ) ;
#202 = CARTESIAN_POINT ( 'NONE',  ( 0.8587180301461539988, 2.601519224698779720, 0.2500000000000000000 ) ) ;
#203 = CIRCLE ( 'NONE', #302, 0.009999999999999995004 ) ;
#204 = VECTOR ( 'NONE', #89, 39.37007874015748143 ) ;
#205 = AXIS2_PLACEMENT_3D ( 'NONE', #423, #260, #589 ) ;
#206 = CARTESIAN_POINT ( 'NONE',  ( -0.4145708121834925652, 0.08263518223330730550, -0.2500000000000000000 ) ) ;
#207 = CIRCLE ( 'NONE', #834, 0.1000000000000000194 ) ;
#208 = ORIENTED_EDGE ( 'NONE', *, *, #524, .F. ) ;
#209 = FACE_OUTER_BOUND ( 'NONE', #951, .T. ) ;
#210 = DIRECTION ( 'NONE',  ( 0.1736481776669284438, -0.9848077530122083534, 0.000000000000000000 ) ) ;
#211 = ORIENTED_EDGE ( 'NONE', *, *, #508, .T. ) ;
#212 = VERTEX_POINT ( 'NONE', #400 ) ;
#213 = SURFACE_STYLE_USAGE ( .BOTH. , #792 ) ;
#214 = CARTESIAN_POINT ( 'NONE',  ( -0.3561556115723365501, -0.01830306365631997889, 0.02210224760884777970 ) ) ;
#215 = ORIENTED_EDGE ( 'NONE', *, *, #967, .F. ) ;
#216 = EDGE_CURVE ( 'NONE', #749, #764, #736, .T. ) ;
#217 = CARTESIAN_POINT ( 'NONE',  ( 0.3613642530996394875, 0.01123661034237982866, 0.2887277683618185153 ) ) ;
#218 = AXIS2_PLACEMENT_3D ( 'NONE', #1019, #434, #615 ) ;
#219 = VERTEX_POINT ( 'NONE', #96 ) ;
#220 = CARTESIAN_POINT ( 'NONE',  ( 0.4450022447242468204, 0.2552204123466126906, 0.009937313161588048199 ) ) ;
#221 = CIRCLE ( 'NONE', #49, 0.1000000000000000194 ) ;
#222 = AXIS2_PLACEMENT_3D ( 'NONE', #109, #437, #424 ) ;
#223 = CARTESIAN_POINT ( 'NONE',  ( -0.3606076898795116392, 0.006945927106677088347, -0.2500000000000000000 ) ) ;
#224 = LINE ( 'NONE', #556, #698 ) ;
#225 = ORIENTED_EDGE ( 'NONE', *, *, #453, .F. ) ;
#226 = DIRECTION ( 'NONE',  ( 0.9848077530122085754, -0.1736481776669272503, -0.000000000000000000 ) ) ;
#227 = DIRECTION ( 'NONE',  ( -0.1725596321415330536, 0.9786343045642142968, 0.1117947730678654356 ) ) ;
#228 = ADVANCED_FACE ( 'NONE', ( #513 ), #927, .F. ) ;
#229 = CARTESIAN_POINT ( 'NONE',  ( -0.5986491138359349984, 1.356945927106677274, -0.1349999999999998423 ) ) ;
#230 = EDGE_CURVE ( 'NONE', #612, #749, #22, .T. ) ;
#231 = ORIENTED_EDGE ( 'NONE', *, *, #967, .T. ) ;
#232 = DIRECTION ( 'NONE',  ( 0.1736481776669194788, -0.9848077530122099077, 2.664535259100346115E-15 ) ) ;
#233 = CARTESIAN_POINT ( 'NONE',  ( 0.8760828479128467405, 2.700000000000000178, 0.1499999999999999944 ) ) ;
#234 = LINE ( 'NONE', #802, #324 ) ;
#235 = ORIENTED_EDGE ( 'NONE', *, *, #462, .T. ) ;
#236 = DIRECTION ( 'NONE',  ( -0.9848077530122086864, -0.1736481776669273058, 3.879258905341984428E-18 ) ) ;
#237 = CIRCLE ( 'NONE', #218, 0.1000000000000001998 ) ;
#238 =( GEOMETRIC_REPRESENTATION_CONTEXT ( 3 ) GLOBAL_UNCERTAINTY_ASSIGNED_CONTEXT ( ( #394 ) ) GLOBAL_UNIT_ASSIGNED_CONTEXT ( ( #893, #621, #771 ) ) REPRESENTATION_CONTEXT ( 'NONE', 'WORKASPACE' ) );
#239 = VECTOR ( 'NONE', #789, 39.37007874015748143 ) ;
#240 = CARTESIAN_POINT ( 'NONE',  ( -0.3160900368822717743, 0.000000000000000000, -0.2500000000000000000 ) ) ;
#241 = LINE ( 'NONE', #57, #534 ) ;
#242 = VERTEX_POINT ( 'NONE', #1022 ) ;
#243 = CARTESIAN_POINT ( 'NONE',  ( 0.6380414239564233814, 1.350000000000000089, -0.1350000000000002032 ) ) ;
#244 = DIRECTION ( 'NONE',  ( 0.9848077530122087975, -0.1736481776669272226, 0.000000000000000000 ) ) ;
#245 = CARTESIAN_POINT ( 'NONE',  ( -0.7168260441974001473, 1.336108145786645496, 0.1350000000000001754 ) ) ;
#246 = VERTEX_POINT ( 'NONE', #854 ) ;
#247 = DIRECTION ( 'NONE',  ( 0.1736481776669194788, -0.9848077530122099077, 0.000000000000000000 ) ) ;
#248 = EDGE_CURVE ( 'NONE', #242, #700, #348, .T. ) ;
#249 = DIRECTION ( 'NONE',  ( -1.000000000000000000, 0.000000000000000000, 0.000000000000000000 ) ) ;
#250 = CARTESIAN_POINT ( 'NONE',  ( 0.3658012440303050616, 0.03640003634127213922, -0.01585321196620008768 ) ) ;
#251 = EDGE_LOOP ( 'NONE', ( #76, #996, #684, #677, #364, #776, #586 ) ) ;
#252 = CARTESIAN_POINT ( 'NONE',  ( -0.9096710938434170446, 2.429786769847396055, 3.158699242674304408E-16 ) ) ;
#253 = VECTOR ( 'NONE', #833, 39.37007874015748854 ) ;
#254 = VECTOR ( 'NONE', #226, 39.37007874015748854 ) ;
#255 = DIRECTION ( 'NONE',  ( 0.000000000000000000, 0.000000000000000000, -1.000000000000000000 ) ) ;
#256 = VECTOR ( 'NONE', #711, 39.37007874015748143 ) ;
#257 = DIRECTION ( 'NONE',  ( -1.000000000000000000, 0.000000000000000000, 0.000000000000000000 ) ) ;
#258 = ORIENTED_EDGE ( 'NONE', *, *, #554, .T. ) ;
#259 = ORIENTED_EDGE ( 'NONE', *, *, #201, .F. ) ;
#260 = DIRECTION ( 'NONE',  ( 0.9848077530122085754, -0.1736481776669272503, 0.000000000000000000 ) ) ;
#261 = EDGE_CURVE ( 'NONE', #794, #374, #152, .T. ) ;
#262 = DIRECTION ( 'NONE',  ( -0.1736481776669284438, -0.9848077530122083534, 0.000000000000000000 ) ) ;
#263 = ORIENTED_EDGE ( 'NONE', *, *, #40, .F. ) ;
#264 = APPLICATION_PROTOCOL_DEFINITION ( 'draft international standard', 'automotive_design', 1998, #38 ) ;
#265 = VERTEX_POINT ( 'NONE', #602 ) ;
#266 = CARTESIAN_POINT ( 'NONE',  ( -0.3160900368822717743, 0.1000000000000000056, 0.2500000000000000000 ) ) ;
#267 = CARTESIAN_POINT ( 'NONE',  ( -0.8760828479128467405, 2.700000000000000178, -0.1499999999999999667 ) ) ;
#268 = ORIENTED_EDGE ( 'NONE', *, *, #1042, .F. ) ;
#269 = DIRECTION ( 'NONE',  ( -0.000000000000000000, -0.000000000000000000, -1.000000000000000000 ) ) ;
#270 = ORIENTED_EDGE ( 'NONE', *, *, #913, .T. ) ;
#271 = LINE ( 'NONE', #1009, #884 ) ;
#272 = AXIS2_PLACEMENT_3D ( 'NONE', #1061, #637, #973 ) ;
#273 = AXIS2_PLACEMENT_3D ( 'NONE', #245, #386, #741 ) ;
#274 = ORIENTED_EDGE ( 'NONE', *, *, #546, .F. ) ;
#275 = EDGE_CURVE ( 'NONE', #172, #219, #411, .T. ) ;
#276 = LINE ( 'NONE', #510, #150 ) ;
#277 = ORIENTED_EDGE ( 'NONE', *, *, #908, .T. ) ;
#278 = DIRECTION ( 'NONE',  ( -0.9848077530122085754, 0.1736481776669272503, -0.000000000000000000 ) ) ;
#279 = LINE ( 'NONE', #634, #1047 ) ;
#280 = ORIENTED_EDGE ( 'NONE', *, *, #543, .F. ) ;
#281 = CARTESIAN_POINT ( 'NONE',  ( -0.3613642530996394875, 0.01123661034237979743, 0.2887277683618183488 ) ) ;
#282 = CARTESIAN_POINT ( 'NONE',  ( 0.3810068269364012550, 0.1226351822333073271, -0.2500000000000000000 ) ) ;
#283 = EDGE_LOOP ( 'NONE', ( #808, #277, #376, #480 ) ) ;
#284 = LINE ( 'NONE', #964, #518 ) ;
#285 = LINE ( 'NONE', #869, #923 ) ;
#286 = AXIS2_PLACEMENT_3D ( 'NONE', #982, #648, #313 ) ;
#287 = DIRECTION ( 'NONE',  ( -1.000000000000000000, 0.000000000000000000, 0.000000000000000000 ) ) ;
#288 = AXIS2_PLACEMENT_3D ( 'NONE', #773, #767, #759 ) ;
#289 = ORIENTED_EDGE ( 'NONE', *, *, #10, .F. ) ;
#290 = DIRECTION ( 'NONE',  ( 0.1736481776669272503, -0.9848077530122085754, 0.000000000000000000 ) ) ;
#291 = CARTESIAN_POINT ( 'NONE',  ( -0.4450022447242467094, 0.2552204123466122465, 0.009937313161588115853 ) ) ;
#292 = DIRECTION ( 'NONE',  ( 0.000000000000000000, 0.000000000000000000, -1.000000000000000000 ) ) ;
#293 = EDGE_CURVE ( 'NONE', #924, #47, #271, .T. ) ;
#294 = ORIENTED_EDGE ( 'NONE', *, *, #1070, .T. ) ;
#295 = CARTESIAN_POINT ( 'NONE',  ( 0.6380414239564233814, 1.350000000000000089, -0.1350000000000002032 ) ) ;
#296 = CARTESIAN_POINT ( 'NONE',  ( -0.3606076898795116392, 0.006945927106677088347, 0.2500000000000000000 ) ) ;
#297 = ORIENTED_EDGE ( 'NONE', *, *, #99, .F. ) ;
#298 = ORIENTED_EDGE ( 'NONE', *, *, #535, .F. ) ;
#299 = PLANE ( 'NONE',  #272 ) ;
#300 = CARTESIAN_POINT ( 'NONE',  ( -0.8310806031885994427, 2.444779587653385544, 0.009937313161588256366 ) ) ;
#301 = CARTESIAN_POINT ( 'NONE',  ( -0.2825260516351804085, 0.04000000000000000083, 0.2500000000000000000 ) ) ;
#302 = AXIS2_PLACEMENT_3D ( 'NONE', #1041, #959, #210 ) ;
#303 = ADVANCED_BREP_SHAPE_REPRESENTATION ( '423-0293', ( #839, #516 ), #828 ) ;
#304 = AXIS2_PLACEMENT_3D ( 'NONE', #670, #1003, #90 ) ;
#305 = ORIENTED_EDGE ( 'NONE', *, *, #422, .F. ) ;
#306 = PLANE ( 'NONE',  #797 ) ;
#307 = CLOSED_SHELL ( 'NONE', ( #617, #962, #611, #807, #820, #141, #876, #458, #149, #948, #312, #442, #889, #659, #136, #574, #363, #501, #734, #653, #694, #655, #778, #162, #405, #487, #580, #1033, #228, #327, #905, #891 ) ) ;
#308 = LINE ( 'NONE', #233, #151 ) ;
#309 = CARTESIAN_POINT ( 'NONE',  ( -0.8760828479128467405, 2.700000000000000178, 0.2500000000000000000 ) ) ;
#310 = ORIENTED_EDGE ( 'NONE', *, *, #426, .F. ) ;
#311 = DIRECTION ( 'NONE',  ( -0.1725596321415329981, 0.9786343045642142968, 0.1117947730678654356 ) ) ;
#312 = ADVANCED_FACE ( 'NONE', ( #846 ), #836, .F. ) ;
#313 = DIRECTION ( 'NONE',  ( 0.1736481776669284438, -0.9848077530122083534, 0.000000000000000000 ) ) ;
#314 = DIRECTION ( 'NONE',  ( 0.000000000000000000, 0.000000000000000000, -1.000000000000000000 ) ) ;
#315 = VERTEX_POINT ( 'NONE', #186 ) ;
#316 = CARTESIAN_POINT ( 'NONE',  ( -0.4145708121834925652, 0.08263518223330730550, 0.2500000000000000000 ) ) ;
#317 = EDGE_LOOP ( 'NONE', ( #467, #160, #414, #114 ) ) ;
#318 = FACE_BOUND ( 'NONE', #838, .T. ) ;
#319 = CARTESIAN_POINT ( 'NONE',  ( -0.4056099346037583819, 0.2621663394532893210, 0.009937313161588110649 ) ) ;
#320 = ORIENTED_EDGE ( 'NONE', *, *, #605, .F. ) ;
#321 = CARTESIAN_POINT ( 'NONE',  ( -0.8310806031885995537, 2.444779587653385988, -0.009937313161587675234 ) ) ;
#322 = AXIS2_PLACEMENT_3D ( 'NONE', #391, #825, #415 ) ;
#323 = VECTOR ( 'NONE', #227, 39.37007874015748854 ) ;
#324 = VECTOR ( 'NONE', #478, 39.37007874015748854 ) ;
#325 = PLANE ( 'NONE',  #782 ) ;
#326 = FACE_OUTER_BOUND ( 'NONE', #528, .T. ) ;
#327 = ADVANCED_FACE ( 'NONE', ( #7 ), #932, .F. ) ;
#328 = ORIENTED_EDGE ( 'NONE', *, *, #275, .F. ) ;
#329 = DIRECTION ( 'NONE',  ( 0.9848077530122085754, 0.1736481776669272503, -0.000000000000000000 ) ) ;
#330 = DIRECTION ( 'NONE',  ( 1.000000000000000000, 0.000000000000000000, 0.000000000000000000 ) ) ;
#331 = CARTESIAN_POINT ( 'NONE',  ( 0.2974752113585747981, 0.2823686025892865326, 3.414809992080329023E-17 ) ) ;
#332 = ORIENTED_EDGE ( 'NONE', *, *, #70, .F. ) ;
#333 = DIRECTION ( 'NONE',  ( 0.01941295861592251884, -0.1100963592634743582, 0.9937313161588018362 ) ) ;
#334 = CARTESIAN_POINT ( 'NONE',  ( -0.4450022447242467094, 0.2552204123466122465, -0.009937313161588008301 ) ) ;
#335 = DIRECTION ( 'NONE',  ( -0.9848077530122086864, 0.1736481776669273058, 3.879563790152866891E-18 ) ) ;
#336 = VERTEX_POINT ( 'NONE', #1004 ) ;
#337 = ORIENTED_EDGE ( 'NONE', *, *, #197, .T. ) ;
#338 = VECTOR ( 'NONE', #30, 39.37007874015748854 ) ;
#339 = EDGE_CURVE ( 'NONE', #47, #939, #551, .T. ) ;
#340 = AXIS2_PLACEMENT_3D ( 'NONE', #296, #822, #158 ) ;
#341 = CARTESIAN_POINT ( 'NONE',  ( 0.8193257200256659489, 2.608465151805458238, 0.2500000000000000000 ) ) ;
#342 = VECTOR ( 'NONE', #287, 39.37007874015748143 ) ;
#343 = CARTESIAN_POINT ( 'NONE',  ( 0.8308864736024401676, 2.443678624060750426, -3.585550949011561705E-16 ) ) ;
#344 = EDGE_LOOP ( 'NONE', ( #184, #799, #268, #1060 ) ) ;
#345 = ORIENTED_EDGE ( 'NONE', *, *, #913, .F. ) ;
#346 = LINE ( 'NONE', #826, #567 ) ;
#347 = EDGE_CURVE ( 'NONE', #194, #857, #841, .T. ) ;
#348 = LINE ( 'NONE', #267, #644 ) ;
#349 = CARTESIAN_POINT ( 'NONE',  ( 0.7916882930681111707, 2.451725514760063174, -0.009937313161588358715 ) ) ;
#350 = EDGE_LOOP ( 'NONE', ( #1013, #672, #1026, #231 ) ) ;
#351 = CARTESIAN_POINT ( 'NONE',  ( 0.4903202610045921395, 1.376047226650039201, -0.1350000000000002032 ) ) ;
#352 = EDGE_CURVE ( 'NONE', #531, #514, #135, .T. ) ;
#353 = CARTESIAN_POINT ( 'NONE',  ( 0.3160900368822717188, 0.1000000000000000056, 0.2500000000000000000 ) ) ;
#354 = ORIENTED_EDGE ( 'NONE', *, *, #1078, .T. ) ;
#355 = LINE ( 'NONE', #1030, #1043 ) ;
#356 = ORIENTED_EDGE ( 'NONE', *, *, #1023, .F. ) ;
#357 = AXIS2_PLACEMENT_3D ( 'NONE', #75, #236, #997 ) ;
#358 = DIRECTION ( 'NONE',  ( -1.000000000000000000, 0.000000000000000000, -0.000000000000000000 ) ) ;
#359 = CIRCLE ( 'NONE', #941, 0.009999999999999995004 ) ;
#360 = CIRCLE ( 'NONE', #977, 0.009999999999999995004 ) ;
#361 = ORIENTED_EDGE ( 'NONE', *, *, #371, .F. ) ;
#362 = CARTESIAN_POINT ( 'NONE',  ( -0.8587180301461518894, 2.601519224698779720, 0.1499999999999999944 ) ) ;
#363 = ADVANCED_FACE ( 'NONE', ( #164 ), #496, .F. ) ;
#364 = ORIENTED_EDGE ( 'NONE', *, *, #1084, .T. ) ;
#365 = CARTESIAN_POINT ( 'NONE',  ( 0.3160900368822717188, 0.000000000000000000, 0.2500000000000000000 ) ) ;
#366 = CARTESIAN_POINT ( 'NONE',  ( -0.7916882930681111707, 2.451725514760062730, 0.009937313161588256366 ) ) ;
#367 = EDGE_LOOP ( 'NONE', ( #328, #225, #916, #384 ) ) ;
#368 = LINE ( 'NONE', #705, #120 ) ;
#369 = LINE ( 'NONE', #122, #679 ) ;
#370 = ORIENTED_EDGE ( 'NONE', *, *, #638, .F. ) ;
#371 = EDGE_CURVE ( 'NONE', #165, #928, #867, .T. ) ;
#372 = CARTESIAN_POINT ( 'NONE',  ( 0.8193257200256635064, 2.608465151805457793, 0.1499999999999999944 ) ) ;
#373 = VECTOR ( 'NONE', #758, 39.37007874015748854 ) ;
#374 = VERTEX_POINT ( 'NONE', #28 ) ;
#375 = VECTOR ( 'NONE', #793, 39.37007874015748143 ) ;
#376 = ORIENTED_EDGE ( 'NONE', *, *, #862, .T. ) ;
#377 = CARTESIAN_POINT ( 'NONE',  ( 0.4451963743104059845, 0.2563213759392474755, 3.356616535228035981E-17 ) ) ;
#378 = DIRECTION ( 'NONE',  ( -1.000000000000000000, 0.000000000000000000, -0.000000000000000000 ) ) ;
#379 = ORIENTED_EDGE ( 'NONE', *, *, #748, .T. ) ;
#380 = FACE_BOUND ( 'NONE', #475, .T. ) ;
#381 = DIRECTION ( 'NONE',  ( 0.9848077530122050227, 0.1736481776669483446, 0.000000000000000000 ) ) ;
#382 = CARTESIAN_POINT ( 'NONE',  ( -0.4058040641899175460, 0.2632673030459240504, 2.301130762691122329E-17 ) ) ;
#383 = EDGE_CURVE ( 'NONE', #246, #857, #87, .T. ) ;
#384 = ORIENTED_EDGE ( 'NONE', *, *, #83, .F. ) ;
#385 = CARTESIAN_POINT ( 'NONE',  ( -0.7914941634819516736, 2.450624551167427168, 3.163412899127687899E-16 ) ) ;
#386 = DIRECTION ( 'NONE',  ( -0.01941295861592248415, 0.1100963592634741361, -0.9937313161588018362 ) ) ;
#387 = VECTOR ( 'NONE', #728, 39.37007874015748143 ) ;
#388 = VECTOR ( 'NONE', #1045, 39.37007874015748854 ) ;
#389 = ORIENTED_EDGE ( 'NONE', *, *, #123, .F. ) ;
#390 = EDGE_CURVE ( 'NONE', #315, #470, #747, .T. ) ;
#391 = CARTESIAN_POINT ( 'NONE',  ( 0.3999999999999999667, 0.04000000000000000083, 0.2500000000000000000 ) ) ;
#392 = VECTOR ( 'NONE', #582, 39.37007874015748854 ) ;
#393 = AXIS2_PLACEMENT_3D ( 'NONE', #51, #529, #378 ) ;
#394 = UNCERTAINTY_MEASURE_WITH_UNIT (LENGTH_MEASURE( 1.000000000000000082E-05 ), #893, 'distance_accuracy_value', 'NONE');
#395 = CARTESIAN_POINT ( 'NONE',  ( -0.9252038573977126035, 2.517877449401294321, 3.233398211251061382E-16 ) ) ;
#396 = CARTESIAN_POINT ( 'NONE',  ( 0.8760828479128467405, 2.700000000000000178, -0.1499999999999999667 ) ) ;
#397 = VERTEX_POINT ( 'NONE', #919 ) ;
#398 = CARTESIAN_POINT ( 'NONE',  ( -0.8760828479128467405, 2.700000000000000178, 0.1499999999999999944 ) ) ;
#399 = LINE ( 'NONE', #217, #899 ) ;
#400 = CARTESIAN_POINT ( 'NONE',  ( 0.8587180301461539988, 2.601519224698779720, -0.2500000000000000000 ) ) ;
#401 = ORIENTED_EDGE ( 'NONE', *, *, #426, .T. ) ;
#402 = DIRECTION ( 'NONE',  ( -0.9848077530122085754, -0.1736481776669272781, -3.928047044485943742E-18 ) ) ;
#403 = ORIENTED_EDGE ( 'NONE', *, *, #636, .T. ) ;
#404 = FACE_OUTER_BOUND ( 'NONE', #737, .T. ) ;
#405 = ADVANCED_FACE ( 'NONE', ( #502 ), #463, .T. ) ;
#406 = DIRECTION ( 'NONE',  ( 1.000000000000000000, 0.000000000000000000, 0.000000000000000000 ) ) ;
#407 = ORIENTED_EDGE ( 'NONE', *, *, #772, .T. ) ;
#408 = CARTESIAN_POINT ( 'NONE',  ( 0.3999999999999999667, 0.000000000000000000, -0.2500000000000000000 ) ) ;
#409 = ORIENTED_EDGE ( 'NONE', *, *, #118, .T. ) ;
#410 = CIRCLE ( 'NONE', #642, 0.01000000000000011817 ) ;
#411 = CIRCLE ( 'NONE', #117, 0.1000000000000000194 ) ;
#412 = CYLINDRICAL_SURFACE ( 'NONE', #957, 0.1000000000000000194 ) ;
#413 = DIRECTION ( 'NONE',  ( -0.000000000000000000, -0.000000000000000000, -1.000000000000000000 ) ) ;
#414 = ORIENTED_EDGE ( 'NONE', *, *, #1084, .F. ) ;
#415 = DIRECTION ( 'NONE',  ( 0.000000000000000000, -0.000000000000000000, -1.000000000000000000 ) ) ;
#416 = LINE ( 'NONE', #108, #373 ) ;
#417 = DIRECTION ( 'NONE',  ( -0.1736481776669194788, -0.9848077530122099077, 0.000000000000000000 ) ) ;
#418 = ORIENTED_EDGE ( 'NONE', *, *, #1007, .F. ) ;
#419 = CARTESIAN_POINT ( 'NONE',  ( 0.2957387295819055018, 0.2725205250591644646, 3.414809992080329023E-17 ) ) ;
#420 = EDGE_CURVE ( 'NONE', #814, #97, #965, .T. ) ;
#421 = ORIENTED_EDGE ( 'NONE', *, *, #729, .T. ) ;
#422 = EDGE_CURVE ( 'NONE', #374, #1055, #193, .T. ) ;
#423 = CARTESIAN_POINT ( 'NONE',  ( 0.8587180301461539988, 2.601519224698779276, -0.1499999999999999944 ) ) ;
#424 = DIRECTION ( 'NONE',  ( -1.000000000000000000, 0.000000000000000000, 0.000000000000000000 ) ) ;
#425 = VERTEX_POINT ( 'NONE', #291 ) ;
#426 = EDGE_CURVE ( 'NONE', #29, #25, #41, .T. ) ;
#427 = VERTEX_POINT ( 'NONE', #873 ) ;
#428 = VECTOR ( 'NONE', #148, 39.37007874015748854 ) ;
#429 = CIRCLE ( 'NONE', #1063, 0.009999999999999995004 ) ;
#430 = LINE ( 'NONE', #914, #623 ) ;
#431 = VECTOR ( 'NONE', #129, 39.37007874015748854 ) ;
#432 = CARTESIAN_POINT ( 'NONE',  ( 0.8366905377923583575, 2.706945927106678251, -0.1499999999999999667 ) ) ;
#433 = ORIENTED_EDGE ( 'NONE', *, *, #107, .T. ) ;
#434 = DIRECTION ( 'NONE',  ( 0.9848077530122085754, -0.1736481776669272503, 0.000000000000000000 ) ) ;
#435 = ORIENTED_EDGE ( 'NONE', *, *, #933, .T. ) ;
#436 = CARTESIAN_POINT ( 'NONE',  ( -0.2825260516351804085, 0.1400000000000000133, 0.2500000000000000000 ) ) ;
#437 = DIRECTION ( 'NONE',  ( 0.000000000000000000, 0.000000000000000000, -1.000000000000000000 ) ) ;
#438 = ORIENTED_EDGE ( 'NONE', *, *, #21, .F. ) ;
#439 = PRODUCT_CONTEXT ( 'NONE', #38, 'mechanical' ) ;
#440 = EDGE_LOOP ( 'NONE', ( #818, #721, #517, #879, #1024, #491, #310, #851, #11, #885, #435, #568 ) ) ;
#441 = APPLICATION_CONTEXT ( 'automotive_design' ) ;
#442 = ADVANCED_FACE ( 'NONE', ( #878 ), #798, .T. ) ;
#443 = DIRECTION ( 'NONE',  ( 0.9848077530122050227, -0.1736481776669483446, 0.000000000000000000 ) ) ;
#444 = ORIENTED_EDGE ( 'NONE', *, *, #566, .F. ) ;
#445 =( NAMED_UNIT ( * ) SI_UNIT ( $, .STERADIAN. ) SOLID_ANGLE_UNIT ( ) );
#446 = VERTEX_POINT ( 'NONE', #715 ) ;
#447 = VECTOR ( 'NONE', #1006, 39.37007874015748854 ) ;
#448 = AXIS2_PLACEMENT_3D ( 'NONE', #472, #805, #675 ) ;
#449 = CYLINDRICAL_SURFACE ( 'NONE', #66, 0.1000000000000000194 ) ;
#450 = VECTOR ( 'NONE', #60, 39.37007874015748143 ) ;
#451 = CIRCLE ( 'NONE', #588, 0.1000000000000001998 ) ;
#452 = CARTESIAN_POINT ( 'NONE',  ( -0.3160900368822717743, 0.1000000000000000056, -0.2500000000000000000 ) ) ;
#453 = EDGE_CURVE ( 'NONE', #631, #172, #945, .T. ) ;
#454 = ORIENTED_EDGE ( 'NONE', *, *, #371, .T. ) ;
#455 = CARTESIAN_POINT ( 'NONE',  ( -0.8587180301461539988, 2.601519224698779276, -0.1499999999999999944 ) ) ;
#456 = CARTESIAN_POINT ( 'NONE',  ( -0.7168260441974001473, 1.336108145786645496, -0.1349999999999997868 ) ) ;
#457 = ORIENTED_EDGE ( 'NONE', *, *, #1031, .T. ) ;
#458 = ADVANCED_FACE ( 'NONE', ( #863 ), #1053, .T. ) ;
#459 = LINE ( 'NONE', #351, #254 ) ;
#460 = CARTESIAN_POINT ( 'NONE',  ( 0.2825260516351804085, 0.04000000000000000083, -0.2500000000000000000 ) ) ;
#461 = ORIENTED_EDGE ( 'NONE', *, *, #559, .T. ) ;
#462 = EDGE_CURVE ( 'NONE', #687, #727, #285, .T. ) ;
#463 = CYLINDRICAL_SURFACE ( 'NONE', #903, 0.1000000000000000333 ) ;
#464 = AXIS2_PLACEMENT_3D ( 'NONE', #506, #255, #998 ) ;
#465 = DIRECTION ( 'NONE',  ( -0.9848077530122085754, -0.1736481776669272781, 3.879258905341983657E-18 ) ) ;
#466 = VECTOR ( 'NONE', #806, 39.37007874015748143 ) ;
#467 = ORIENTED_EDGE ( 'NONE', *, *, #850, .F. ) ;
#468 = DIRECTION ( 'NONE',  ( -0.9848077530122085754, -0.1736481776669272503, 3.490517547424260691E-18 ) ) ;
#469 = DIRECTION ( 'NONE',  ( 0.1736481776669271948, 0.9848077530122085754, 0.000000000000000000 ) ) ;
#470 = VERTEX_POINT ( 'NONE', #858 ) ;
#471 = DIRECTION ( 'NONE',  ( 0.9848077530122087975, 0.1736481776669272226, -0.000000000000000000 ) ) ;
#472 = CARTESIAN_POINT ( 'NONE',  ( 0.2819424478042792948, 0.1942779230353881559, 2.721076947154183238E-17 ) ) ;
#473 = EDGE_CURVE ( 'NONE', #39, #764, #112, .T. ) ;
#474 = LINE ( 'NONE', #817, #466 ) ;
#475 = EDGE_LOOP ( 'NONE', ( #770, #573, #174, #704, #781, #616, #627 ) ) ;
#476 = FACE_OUTER_BOUND ( 'NONE', #732, .T. ) ;
#477 = DIRECTION ( 'NONE',  ( -0.1725596321415330259, -0.9786343045642142968, 0.1117947730678655466 ) ) ;
#478 = DIRECTION ( 'NONE',  ( 0.1725596321415329981, 0.9786343045642142968, 0.1117947730678651719 ) ) ;
#479 = AXIS2_PLACEMENT_3D ( 'NONE', #362, #593, #775 ) ;
#480 = ORIENTED_EDGE ( 'NONE', *, *, #827, .F. ) ;
#481 = CARTESIAN_POINT ( 'NONE',  ( 0.3810068269364012550, 0.1226351822333072855, 0.2500000000000000000 ) ) ;
#482 = VECTOR ( 'NONE', #813, 39.37007874015748143 ) ;
#483 = CYLINDRICAL_SURFACE ( 'NONE', #286, 0.009999999999999995004 ) ;
#484 = DIRECTION ( 'NONE',  ( 0.9848077530122085754, 0.1736481776669272503, 3.447698085908007960E-18 ) ) ;
#485 = EDGE_LOOP ( 'NONE', ( #1032, #119, #294, #557 ) ) ;
#486 = LINE ( 'NONE', #166, #204 ) ;
#487 = ADVANCED_FACE ( 'NONE', ( #1049 ), #449, .T. ) ;
#488 = ORIENTED_EDGE ( 'NONE', *, *, #933, .F. ) ;
#489 = CARTESIAN_POINT ( 'NONE',  ( -0.4707795059890304556, 2.669923253363910121, -0.1499999999999999944 ) ) ;
#490 = FACE_OUTER_BOUND ( 'NONE', #106, .T. ) ;
#491 = ORIENTED_EDGE ( 'NONE', *, *, #201, .T. ) ;
#492 = DIRECTION ( 'NONE',  ( 0.9848077530122085754, -0.1736481776669272781, -4.281946151625311577E-20 ) ) ;
#493 = EDGE_LOOP ( 'NONE', ( #886, #988, #58, #33 ) ) ;
#494 = PRODUCT_DEFINITION ( 'UNKNOWN', '', #585, #125 ) ;
#495 = LINE ( 'NONE', #931, #1083 ) ;
#496 = PLANE ( 'NONE',  #765 ) ;
#497 = VERTEX_POINT ( 'NONE', #533 ) ;
#498 = CARTESIAN_POINT ( 'NONE',  ( 0.4296636107561105367, 0.1682306963853490711, 2.721076947154183238E-17 ) ) ;
#499 = AXIS2_PLACEMENT_3D ( 'NONE', #2, #171, #938 ) ;
#500 = FACE_OUTER_BOUND ( 'NONE', #367, .T. ) ;
#501 = ADVANCED_FACE ( 'NONE', ( #36 ), #777, .F. ) ;
#502 = FACE_OUTER_BOUND ( 'NONE', #911, .T. ) ;
#503 = ORIENTED_EDGE ( 'NONE', *, *, #686, .F. ) ;
#504 = DIRECTION ( 'NONE',  ( -1.000000000000000000, 0.000000000000000000, 0.000000000000000000 ) ) ;
#505 = VERTEX_POINT ( 'NONE', #202 ) ;
#506 = CARTESIAN_POINT ( 'NONE',  ( 0.3160900368822717188, 0.1000000000000000056, 0.2500000000000000000 ) ) ;
#507 = DIRECTION ( 'NONE',  ( -0.9848077530122085754, 0.1736481776669272781, 3.048848108864146628E-22 ) ) ;
#508 = EDGE_CURVE ( 'NONE', #514, #165, #121, .T. ) ;
#509 = ORIENTED_EDGE ( 'NONE', *, *, #739, .F. ) ;
#510 = CARTESIAN_POINT ( 'NONE',  ( 0.8760828479128467405, 2.700000000000000178, 0.2500000000000000000 ) ) ;
#511 = ORIENTED_EDGE ( 'NONE', *, *, #352, .F. ) ;
#512 = PLANE ( 'NONE',  #304 ) ;
#513 = FACE_OUTER_BOUND ( 'NONE', #53, .T. ) ;
#514 = VERTEX_POINT ( 'NONE', #699 ) ;
#515 =( NAMED_UNIT ( * ) PLANE_ANGLE_UNIT ( ) SI_UNIT ( $, .RADIAN. ) );
#516 = AXIS2_PLACEMENT_3D ( 'NONE', #683, #1036, #762 ) ;
#517 = ORIENTED_EDGE ( 'NONE', *, *, #5, .T. ) ;
#518 = VECTOR ( 'NONE', #553, 39.37007874015748143 ) ;
#519 = CYLINDRICAL_SURFACE ( 'NONE', #464, 0.1000000000000000194 ) ;
#520 = DIRECTION ( 'NONE',  ( -0.9848077530122085754, -0.1736481776669272503, 0.000000000000000000 ) ) ;
#521 = ORIENTED_EDGE ( 'NONE', *, *, #1054, .T. ) ;
#522 = CYLINDRICAL_SURFACE ( 'NONE', #479, 0.1000000000000000333 ) ;
#523 = EDGE_LOOP ( 'NONE', ( #361, #105, #259, #682 ) ) ;
#524 = EDGE_CURVE ( 'NONE', #700, #947, #451, .T. ) ;
#525 = DIRECTION ( 'NONE',  ( -0.9848077530122048007, 0.1736481776669483168, 0.000000000000000000 ) ) ;
#526 = EDGE_LOOP ( 'NONE', ( #208, #717, #92, #289 ) ) ;
#527 = DIRECTION ( 'NONE',  ( -0.000000000000000000, -0.000000000000000000, 1.000000000000000000 ) ) ;
#528 = EDGE_LOOP ( 'NONE', ( #578, #667, #1005, #521, #189, #689 ) ) ;
#529 = DIRECTION ( 'NONE',  ( 0.000000000000000000, 0.000000000000000000, -1.000000000000000000 ) ) ;
#530 = CARTESIAN_POINT ( 'NONE',  ( 0.8464192371567358375, 2.531769303614649136, -4.142918808507379021E-16 ) ) ;
#531 = VERTEX_POINT ( 'NONE', #788 ) ;
#532 = AXIS2_PLACEMENT_3D ( 'NONE', #688, #769, #756 ) ;
#533 = CARTESIAN_POINT ( 'NONE',  ( 0.4056099346037584374, 0.2621663394532898206, -0.009937313161588016974 ) ) ;
#534 = VECTOR ( 'NONE', #314, 39.37007874015748143 ) ;
#535 = EDGE_CURVE ( 'NONE', #764, #147, #368, .T. ) ;
#536 = VECTOR ( 'NONE', #358, 39.37007874015748143 ) ;
#537 = DIRECTION ( 'NONE',  ( 0.1725596321415330259, 0.9786343045642142968, 0.1117947730678651719 ) ) ;
#538 = EDGE_CURVE ( 'NONE', #814, #1068, #203, .T. ) ;
#539 = ORIENTED_EDGE ( 'NONE', *, *, #183, .F. ) ;
#540 = UNCERTAINTY_MEASURE_WITH_UNIT (LENGTH_MEASURE( 1.000000000000000082E-05 ), #779, 'distance_accuracy_value', 'NONE');
#541 = LINE ( 'NONE', #460, #760 ) ;
#542 = CARTESIAN_POINT ( 'NONE',  ( -0.5222445127747132876, 0.2325814441957706757, 2.347681869555226049E-17 ) ) ;
#543 = EDGE_CURVE ( 'NONE', #514, #29, #541, .T. ) ;
#544 = EDGE_LOOP ( 'NONE', ( #656, #1038, #610, #968, #81, #270, #258, #1073, #211, #454, #1000, #379 ) ) ;
#545 = CARTESIAN_POINT ( 'NONE',  ( 0.3999999999999999667, 0.04000000000000000083, -0.2500000000000000000 ) ) ;
#546 = EDGE_CURVE ( 'NONE', #397, #315, #399, .T. ) ;
#547 = ORIENTED_EDGE ( 'NONE', *, *, #27, .T. ) ;
#548 = DIRECTION ( 'NONE',  ( 0.1725596321415331091, 0.9786343045642142968, -0.1117947730678653245 ) ) ;
#549 = PLANE ( 'NONE',  #641 ) ;
#550 = VECTOR ( 'NONE', #468, 39.37007874015748854 ) ;
#551 = CIRCLE ( 'NONE', #170, 0.1000000000000001998 ) ;
#552 = ORIENTED_EDGE ( 'NONE', *, *, #926, .F. ) ;
#553 = DIRECTION ( 'NONE',  ( -0.000000000000000000, -0.000000000000000000, -1.000000000000000000 ) ) ;
#554 = EDGE_CURVE ( 'NONE', #791, #531, #1058, .T. ) ;
#555 = DIRECTION ( 'NONE',  ( -1.000000000000000000, 0.000000000000000000, 0.000000000000000000 ) ) ;
#556 = CARTESIAN_POINT ( 'NONE',  ( -0.4051935541507933336, 0.02945410923459508903, -0.01585321196620002177 ) ) ;
#557 = ORIENTED_EDGE ( 'NONE', *, *, #347, .T. ) ;
#558 = SURFACE_STYLE_FILL_AREA ( #956 ) ;
#559 = EDGE_CURVE ( 'NONE', #446, #265, #811, .T. ) ;
#560 = CARTESIAN_POINT ( 'NONE',  ( -0.8366905377923583575, 2.706945927106678251, 0.1499999999999999944 ) ) ;
#561 = DIRECTION ( 'NONE',  ( -1.000000000000000000, 0.000000000000000000, 0.000000000000000000 ) ) ;
#562 = VERTEX_POINT ( 'NONE', #724 ) ;
#563 = FACE_OUTER_BOUND ( 'NONE', #317, .T. ) ;
#564 = CARTESIAN_POINT ( 'NONE',  ( 0.4451963743104059845, 0.2563213759392474755, 3.356616535228035981E-17 ) ) ;
#565 = CYLINDRICAL_SURFACE ( 'NONE', #958, 0.1000000000000000194 ) ;
#566 = EDGE_CURVE ( 'NONE', #727, #955, #65, .T. ) ;
#567 = VECTOR ( 'NONE', #169, 39.37007874015748143 ) ;
#568 = ORIENTED_EDGE ( 'NONE', *, *, #1017, .T. ) ;
#569 = CARTESIAN_POINT ( 'NONE',  ( 0.4903202610045921395, 1.376047226650038979, 0.1349999999999998701 ) ) ;
#570 = VECTOR ( 'NONE', #465, 39.37007874015748854 ) ;
#571 = DIRECTION ( 'NONE',  ( 0.9848077530122048007, -0.1736481776669483168, 0.000000000000000000 ) ) ;
#572 = DIRECTION ( 'NONE',  ( 0.000000000000000000, 0.000000000000000000, 1.000000000000000000 ) ) ;
#573 = ORIENTED_EDGE ( 'NONE', *, *, #261, .T. ) ;
#574 = ADVANCED_FACE ( 'NONE', ( #816 ), #549, .T. ) ;
#575 = LINE ( 'NONE', #408, #622 ) ;
#576 = FACE_OUTER_BOUND ( 'NONE', #177, .T. ) ;
#577 = DIRECTION ( 'NONE',  ( 0.1736481776669284438, -0.9848077530122083534, 0.000000000000000000 ) ) ;
#578 = ORIENTED_EDGE ( 'NONE', *, *, #191, .T. ) ;
#579 = CYLINDRICAL_SURFACE ( 'NONE', #357, 0.009999999999999995004 ) ;
#580 = ADVANCED_FACE ( 'NONE', ( #72 ), #652, .T. ) ;
#581 = DIRECTION ( 'NONE',  ( -0.1736481776669272503, -0.9848077530122085754, -0.000000000000000000 ) ) ;
#582 = DIRECTION ( 'NONE',  ( -0.1725596321415329981, -0.9786343045642142968, -0.1117947730678650609 ) ) ;
#583 = ORIENTED_EDGE ( 'NONE', *, *, #183, .T. ) ;
#584 = DIRECTION ( 'NONE',  ( -0.1736481776669272503, -0.9848077530122085754, -0.000000000000000000 ) ) ;
#585 = PRODUCT_DEFINITION_FORMATION_WITH_SPECIFIED_SOURCE ( 'ANY', '', #79, .NOT_KNOWN. ) ;
#586 = ORIENTED_EDGE ( 'NONE', *, *, #796, .T. ) ;
#587 = AXIS2_PLACEMENT_3D ( 'NONE', #343, #596, #176 ) ;
#588 = AXIS2_PLACEMENT_3D ( 'NONE', #455, #126, #1034 ) ;
#589 = DIRECTION ( 'NONE',  ( 0.1736481776669266397, 0.9848077530122086864, 0.000000000000000000 ) ) ;
#590 = CARTESIAN_POINT ( 'NONE',  ( -0.4007565632201278150, 0.004290683235702709084, 0.2887277683618183488 ) ) ;
#591 = EDGE_CURVE ( 'NONE', #39, #336, #410, .T. ) ;
#592 = ORIENTED_EDGE ( 'NONE', *, *, #1015, .F. ) ;
#593 = DIRECTION ( 'NONE',  ( -0.9848077530122050227, -0.1736481776669483446, 0.000000000000000000 ) ) ;
#594 = VERTEX_POINT ( 'NONE', #240 ) ;
#595 = LINE ( 'NONE', #179, #388 ) ;
#596 = DIRECTION ( 'NONE',  ( -0.9848077530122085754, 0.1736481776669272503, -0.000000000000000000 ) ) ;
#597 = EDGE_CURVE ( 'NONE', #246, #875, #308, .T. ) ;
#598 = ORIENTED_EDGE ( 'NONE', *, *, #156, .F. ) ;
#599 = FACE_OUTER_BOUND ( 'NONE', #344, .T. ) ;
#600 = ORIENTED_EDGE ( 'NONE', *, *, #619, .T. ) ;
#601 = DIRECTION ( 'NONE',  ( 0.9848077530122048007, 0.1736481776669483168, 0.000000000000000000 ) ) ;
#602 = CARTESIAN_POINT ( 'NONE',  ( -0.8193257200256659489, 2.608465151805458238, -0.2500000000000000000 ) ) ;
#603 = EDGE_LOOP ( 'NONE', ( #946, #787, #892, #94, #409, #196 ) ) ;
#604 =( LENGTH_UNIT ( ) NAMED_UNIT ( * ) SI_UNIT ( $, .METRE. ) );
#605 = EDGE_CURVE ( 'NONE', #29, #19, #34, .T. ) ;
#606 = ORIENTED_EDGE ( 'NONE', *, *, #71, .F. ) ;
#607 = CIRCLE ( 'NONE', #134, 0.009999999999999995004 ) ;
#608 = VECTOR ( 'NONE', #961, 39.37007874015748854 ) ;
#609 = DIRECTION ( 'NONE',  ( 0.1736481776669483446, 0.9848077530122049117, -0.000000000000000000 ) ) ;
#610 = ORIENTED_EDGE ( 'NONE', *, *, #1078, .F. ) ;
#611 = ADVANCED_FACE ( 'NONE', ( #404, #318 ), #883, .F. ) ;
#612 = VERTEX_POINT ( 'NONE', #300 ) ;
#613 = CARTESIAN_POINT ( 'NONE',  ( 0.4707795059890304556, 2.669923253363910121, -0.1499999999999999944 ) ) ;
#614 = DIRECTION ( 'NONE',  ( -0.1736481776669272503, 0.9848077530122085754, 0.000000000000000000 ) ) ;
#615 = DIRECTION ( 'NONE',  ( 0.1736481776669266397, 0.9848077530122086864, 0.000000000000000000 ) ) ;
#616 = ORIENTED_EDGE ( 'NONE', *, *, #850, .T. ) ;
#617 = ADVANCED_FACE ( 'NONE', ( #633 ), #483, .F. ) ;
#618 = DIRECTION ( 'NONE',  ( 0.1725596321415329981, -0.9786343045642142968, 0.1117947730678652413 ) ) ;
#619 = EDGE_CURVE ( 'NONE', #147, #425, #137, .T. ) ;
#620 = VERTEX_POINT ( 'NONE', #560 ) ;
#621 =( NAMED_UNIT ( * ) PLANE_ANGLE_UNIT ( ) SI_UNIT ( $, .RADIAN. ) );
#622 = VECTOR ( 'NONE', #584, 39.37007874015748854 ) ;
#623 = VECTOR ( 'NONE', #581, 39.37007874015748854 ) ;
#624 = EDGE_CURVE ( 'NONE', #921, #181, #359, .T. ) ;
#625 = CARTESIAN_POINT ( 'NONE',  ( 0.3999999999999999667, 0.04000000000000000083, 0.2500000000000000000 ) ) ;
#626 = CARTESIAN_POINT ( 'NONE',  ( 0.6380414239564233814, 1.350000000000000977, 0.1350000000000000366 ) ) ;
#627 = ORIENTED_EDGE ( 'NONE', *, *, #895, .F. ) ;
#628 = PLANE ( 'NONE',  #710 ) ;
#629 = DIRECTION ( 'NONE',  ( 0.1736481776669481225, 0.9848077530122049117, 0.000000000000000000 ) ) ;
#630 = CARTESIAN_POINT ( 'NONE',  ( -0.8587180301461539988, 2.601519224698779720, 0.2500000000000000000 ) ) ;
#631 = VERTEX_POINT ( 'NONE', #894 ) ;
#632 = DIRECTION ( 'NONE',  ( -0.9848077530122085754, 0.1736481776669272503, -0.000000000000000000 ) ) ;
#633 = FACE_OUTER_BOUND ( 'NONE', #821, .T. ) ;
#634 = CARTESIAN_POINT ( 'NONE',  ( -0.3999999999999999667, 0.000000000000000000, -0.2500000000000000000 ) ) ;
#635 = EDGE_LOOP ( 'NONE', ( #583, #403, #113, #235, #192, #650, #674 ) ) ;
#636 = EDGE_CURVE ( 'NONE', #425, #1056, #992, .T. ) ;
#637 = DIRECTION ( 'NONE',  ( 0.9848077530122085754, -0.1736481776669272503, 0.000000000000000000 ) ) ;
#638 = EDGE_CURVE ( 'NONE', #857, #562, #63, .T. ) ;
#639 = CIRCLE ( 'NONE', #810, 0.1000000000000001998 ) ;
#640 = DIRECTION ( 'NONE',  ( 0.9848077530122085754, 0.1736481776669272503, -0.000000000000000000 ) ) ;
#641 = AXIS2_PLACEMENT_3D ( 'NONE', #395, #78, #970 ) ;
#642 = AXIS2_PLACEMENT_3D ( 'NONE', #385, #1071, #730 ) ;
#643 = CARTESIAN_POINT ( 'NONE',  ( -0.3160900368822717743, 0.000000000000000000, 0.2500000000000000000 ) ) ;
#644 = VECTOR ( 'NONE', #103, 39.37007874015748854 ) ;
#645 = ORIENTED_EDGE ( 'NONE', *, *, #538, .T. ) ;
#646 = DIRECTION ( 'NONE',  ( -0.9848077530122085754, -0.1736481776669272503, 0.000000000000000000 ) ) ;
#647 = DIMENSIONAL_EXPONENTS ( 1.000000000000000000, 0.000000000000000000, 0.000000000000000000, 0.000000000000000000, 0.000000000000000000, 0.000000000000000000, 0.000000000000000000 ) ;
#648 = DIRECTION ( 'NONE',  ( -0.9848077530122086864, -0.1736481776669273058, 3.879258905341984428E-18 ) ) ;
#649 = DIRECTION ( 'NONE',  ( 0.9848077530122086864, -0.1736481776669272226, 0.000000000000000000 ) ) ;
#650 = ORIENTED_EDGE ( 'NONE', *, *, #1007, .T. ) ;
#651 = DIRECTION ( 'NONE',  ( -0.9848077530122086864, 0.1736481776669273058, 3.879563790152866891E-18 ) ) ;
#652 = CYLINDRICAL_SURFACE ( 'NONE', #882, 0.1000000000000000194 ) ;
#653 = ADVANCED_FACE ( 'NONE', ( #991 ), #142, .F. ) ;
#654 = DIRECTION ( 'NONE',  ( 0.1736481776669194788, 0.9848077530122099077, 0.000000000000000000 ) ) ;
#655 = ADVANCED_FACE ( 'NONE', ( #500 ), #519, .T. ) ;
#656 = ORIENTED_EDGE ( 'NONE', *, *, #293, .F. ) ;
#657 = CARTESIAN_POINT ( 'NONE',  ( 0.2974752113585747981, 0.2823686025892865326, 3.414809992080329023E-17 ) ) ;
#658 = CARTESIAN_POINT ( 'NONE',  ( 0.8193257200256657269, 2.608465151805456905, -0.1499999999999999944 ) ) ;
#659 = ADVANCED_FACE ( 'NONE', ( #746 ), #512, .T. ) ;
#660 = FACE_BOUND ( 'NONE', #251, .T. ) ;
#661 = COLOUR_RGB ( '',0.7921568627450980005, 0.8196078431372548767, 0.9333333333333333481 ) ;
#662 = ORIENTED_EDGE ( 'NONE', *, *, #766, .F. ) ;
#663 = CYLINDRICAL_SURFACE ( 'NONE', #918, 0.009999999999999995004 ) ;
#664 = AXIS2_PLACEMENT_3D ( 'NONE', #452, #910, #561 ) ;
#665 = CARTESIAN_POINT ( 'NONE',  ( -0.8310806031885993317, 2.444779587653385100, -0.009937313161587697785 ) ) ;
#666 = CARTESIAN_POINT ( 'NONE',  ( -0.4056099346037583819, 0.2621663394532892655, -0.009937313161587992688 ) ) ;
#667 = ORIENTED_EDGE ( 'NONE', *, *, #1015, .T. ) ;
#668 = PLANE ( 'NONE',  #795 ) ;
#669 = EDGE_LOOP ( 'NONE', ( #354, #1079, #263, #824 ) ) ;
#670 = CARTESIAN_POINT ( 'NONE',  ( -0.5084482309970871361, 0.1543388421719943115, 2.981289192304506287E-17 ) ) ;
#671 = CARTESIAN_POINT ( 'NONE',  ( 0.4903202610045921395, 1.376047226650038979, 0.1349999999999998701 ) ) ;
#672 = ORIENTED_EDGE ( 'NONE', *, *, #755, .T. ) ;
#673 = CARTESIAN_POINT ( 'NONE',  ( 0.4450022447242468204, 0.2552204123466129126, -0.009937313161588034321 ) ) ;
#674 = ORIENTED_EDGE ( 'NONE', *, *, #230, .T. ) ;
#675 = DIRECTION ( 'NONE',  ( 0.000000000000000000, -0.9939186193649264256, -0.1101171107490489659 ) ) ;
#676 = DIRECTION ( 'NONE',  ( 0.1725596321415330536, -0.9786343045642142968, 0.1117947730678652413 ) ) ;
#677 = ORIENTED_EDGE ( 'NONE', *, *, #390, .T. ) ;
#678 = ORIENTED_EDGE ( 'NONE', *, *, #538, .F. ) ;
#679 = VECTOR ( 'NONE', #786, 39.37007874015748143 ) ;
#680 = CARTESIAN_POINT ( 'NONE',  ( 0.8310806031885995537, 2.444779587653385544, 0.009937313161587642274 ) ) ;
#681 = DIRECTION ( 'NONE',  ( 0.1736481776669266397, -0.9848077530122086864, 0.000000000000000000 ) ) ;
#682 = ORIENTED_EDGE ( 'NONE', *, *, #45, .F. ) ;
#683 = CARTESIAN_POINT ( 'NONE',  ( 0.000000000000000000, 0.000000000000000000, 0.000000000000000000 ) ) ;
#684 = ORIENTED_EDGE ( 'NONE', *, *, #546, .T. ) ;
#685 = LINE ( 'NONE', #20, #831 ) ;
#686 = EDGE_CURVE ( 'NONE', #427, #497, #429, .T. ) ;
#687 = VERTEX_POINT ( 'NONE', #334 ) ;
#688 = CARTESIAN_POINT ( 'NONE',  ( 0.8193257200256657269, 2.608465151805456905, 0.1499999999999999944 ) ) ;
#689 = ORIENTED_EDGE ( 'NONE', *, *, #638, .T. ) ;
#690 = FACE_BOUND ( 'NONE', #635, .T. ) ;
#691 = DIRECTION ( 'NONE',  ( -0.1736481776669272503, 0.9848077530122085754, 0.000000000000000000 ) ) ;
#692 = ORIENTED_EDGE ( 'NONE', *, *, #473, .F. ) ;
#693 = CARTESIAN_POINT ( 'NONE',  ( -0.8193257200256657269, 2.608465151805456905, 0.1499999999999999944 ) ) ;
#694 = ADVANCED_FACE ( 'NONE', ( #576 ), #845, .T. ) ;
#695 = CIRCLE ( 'NONE', #763, 0.1000000000000001998 ) ;
#696 = ORIENTED_EDGE ( 'NONE', *, *, #543, .T. ) ;
#697 = VECTOR ( 'NONE', #84, 39.37007874015748854 ) ;
#698 = VECTOR ( 'NONE', #143, 39.37007874015748854 ) ;
#699 = CARTESIAN_POINT ( 'NONE',  ( 0.2825260516351804085, 0.04000000000000000083, 0.2500000000000000000 ) ) ;
#700 = VERTEX_POINT ( 'NONE', #100 ) ;
#701 = SHAPE_DEFINITION_REPRESENTATION ( #979, #303 ) ;
#702 = EDGE_LOOP ( 'NONE', ( #511, #592, #320, #280 ) ) ;
#703 = DIRECTION ( 'NONE',  ( 0.000000000000000000, 0.9939186193649264256, 0.1101171107490490769 ) ) ;
#704 = ORIENTED_EDGE ( 'NONE', *, *, #862, .F. ) ;
#705 = CARTESIAN_POINT ( 'NONE',  ( -0.3658012440303050616, 0.03640003634127217391, -0.01585321196620002177 ) ) ;
#706 = LINE ( 'NONE', #542, #570 ) ;
#707 = ORIENTED_EDGE ( 'NONE', *, *, #1023, .T. ) ;
#708 = LENGTH_MEASURE_WITH_UNIT ( LENGTH_MEASURE( 0.02539999999999999897 ), #718 );
#709 = AXIS2_PLACEMENT_3D ( 'NONE', #173, #18, #9 ) ;
#710 = AXIS2_PLACEMENT_3D ( 'NONE', #969, #981, #887 ) ;
#711 = DIRECTION ( 'NONE',  ( -0.000000000000000000, -0.000000000000000000, 1.000000000000000000 ) ) ;
#712 = AXIS2_PLACEMENT_3D ( 'NONE', #154, #904, #654 ) ;
#713 = ORIENTED_EDGE ( 'NONE', *, *, #508, .F. ) ;
#714 = DIRECTION ( 'NONE',  ( 0.1736481776669284438, -0.9848077530122083534, 0.000000000000000000 ) ) ;
#715 = CARTESIAN_POINT ( 'NONE',  ( -0.3810068269364012550, 0.1226351822333073271, -0.2500000000000000000 ) ) ;
#716 = EDGE_CURVE ( 'NONE', #505, #219, #430, .T. ) ;
#717 = ORIENTED_EDGE ( 'NONE', *, *, #248, .F. ) ;
#718 =( LENGTH_UNIT ( ) NAMED_UNIT ( * ) SI_UNIT ( $, .METRE. ) );
#719 = CARTESIAN_POINT ( 'NONE',  ( -0.4451963743104059290, 0.2563213759392469759, 2.316647798312490544E-17 ) ) ;
#720 = PLANE ( 'NONE',  #725 ) ;
#721 = ORIENTED_EDGE ( 'NONE', *, *, #77, .T. ) ;
#722 = FACE_OUTER_BOUND ( 'NONE', #768, .T. ) ;
#723 = CIRCLE ( 'NONE', #709, 0.009999999999999995004 ) ;
#724 = CARTESIAN_POINT ( 'NONE',  ( 0.8193257200256659489, 2.608465151805458238, -0.2500000000000000000 ) ) ;
#725 = AXIS2_PLACEMENT_3D ( 'NONE', #994, #649, #469 ) ;
#726 = FACE_OUTER_BOUND ( 'NONE', #669, .T. ) ;
#727 = VERTEX_POINT ( 'NONE', #840 ) ;
#728 = DIRECTION ( 'NONE',  ( 0.000000000000000000, 0.000000000000000000, -1.000000000000000000 ) ) ;
#729 = EDGE_CURVE ( 'NONE', #939, #620, #685, .T. ) ;
#730 = DIRECTION ( 'NONE',  ( 0.1736481776669194788, -0.9848077530122099077, 0.000000000000000000 ) ) ;
#731 = DIRECTION ( 'NONE',  ( -0.000000000000000000, -0.000000000000000000, 1.000000000000000000 ) ) ;
#732 = EDGE_LOOP ( 'NONE', ( #332, #678, #389, #110 ) ) ;
#733 = LINE ( 'NONE', #498, #253 ) ;
#734 = ADVANCED_FACE ( 'NONE', ( #163 ), #325, .F. ) ;
#735 = DIRECTION ( 'NONE',  ( 0.000000000000000000, 0.000000000000000000, -1.000000000000000000 ) ) ;
#736 = LINE ( 'NONE', #1077, #16 ) ;
#737 = EDGE_LOOP ( 'NONE', ( #662, #132, #461, #934, #774, #144 ) ) ;
#738 = PLANE ( 'NONE',  #322 ) ;
#739 = EDGE_CURVE ( 'NONE', #212, #194, #1046, .T. ) ;
#740 = CARTESIAN_POINT ( 'NONE',  ( 0.2825260516351804085, 0.1400000000000000133, -0.2500000000000000000 ) ) ;
#741 = DIRECTION ( 'NONE',  ( 0.000000000000000000, 0.9939186193649264256, 0.1101171107490491324 ) ) ;
#742 = VECTOR ( 'NONE', #548, 39.37007874015748854 ) ;
#743 = ORIENTED_EDGE ( 'NONE', *, *, #827, .T. ) ;
#744 = CARTESIAN_POINT ( 'NONE',  ( -0.8587180301461539988, 2.601519224698779720, -0.2500000000000000000 ) ) ;
#745 = VECTOR ( 'NONE', #292, 39.37007874015748143 ) ;
#746 = FACE_OUTER_BOUND ( 'NONE', #493, .T. ) ;
#747 = LINE ( 'NONE', #250, #392 ) ;
#748 = EDGE_CURVE ( 'NONE', #127, #47, #495, .T. ) ;
#749 = VERTEX_POINT ( 'NONE', #6 ) ;
#750 = CARTESIAN_POINT ( 'NONE',  ( 0.4450022447242469315, 0.2552204123466126906, -0.009937313161587978810 ) ) ;
#751 = ORIENTED_EDGE ( 'NONE', *, *, #790, .F. ) ;
#752 = FACE_OUTER_BOUND ( 'NONE', #523, .T. ) ;
#753 = CARTESIAN_POINT ( 'NONE',  ( 0.8366905377923583575, 2.706945927106678251, 0.2500000000000000000 ) ) ;
#754 = EDGE_LOOP ( 'NONE', ( #418, #8, #31, #1086 ) ) ;
#755 = EDGE_CURVE ( 'NONE', #803, #470, #416, .T. ) ;
#756 = DIRECTION ( 'NONE',  ( 0.1736481776669266397, 0.9848077530122086864, -1.707404996040161011E-15 ) ) ;
#757 = ORIENTED_EDGE ( 'NONE', *, *, #995, .T. ) ;
#758 = DIRECTION ( 'NONE',  ( -0.9848077530122085754, 0.1736481776669272503, 4.281946151625312179E-20 ) ) ;
#759 = DIRECTION ( 'NONE',  ( -1.000000000000000000, 0.000000000000000000, 0.000000000000000000 ) ) ;
#760 = VECTOR ( 'NONE', #735, 39.37007874015748143 ) ;
#761 = VERTEX_POINT ( 'NONE', #917 ) ;
#762 = DIRECTION ( 'NONE',  ( 1.000000000000000000, 0.000000000000000000, 0.000000000000000000 ) ) ;
#763 = AXIS2_PLACEMENT_3D ( 'NONE', #693, #190, #24 ) ;
#764 = VERTEX_POINT ( 'NONE', #12 ) ;
#765 = AXIS2_PLACEMENT_3D ( 'NONE', #671, #1016, #829 ) ;
#766 = EDGE_CURVE ( 'NONE', #928, #127, #346, .T. ) ;
#767 = DIRECTION ( 'NONE',  ( 0.000000000000000000, 0.000000000000000000, -1.000000000000000000 ) ) ;
#768 = EDGE_LOOP ( 'NONE', ( #757, #407, #444, #547 ) ) ;
#769 = DIRECTION ( 'NONE',  ( -0.9848077530122087975, 0.1736481776669272226, -0.000000000000000000 ) ) ;
#770 = ORIENTED_EDGE ( 'NONE', *, *, #197, .F. ) ;
#771 =( NAMED_UNIT ( * ) SI_UNIT ( $, .STERADIAN. ) SOLID_ANGLE_UNIT ( ) );
#772 = EDGE_CURVE ( 'NONE', #336, #955, #1021, .T. ) ;
#773 = CARTESIAN_POINT ( 'NONE',  ( -0.2825260516351804085, 0.1400000000000000133, 0.2500000000000000000 ) ) ;
#774 = ORIENTED_EDGE ( 'NONE', *, *, #830, .F. ) ;
#775 = DIRECTION ( 'NONE',  ( 0.1736481776669487886, -0.9848077530122048007, 0.000000000000000000 ) ) ;
#776 = ORIENTED_EDGE ( 'NONE', *, *, #686, .T. ) ;
#777 = PLANE ( 'NONE',  #1012 ) ;
#778 = ADVANCED_FACE ( 'NONE', ( #752 ), #412, .F. ) ;
#779 =( CONVERSION_BASED_UNIT ( 'INCH', #856 ) LENGTH_UNIT ( ) NAMED_UNIT ( #1002 ) );
#780 = AXIS2_PLACEMENT_3D ( 'NONE', #985, #329, #232 ) ;
#781 = ORIENTED_EDGE ( 'NONE', *, *, #624, .T. ) ;
#782 = AXIS2_PLACEMENT_3D ( 'NONE', #1014, #853, #95 ) ;
#783 = VECTOR ( 'NONE', #537, 39.37007874015748854 ) ;
#784 = VECTOR ( 'NONE', #915, 39.37007874015748854 ) ;
#785 = DIRECTION ( 'NONE',  ( -0.1725596321415330536, 0.9786343045642142968, -0.1117947730678649637 ) ) ;
#786 = DIRECTION ( 'NONE',  ( -0.000000000000000000, -0.000000000000000000, 1.000000000000000000 ) ) ;
#787 = ORIENTED_EDGE ( 'NONE', *, *, #21, .T. ) ;
#788 = CARTESIAN_POINT ( 'NONE',  ( 0.3810068269364012550, 0.1226351822333073271, 0.2500000000000000000 ) ) ;
#789 = DIRECTION ( 'NONE',  ( 0.9848077530122085754, 0.1736481776669272781, 0.000000000000000000 ) ) ;
#790 = EDGE_CURVE ( 'NONE', #924, #98, #221, .T. ) ;
#791 = VERTEX_POINT ( 'NONE', #341 ) ;
#792 = SURFACE_SIDE_STYLE ('',( #558 ) ) ;
#793 = DIRECTION ( 'NONE',  ( -1.000000000000000000, 0.000000000000000000, -0.000000000000000000 ) ) ;
#794 = VERTEX_POINT ( 'NONE', #680 ) ;
#795 = AXIS2_PLACEMENT_3D ( 'NONE', #1074, #333, #1001 ) ;
#796 = EDGE_CURVE ( 'NONE', #497, #871, #595, .T. ) ;
#797 = AXIS2_PLACEMENT_3D ( 'NONE', #1027, #646, #290 ) ;
#798 = PLANE ( 'NONE',  #393 ) ;
#799 = ORIENTED_EDGE ( 'NONE', *, *, #748, .F. ) ;
#800 = CARTESIAN_POINT ( 'NONE',  ( 0.8366905377923583575, 2.706945927106678251, -0.1499999999999999667 ) ) ;
#801 = DIRECTION ( 'NONE',  ( -0.1736481776669272226, -0.9848077530122085754, 0.000000000000000000 ) ) ;
#802 = CARTESIAN_POINT ( 'NONE',  ( 0.3710098855576079990, 0.06593971033997199360, -0.2824787327191706221 ) ) ;
#803 = VERTEX_POINT ( 'NONE', #220 ) ;
#804 = DIRECTION ( 'NONE',  ( 0.1736481776669266397, -0.9848077530122086864, -8.537024980200805055E-16 ) ) ;
#805 = DIRECTION ( 'NONE',  ( -0.01941295861592244945, -0.1100963592634739696, 0.9937313161588018362 ) ) ;
#806 = DIRECTION ( 'NONE',  ( -0.1736481776669272226, -0.9848077530122085754, 0.000000000000000000 ) ) ;
#807 = ADVANCED_FACE ( 'NONE', ( #128, #690 ), #306, .T. ) ;
#808 = ORIENTED_EDGE ( 'NONE', *, *, #796, .F. ) ;
#809 = LINE ( 'NONE', #82, #387 ) ;
#810 = AXIS2_PLACEMENT_3D ( 'NONE', #140, #471, #804 ) ;
#811 = LINE ( 'NONE', #223, #847 ) ;
#812 = AXIS2_PLACEMENT_3D ( 'NONE', #185, #1008, #249 ) ;
#813 = DIRECTION ( 'NONE',  ( -0.1725596321415329704, -0.9786343045642142968, 0.1117947730678655466 ) ) ;
#814 = VERTEX_POINT ( 'NONE', #872 ) ;
#815 = CYLINDRICAL_SURFACE ( 'NONE', #131, 0.01000000000000011817 ) ;
#816 = FACE_OUTER_BOUND ( 'NONE', #984, .T. ) ;
#817 = CARTESIAN_POINT ( 'NONE',  ( 0.3606076898795116392, 0.006945927106677088347, -0.2500000000000000000 ) ) ;
#818 = ORIENTED_EDGE ( 'NONE', *, *, #40, .T. ) ;
#819 = FACE_OUTER_BOUND ( 'NONE', #832, .T. ) ;
#820 = ADVANCED_FACE ( 'NONE', ( #209 ), #628, .T. ) ;
#821 = EDGE_LOOP ( 'NONE', ( #1029, #17, #1051, #1020 ) ) ;
#822 = DIRECTION ( 'NONE',  ( -0.9848077530122086864, -0.1736481776669272226, 0.000000000000000000 ) ) ;
#823 = PLANE ( 'NONE',  #273 ) ;
#824 = ORIENTED_EDGE ( 'NONE', *, *, #453, .T. ) ;
#825 = DIRECTION ( 'NONE',  ( 0.000000000000000000, -1.000000000000000000, 0.000000000000000000 ) ) ;
#826 = CARTESIAN_POINT ( 'NONE',  ( -0.3606076898795116392, 0.006945927106677088347, 0.2500000000000000000 ) ) ;
#827 = EDGE_CURVE ( 'NONE', #871, #980, #459, .T. ) ;
#828 =( GEOMETRIC_REPRESENTATION_CONTEXT ( 3 ) GLOBAL_UNCERTAINTY_ASSIGNED_CONTEXT ( ( #540 ) ) GLOBAL_UNIT_ASSIGNED_CONTEXT ( ( #779, #515, #445 ) ) REPRESENTATION_CONTEXT ( 'NONE', 'WORKASPACE' ) );
#829 = DIRECTION ( 'NONE',  ( 0.000000000000000000, -0.9939186193649264256, 0.1101171107490494655 ) ) ;
#830 = EDGE_CURVE ( 'NONE', #620, #242, #284, .T. ) ;
#831 = VECTOR ( 'NONE', #601, 39.37007874015748854 ) ;
#832 = EDGE_LOOP ( 'NONE', ( #401, #178, #713, #696 ) ) ;
#833 = DIRECTION ( 'NONE',  ( -0.1725596321415331369, -0.9786343045642142968, -0.1117947730678650331 ) ) ;
#834 = AXIS2_PLACEMENT_3D ( 'NONE', #67, #731, #1072 ) ;
#835 = DIRECTION ( 'NONE',  ( -0.000000000000000000, -0.000000000000000000, 1.000000000000000000 ) ) ;
#836 = PLANE ( 'NONE',  #499 ) ;
#837 = EDGE_LOOP ( 'NONE', ( #370, #1011, #509, #606 ) ) ;
#838 = EDGE_LOOP ( 'NONE', ( #88, #897, #645, #433, #298, #692, #930 ) ) ;
#839 = MANIFOLD_SOLID_BREP ( 'Fillet3', #307 ) ;
#840 = CARTESIAN_POINT ( 'NONE',  ( -0.6380414239564233814, 1.350000000000000089, -0.1349999999999998423 ) ) ;
#841 = LINE ( 'NONE', #432, #784 ) ;
#842 = CARTESIAN_POINT ( 'NONE',  ( 0.3999999999999999667, 0.000000000000000000, 0.2500000000000000000 ) ) ;
#843 = EDGE_CURVE ( 'NONE', #1056, #687, #15, .T. ) ;
#844 = ORIENTED_EDGE ( 'NONE', *, *, #624, .F. ) ;
#845 = CYLINDRICAL_SURFACE ( 'NONE', #812, 0.1000000000000000194 ) ;
#846 = FACE_OUTER_BOUND ( 'NONE', #544, .T. ) ;
#847 = VECTOR ( 'NONE', #1076, 39.37007874015748143 ) ;
#848 = ORIENTED_EDGE ( 'NONE', *, *, #83, .T. ) ;
#849 = APPLICATION_PROTOCOL_DEFINITION ( 'draft international standard', 'automotive_design', 1998, #441 ) ;
#850 = EDGE_CURVE ( 'NONE', #181, #803, #607, .T. ) ;
#851 = ORIENTED_EDGE ( 'NONE', *, *, #605, .T. ) ;
#852 = AXIS2_PLACEMENT_3D ( 'NONE', #331, #335, #262 ) ;
#853 = DIRECTION ( 'NONE',  ( -0.01941295861592250496, -0.1100963592634742472, -0.9937313161588018362 ) ) ;
#854 = CARTESIAN_POINT ( 'NONE',  ( 0.8366905377923583575, 2.706945927106678251, 0.1499999999999999944 ) ) ;
#855 = ORIENTED_EDGE ( 'NONE', *, *, #926, .T. ) ;
#856 = LENGTH_MEASURE_WITH_UNIT ( LENGTH_MEASURE( 0.02539999999999999897 ), #604 );
#857 = VERTEX_POINT ( 'NONE', #800 ) ;
#858 = CARTESIAN_POINT ( 'NONE',  ( 0.4056099346037584374, 0.2621663394532898206, 0.009937313161588069016 ) ) ;
#859 = ORIENTED_EDGE ( 'NONE', *, *, #248, .T. ) ;
#860 = LINE ( 'NONE', #842, #1081 ) ;
#861 = ORIENTED_EDGE ( 'NONE', *, *, #739, .T. ) ;
#862 = EDGE_CURVE ( 'NONE', #921, #980, #26, .T. ) ;
#863 = FACE_OUTER_BOUND ( 'NONE', #485, .T. ) ;
#864 = CARTESIAN_POINT ( 'NONE',  ( 0.4707795059890304556, 2.669923253363910121, -0.2500000000000000000 ) ) ;
#865 = ORIENTED_EDGE ( 'NONE', *, *, #118, .F. ) ;
#866 = PRESENTATION_LAYER_ASSIGNMENT (  '', '', ( #975 ) ) ;
#867 = CIRCLE ( 'NONE', #288, 0.1000000000000000194 ) ;
#868 = VECTOR ( 'NONE', #618, 39.37007874015748854 ) ;
#869 = CARTESIAN_POINT ( 'NONE',  ( -0.3955479216928248776, -0.02524899076299706377, 0.02210224760884777970 ) ) ;
#870 = CARTESIAN_POINT ( 'NONE',  ( -0.4707795059890304556, 2.669923253363910121, -0.2500000000000000000 ) ) ;
#871 = VERTEX_POINT ( 'NONE', #880 ) ;
#872 = CARTESIAN_POINT ( 'NONE',  ( -0.4056099346037583819, 0.2621663394532893765, -0.009937313161588013505 ) ) ;
#873 = CARTESIAN_POINT ( 'NONE',  ( 0.4040675824132484162, 0.2534192255158024820, 3.372134790388647295E-17 ) ) ;
#874 = LINE ( 'NONE', #864, #920 ) ;
#875 = VERTEX_POINT ( 'NONE', #54 ) ;
#876 = ADVANCED_FACE ( 'NONE', ( #380, #1057 ), #299, .T. ) ;
#877 = CARTESIAN_POINT ( 'NONE',  ( -0.4451963743104059290, 0.2563213759392469759, 2.316647798312490544E-17 ) ) ;
#878 = FACE_OUTER_BOUND ( 'NONE', #440, .T. ) ;
#879 = ORIENTED_EDGE ( 'NONE', *, *, #10, .T. ) ;
#880 = CARTESIAN_POINT ( 'NONE',  ( 0.5986491138359349984, 1.356945927106677496, -0.1350000000000002309 ) ) ;
#881 = EDGE_CURVE ( 'NONE', #265, #242, #639, .T. ) ;
#882 = AXIS2_PLACEMENT_3D ( 'NONE', #489, #381, #901 ) ;
#883 = PLANE ( 'NONE',  #340 ) ;
#884 = VECTOR ( 'NONE', #691, 39.37007874015748854 ) ;
#885 = ORIENTED_EDGE ( 'NONE', *, *, #71, .T. ) ;
#886 = ORIENTED_EDGE ( 'NONE', *, *, #462, .F. ) ;
#887 = DIRECTION ( 'NONE',  ( -0.9848077530122048007, -0.1736481776669483168, 0.000000000000000000 ) ) ;
#888 = DIRECTION ( 'NONE',  ( 0.1736481776669266397, 0.9848077530122086864, 0.000000000000000000 ) ) ;
#889 = ADVANCED_FACE ( 'NONE', ( #722 ), #668, .T. ) ;
#890 = CARTESIAN_POINT ( 'NONE',  ( 0.4434598925337366881, 0.2464732984091253798, 3.356616535228035981E-17 ) ) ;
#891 = ADVANCED_FACE ( 'NONE', ( #922 ), #815, .F. ) ;
#892 = ORIENTED_EDGE ( 'NONE', *, *, #293, .T. ) ;
#893 =( CONVERSION_BASED_UNIT ( 'INCH', #708 ) LENGTH_UNIT ( ) NAMED_UNIT ( #647 ) );
#894 = CARTESIAN_POINT ( 'NONE',  ( 0.3160900368822717188, 0.000000000000000000, -0.2500000000000000000 ) ) ;
#895 = EDGE_CURVE ( 'NONE', #3, #803, #733, .T. ) ;
#896 = LINE ( 'NONE', #666, #993 ) ;
#897 = ORIENTED_EDGE ( 'NONE', *, *, #420, .F. ) ;
#898 = LINE ( 'NONE', #481, #1062 ) ;
#899 = VECTOR ( 'NONE', #477, 39.37007874015748143 ) ;
#900 = CIRCLE ( 'NONE', #954, 0.1000000000000000194 ) ;
#901 = DIRECTION ( 'NONE',  ( -0.1736481776669481225, 0.9848077530122049117, 0.000000000000000000 ) ) ;
#902 = AXIS2_PLACEMENT_3D ( 'NONE', #658, #145, #888 ) ;
#903 = AXIS2_PLACEMENT_3D ( 'NONE', #372, #1039, #949 ) ;
#904 = DIRECTION ( 'NONE',  ( 0.9848077530122087975, -0.1736481776669272226, 0.000000000000000000 ) ) ;
#905 = ADVANCED_FACE ( 'NONE', ( #476 ), #579, .F. ) ;
#906 = EDGE_LOOP ( 'NONE', ( #936, #844, #61, #503 ) ) ;
#907 = CARTESIAN_POINT ( 'NONE',  ( 0.8310806031885995537, 2.444779587653385544, 0.009937313161587671764 ) ) ;
#908 = EDGE_CURVE ( 'NONE', #497, #921, #912, .T. ) ;
#909 = DIRECTION ( 'NONE',  ( -0.000000000000000000, -0.000000000000000000, 1.000000000000000000 ) ) ;
#910 = DIRECTION ( 'NONE',  ( 0.000000000000000000, 0.000000000000000000, -1.000000000000000000 ) ) ;
#911 = EDGE_LOOP ( 'NONE', ( #1075, #345, #356, #972 ) ) ;
#912 = LINE ( 'NONE', #750, #990 ) ;
#913 = EDGE_CURVE ( 'NONE', #505, #791, #161, .T. ) ;
#914 = CARTESIAN_POINT ( 'NONE',  ( 0.3999999999999999667, 0.000000000000000000, 0.2500000000000000000 ) ) ;
#915 = DIRECTION ( 'NONE',  ( -0.9848077530122048007, 0.1736481776669483168, -0.000000000000000000 ) ) ;
#916 = ORIENTED_EDGE ( 'NONE', *, *, #1017, .F. ) ;
#917 = CARTESIAN_POINT ( 'NONE',  ( 0.4145708121834925652, 0.08263518223330730550, -0.2500000000000000000 ) ) ;
#918 = AXIS2_PLACEMENT_3D ( 'NONE', #657, #651, #989 ) ;
#919 = CARTESIAN_POINT ( 'NONE',  ( 0.7916882930681111707, 2.451725514760062286, 0.009937313161587607580 ) ) ;
#920 = VECTOR ( 'NONE', #116, 39.37007874015748854 ) ;
#921 = VERTEX_POINT ( 'NONE', #673 ) ;
#922 = FACE_OUTER_BOUND ( 'NONE', #754, .T. ) ;
#923 = VECTOR ( 'NONE', #785, 39.37007874015748854 ) ;
#924 = VERTEX_POINT ( 'NONE', #316 ) ;
#925 = DIRECTION ( 'NONE',  ( -1.000000000000000000, 0.000000000000000000, 0.000000000000000000 ) ) ;
#926 = EDGE_CURVE ( 'NONE', #397, #794, #157, .T. ) ;
#927 = CYLINDRICAL_SURFACE ( 'NONE', #188, 0.01000000000000011817 ) ;
#928 = VERTEX_POINT ( 'NONE', #4 ) ;
#929 = DIRECTION ( 'NONE',  ( 0.000000000000000000, 0.000000000000000000, -1.000000000000000000 ) ) ;
#930 = ORIENTED_EDGE ( 'NONE', *, *, #591, .T. ) ;
#931 = CARTESIAN_POINT ( 'NONE',  ( -0.8587180301461518894, 2.601519224698779720, 0.2500000000000000000 ) ) ;
#932 = CYLINDRICAL_SURFACE ( 'NONE', #852, 0.009999999999999995004 ) ;
#933 = EDGE_CURVE ( 'NONE', #212, #761, #575, .T. ) ;
#934 = ORIENTED_EDGE ( 'NONE', *, *, #881, .T. ) ;
#935 = DIRECTION ( 'NONE',  ( -1.000000000000000000, 0.000000000000000000, 0.000000000000000000 ) ) ;
#936 = ORIENTED_EDGE ( 'NONE', *, *, #1048, .F. ) ;
#937 = CARTESIAN_POINT ( 'NONE',  ( 0.4058040641899176570, 0.2632673030459245500, 3.372134790388647295E-17 ) ) ;
#938 = DIRECTION ( 'NONE',  ( -1.000000000000000000, 0.000000000000000000, -0.000000000000000000 ) ) ;
#939 = VERTEX_POINT ( 'NONE', #398 ) ;
#940 = LINE ( 'NONE', #419, #338 ) ;
#941 = AXIS2_PLACEMENT_3D ( 'NONE', #564, #153, #55 ) ;
#942 = EDGE_LOOP ( 'NONE', ( #200, #68, #598, #743 ) ) ;
#943 = EDGE_CURVE ( 'NONE', #25, #165, #486, .T. ) ;
#944 = AXIS2_PLACEMENT_3D ( 'NONE', #138, #80, #1067 ) ;
#945 = LINE ( 'NONE', #365, #256 ) ;
#946 = ORIENTED_EDGE ( 'NONE', *, *, #5, .F. ) ;
#947 = VERTEX_POINT ( 'NONE', #744 ) ;
#948 = ADVANCED_FACE ( 'NONE', ( #819 ), #738, .F. ) ;
#949 = DIRECTION ( 'NONE',  ( -0.1736481776669487886, -0.9848077530122048007, 0.000000000000000000 ) ) ;
#950 = CARTESIAN_POINT ( 'NONE',  ( 0.2825260516351804085, 0.04000000000000000083, -0.2500000000000000000 ) ) ;
#951 = EDGE_LOOP ( 'NONE', ( #1040, #859, #865, #421 ) ) ;
#952 = DIRECTION ( 'NONE',  ( 0.01941295861592247374, 0.1100963592634740806, -0.9937313161588018362 ) ) ;
#953 = CARTESIAN_POINT ( 'NONE',  ( -0.2825260516351804085, 0.04000000000000000083, -0.2500000000000000000 ) ) ;
#954 = AXIS2_PLACEMENT_3D ( 'NONE', #93, #929, #935 ) ;
#955 = VERTEX_POINT ( 'NONE', #321 ) ;
#956 = FILL_AREA_STYLE ('',( #44 ) ) ;
#957 = AXIS2_PLACEMENT_3D ( 'NONE', #436, #1, #330 ) ;
#958 = AXIS2_PLACEMENT_3D ( 'NONE', #1059, #572, #406 ) ;
#959 = DIRECTION ( 'NONE',  ( -0.9848077530122087975, -0.1736481776669272226, 0.000000000000000000 ) ) ;
#960 = EDGE_CURVE ( 'NONE', #98, #594, #809, .T. ) ;
#961 = DIRECTION ( 'NONE',  ( 0.9848077530122048007, 0.1736481776669483168, 0.000000000000000000 ) ) ;
#962 = ADVANCED_FACE ( 'NONE', ( #563 ), #663, .F. ) ;
#963 = ORIENTED_EDGE ( 'NONE', *, *, #535, .T. ) ;
#964 = CARTESIAN_POINT ( 'NONE',  ( -0.8366905377923583575, 2.706945927106678251, 0.2500000000000000000 ) ) ;
#965 = LINE ( 'NONE', #214, #431 ) ;
#966 = LINE ( 'NONE', #971, #342 ) ;
#967 = EDGE_CURVE ( 'NONE', #315, #3, #62, .T. ) ;
#968 = ORIENTED_EDGE ( 'NONE', *, *, #275, .T. ) ;
#969 = CARTESIAN_POINT ( 'NONE',  ( -0.8760828479128467405, 2.700000000000000178, 0.2500000000000000000 ) ) ;
#970 = DIRECTION ( 'NONE',  ( 0.000000000000000000, 0.9939186193649264256, -0.1101171107490491324 ) ) ;
#971 = CARTESIAN_POINT ( 'NONE',  ( 0.3999999999999999667, 0.000000000000000000, -0.2500000000000000000 ) ) ;
#972 = ORIENTED_EDGE ( 'NONE', *, *, #597, .F. ) ;
#973 = DIRECTION ( 'NONE',  ( 0.1736481776669272503, 0.9848077530122085754, 0.000000000000000000 ) ) ;
#974 = CIRCLE ( 'NONE', #780, 0.01000000000000011817 ) ;
#975 = STYLED_ITEM ( 'NONE', ( #133 ), #839 ) ;
#976 = DIRECTION ( 'NONE',  ( 0.1736481776669284438, -0.9848077530122083534, 8.881784197001256268E-16 ) ) ;
#977 = AXIS2_PLACEMENT_3D ( 'NONE', #382, #159, #577 ) ;
#978 = CARTESIAN_POINT ( 'NONE',  ( 0.3160900368822717188, 0.000000000000000000, 0.2500000000000000000 ) ) ;
#979 = PRODUCT_DEFINITION_SHAPE ( 'NONE', 'NONE',  #494 ) ;
#980 = VERTEX_POINT ( 'NONE', #243 ) ;
#981 = DIRECTION ( 'NONE',  ( -0.1736481776669483446, 0.9848077530122049117, 0.000000000000000000 ) ) ;
#982 = CARTESIAN_POINT ( 'NONE',  ( -0.5239809945513825840, 0.2424295217258927437, 2.347681869555226049E-17 ) ) ;
#983 = CARTESIAN_POINT ( 'NONE',  ( 0.6380414239564233814, 1.349999999999999867, 0.1349999999999998701 ) ) ;
#984 = EDGE_LOOP ( 'NONE', ( #35, #457, #1035, #139 ) ) ;
#985 = CARTESIAN_POINT ( 'NONE',  ( -0.8308864736024401676, 2.443678624060749982, 3.161841680309893074E-16 ) ) ;
#986 = CARTESIAN_POINT ( 'NONE',  ( -0.4450022447242467649, 0.2552204123466121910, 0.009937313161588105445 ) ) ;
#987 = LINE ( 'NONE', #309, #450 ) ;
#988 = ORIENTED_EDGE ( 'NONE', *, *, #123, .T. ) ;
#989 = DIRECTION ( 'NONE',  ( -0.1736481776669284438, -0.9848077530122083534, 0.000000000000000000 ) ) ;
#990 = VECTOR ( 'NONE', #492, 39.37007874015748143 ) ;
#991 = FACE_OUTER_BOUND ( 'NONE', #350, .T. ) ;
#992 = CIRCLE ( 'NONE', #85, 0.009999999999999995004 ) ;
#993 = VECTOR ( 'NONE', #484, 39.37007874015748854 ) ;
#994 = CARTESIAN_POINT ( 'NONE',  ( 0.3606076898795116392, 0.006945927106677088347, 0.2500000000000000000 ) ) ;
#995 = EDGE_CURVE ( 'NONE', #97, #336, #1087, .T. ) ;
#996 = ORIENTED_EDGE ( 'NONE', *, *, #99, .T. ) ;
#997 = DIRECTION ( 'NONE',  ( 0.1736481776669284438, -0.9848077530122083534, 0.000000000000000000 ) ) ;
#998 = DIRECTION ( 'NONE',  ( -1.000000000000000000, 0.000000000000000000, 0.000000000000000000 ) ) ;
#999 = CARTESIAN_POINT ( 'NONE',  ( -0.8193257200256659489, 2.608465151805458238, 0.2500000000000000000 ) ) ;
#1000 = ORIENTED_EDGE ( 'NONE', *, *, #766, .T. ) ;
#1001 = DIRECTION ( 'NONE',  ( 0.000000000000000000, -0.9939186193649264256, -0.1101171107490493545 ) ) ;
#1002 = DIMENSIONAL_EXPONENTS ( 1.000000000000000000, 0.000000000000000000, 0.000000000000000000, 0.000000000000000000, 0.000000000000000000, 0.000000000000000000, 0.000000000000000000 ) ;
#1003 = DIRECTION ( 'NONE',  ( -0.01941295861592243557, 0.1100963592634738586, 0.9937313161588018362 ) ) ;
#1004 = CARTESIAN_POINT ( 'NONE',  ( -0.7916882930681111707, 2.451725514760063174, -0.009937313161587675234 ) ) ;
#1005 = ORIENTED_EDGE ( 'NONE', *, *, #554, .F. ) ;
#1006 = DIRECTION ( 'NONE',  ( 0.9848077530122085754, -0.1736481776669272781, 0.000000000000000000 ) ) ;
#1007 = EDGE_CURVE ( 'NONE', #955, #612, #974, .T. ) ;
#1008 = DIRECTION ( 'NONE',  ( 0.000000000000000000, 0.000000000000000000, -1.000000000000000000 ) ) ;
#1009 = CARTESIAN_POINT ( 'NONE',  ( -0.3999999999999999667, 0.000000000000000000, 0.2500000000000000000 ) ) ;
#1010 = MECHANICAL_DESIGN_GEOMETRIC_PRESENTATION_REPRESENTATION (  '', ( #975 ), #238 ) ;
#1011 = ORIENTED_EDGE ( 'NONE', *, *, #347, .F. ) ;
#1012 = AXIS2_PLACEMENT_3D ( 'NONE', #32, #952, #703 ) ;
#1013 = ORIENTED_EDGE ( 'NONE', *, *, #895, .T. ) ;
#1014 = CARTESIAN_POINT ( 'NONE',  ( 0.4903202610045921395, 1.376047226650039201, -0.1350000000000002032 ) ) ;
#1015 = EDGE_CURVE ( 'NONE', #19, #531, #898, .T. ) ;
#1016 = DIRECTION ( 'NONE',  ( 0.01941295861592253619, 0.1100963592634744692, 0.9937313161588018362 ) ) ;
#1017 = EDGE_CURVE ( 'NONE', #761, #631, #900, .T. ) ;
#1018 = ORIENTED_EDGE ( 'NONE', *, *, #216, .T. ) ;
#1019 = CARTESIAN_POINT ( 'NONE',  ( 0.8587180301461538878, 2.601519224698779276, 0.1499999999999999944 ) ) ;
#1020 = ORIENTED_EDGE ( 'NONE', *, *, #619, .F. ) ;
#1021 = LINE ( 'NONE', #665, #697 ) ;
#1022 = CARTESIAN_POINT ( 'NONE',  ( -0.8366905377923583575, 2.706945927106678251, -0.1499999999999999667 ) ) ;
#1023 = EDGE_CURVE ( 'NONE', #875, #505, #237, .T. ) ;
#1024 = ORIENTED_EDGE ( 'NONE', *, *, #559, .F. ) ;
#1025 = CARTESIAN_POINT ( 'NONE',  ( -0.4040675824132482497, 0.2534192255158019269, 2.301130762691122329E-17 ) ) ;
#1026 = ORIENTED_EDGE ( 'NONE', *, *, #390, .F. ) ;
#1027 = CARTESIAN_POINT ( 'NONE',  ( -0.3999999999999999667, 0.000000000000000000, 0.2500000000000000000 ) ) ;
#1028 = DIRECTION ( 'NONE',  ( 0.9848077530122085754, 0.1736481776669272781, 0.000000000000000000 ) ) ;
#1029 = ORIENTED_EDGE ( 'NONE', *, *, #107, .F. ) ;
#1030 = CARTESIAN_POINT ( 'NONE',  ( -0.7916882930681109487, 2.451725514760062286, 0.009937313161588327490 ) ) ;
#1031 = EDGE_CURVE ( 'NONE', #612, #39, #355, .T. ) ;
#1032 = ORIENTED_EDGE ( 'NONE', *, *, #383, .F. ) ;
#1033 = ADVANCED_FACE ( 'NONE', ( #599 ), #522, .T. ) ;
#1034 = DIRECTION ( 'NONE',  ( 0.1736481776669266397, -0.9848077530122086864, 0.000000000000000000 ) ) ;
#1035 = ORIENTED_EDGE ( 'NONE', *, *, #473, .T. ) ;
#1036 = DIRECTION ( 'NONE',  ( 0.000000000000000000, 0.000000000000000000, 1.000000000000000000 ) ) ;
#1037 = PRODUCT_RELATED_PRODUCT_CATEGORY ( 'part', '', ( #79 ) ) ;
#1038 = ORIENTED_EDGE ( 'NONE', *, *, #790, .T. ) ;
#1039 = DIRECTION ( 'NONE',  ( -0.9848077530122050227, 0.1736481776669483446, 0.000000000000000000 ) ) ;
#1040 = ORIENTED_EDGE ( 'NONE', *, *, #830, .T. ) ;
#1041 = CARTESIAN_POINT ( 'NONE',  ( -0.4058040641899175460, 0.2632673030459240504, 2.301130762691122329E-17 ) ) ;
#1042 = EDGE_CURVE ( 'NONE', #620, #127, #695, .T. ) ;
#1043 = VECTOR ( 'NONE', #195, 39.37007874015748143 ) ;
#1044 = ORIENTED_EDGE ( 'NONE', *, *, #1070, .F. ) ;
#1045 = DIRECTION ( 'NONE',  ( 0.1725596321415329981, 0.9786343045642142968, -0.1117947730678653245 ) ) ;
#1046 = CIRCLE ( 'NONE', #205, 0.1000000000000001998 ) ;
#1047 = VECTOR ( 'NONE', #614, 39.37007874015748854 ) ;
#1048 = EDGE_CURVE ( 'NONE', #181, #427, #940, .T. ) ;
#1049 = FACE_OUTER_BOUND ( 'NONE', #837, .T. ) ;
#1050 = LINE ( 'NONE', #199, #745 ) ;
#1051 = ORIENTED_EDGE ( 'NONE', *, *, #636, .F. ) ;
#1052 = DIRECTION ( 'NONE',  ( 0.1736481776669284438, 0.9848077530122083534, 1.776356839400251254E-15 ) ) ;
#1053 = PLANE ( 'NONE',  #1066 ) ;
#1054 = EDGE_CURVE ( 'NONE', #791, #246, #102, .T. ) ;
#1055 = VERTEX_POINT ( 'NONE', #349 ) ;
#1056 = VERTEX_POINT ( 'NONE', #182 ) ;
#1057 = FACE_OUTER_BOUND ( 'NONE', #155, .T. ) ;
#1058 = LINE ( 'NONE', #59, #101 ) ;
#1059 = CARTESIAN_POINT ( 'NONE',  ( 0.2825260516351804085, 0.1400000000000000133, 0.2500000000000000000 ) ) ;
#1060 = ORIENTED_EDGE ( 'NONE', *, *, #729, .F. ) ;
#1061 = CARTESIAN_POINT ( 'NONE',  ( 0.3999999999999999667, 0.000000000000000000, 0.2500000000000000000 ) ) ;
#1062 = VECTOR ( 'NONE', #527, 39.37007874015748143 ) ;
#1063 = AXIS2_PLACEMENT_3D ( 'NONE', #937, #244, #175 ) ;
#1064 = VECTOR ( 'NONE', #676, 39.37007874015748854 ) ;
#1065 = CARTESIAN_POINT ( 'NONE',  ( -0.4104021956780963820, 0.05899378323329503016, -0.2824787327191705666 ) ) ;
#1066 = AXIS2_PLACEMENT_3D ( 'NONE', #115, #609, #525 ) ;
#1067 = DIRECTION ( 'NONE',  ( 0.000000000000000000, -0.000000000000000000, -1.000000000000000000 ) ) ;
#1068 = VERTEX_POINT ( 'NONE', #1025 ) ;
#1069 = CARTESIAN_POINT ( 'NONE',  ( -0.3710098855576080545, 0.06593971033997211850, -0.2824787327191705666 ) ) ;
#1070 = EDGE_CURVE ( 'NONE', #875, #194, #276, .T. ) ;
#1071 = DIRECTION ( 'NONE',  ( -0.9848077530122087975, -0.1736481776669272226, 0.000000000000000000 ) ) ;
#1072 = DIRECTION ( 'NONE',  ( -1.000000000000000000, 0.000000000000000000, 0.000000000000000000 ) ) ;
#1073 = ORIENTED_EDGE ( 'NONE', *, *, #352, .T. ) ;
#1074 = CARTESIAN_POINT ( 'NONE',  ( -0.7168260441974001473, 1.336108145786645496, -0.1349999999999997868 ) ) ;
#1075 = ORIENTED_EDGE ( 'NONE', *, *, #1054, .F. ) ;
#1076 = DIRECTION ( 'NONE',  ( -0.1736481776669272226, 0.9848077530122085754, 0.000000000000000000 ) ) ;
#1077 = CARTESIAN_POINT ( 'NONE',  ( -0.7168260441974001473, 1.336108145786645496, 0.1350000000000001754 ) ) ;
#1078 = EDGE_CURVE ( 'NONE', #172, #98, #860, .T. ) ;
#1079 = ORIENTED_EDGE ( 'NONE', *, *, #960, .T. ) ;
#1080 = DIRECTION ( 'NONE',  ( -0.9848077530122048007, 0.1736481776669483168, -0.000000000000000000 ) ) ;
#1081 = VECTOR ( 'NONE', #504, 39.37007874015748143 ) ;
#1082 = DIRECTION ( 'NONE',  ( -0.9848077530122048007, -0.1736481776669483168, -0.000000000000000000 ) ) ;
#1083 = VECTOR ( 'NONE', #1082, 39.37007874015748854 ) ;
#1084 = EDGE_CURVE ( 'NONE', #470, #427, #723, .T. ) ;
#1085 = PLANE ( 'NONE',  #944 ) ;
#1086 = ORIENTED_EDGE ( 'NONE', *, *, #1031, .F. ) ;
#1087 = LINE ( 'NONE', #1069, #167 ) ;
ENDSEC;
END-ISO-10303-21;
